{"glyphs":{"0":{"ha":1000,"x_min":0,"x_max":0,"o":"m 503 -14 b 813 92 599 -14 714 0 b 951 492 933 204 951 354 b 822 878 951 621 935 768 b 503 990 721 976 592 990 b 185 878 331 990 233 924 b 50 492 119 815 50 697 b 188 96 50 304 108 174 b 503 -14 276 8 388 -14 z m 503 196 b 408 231 461 196 428 211 b 346 499 356 282 346 394 b 406 739 346 569 353 682 b 503 781 428 763 461 781 b 592 747 540 781 571 767 b 660 494 651 692 660 576 b 593 229 660 392 649 279 b 503 196 572 210 540 196 z "},"1":{"ha":1000,"x_min":0,"x_max":0,"o":"m 182 647 l 406 647 l 406 0 l 714 0 l 714 972 l 476 972 b 368 836 465 933 440 874 b 199 800 324 813 260 800 l 182 800 z "},"2":{"ha":1000,"x_min":0,"x_max":0,"o":"m 890 238 l 453 238 b 540 308 465 264 482 278 b 647 358 583 331 611 342 l 679 374 b 840 479 776 421 819 457 b 915 676 892 533 915 597 b 833 889 915 783 871 851 b 518 992 778 944 681 992 b 196 889 421 992 293 976 b 93 621 122 822 83 724 l 369 621 b 404 756 364 674 371 724 b 501 788 432 782 465 788 b 596 756 531 788 569 783 b 626 674 615 736 626 706 b 575 558 626 636 615 596 b 471 489 551 536 501 506 l 349 421 b 188 304 290 389 238 356 b 86 13 100 214 86 126 l 86 0 l 890 0 z "},"3":{"ha":1000,"x_min":0,"x_max":0,"o":"m 69 351 l 69 347 b 164 85 69 199 131 118 b 494 -17 256 -7 397 -17 b 794 53 599 -17 713 -6 b 911 283 868 104 911 188 b 850 439 911 360 881 410 b 725 500 821 468 776 492 l 725 507 b 836 567 776 518 813 543 b 896 718 868 599 896 649 b 789 922 896 815 844 883 b 517 988 718 971 611 988 b 214 906 379 988 279 956 b 93 646 146 853 92 763 l 360 646 b 394 754 360 672 364 721 b 507 796 429 793 479 796 b 594 774 528 796 567 794 b 632 699 614 760 632 733 b 590 617 632 665 615 633 b 483 593 565 600 522 593 l 417 593 l 417 411 l 471 411 b 582 388 503 411 553 407 b 624 303 615 365 624 332 b 586 214 624 257 604 229 b 485 186 554 186 508 186 b 379 226 457 186 410 193 b 346 344 347 260 346 304 l 346 351 z "},"4":{"ha":1000,"x_min":0,"x_max":0,"o":"m 513 207 l 513 0 l 807 0 l 807 207 l 932 207 l 932 426 l 807 426 l 807 972 l 526 972 l 54 435 l 54 207 z m 276 426 l 526 701 l 526 426 z "},"5":{"ha":1000,"x_min":0,"x_max":0,"o":"m 85 299 b 197 58 86 178 144 101 b 479 -19 283 -11 389 -19 b 813 86 564 -19 713 -14 b 910 353 875 149 910 246 b 817 589 910 417 896 514 b 544 676 732 668 621 676 b 332 615 475 676 403 671 l 347 757 l 843 757 l 843 972 l 154 972 l 96 433 l 381 433 b 493 496 410 492 463 496 b 585 469 524 496 558 492 b 628 354 604 453 628 419 b 586 225 628 306 615 256 b 489 189 558 196 521 189 b 399 222 456 189 425 196 b 365 299 383 238 367 263 z "},"6":{"ha":1000,"x_min":0,"x_max":0,"o":"m 910 731 b 800 922 896 817 851 883 b 550 990 717 986 594 990 b 229 871 432 990 318 961 b 83 438 129 769 83 604 b 196 90 83 350 96 197 b 499 -21 289 -10 400 -21 b 813 88 593 -21 715 -10 b 918 354 882 157 918 256 b 813 596 918 468 867 549 b 558 676 733 664 636 676 b 351 614 488 676 417 667 b 411 757 356 669 379 725 b 536 803 447 793 492 803 b 615 785 560 803 593 799 b 653 731 628 778 646 761 z m 513 500 b 619 461 544 500 586 494 b 663 344 643 438 663 399 b 614 214 663 288 642 242 b 507 174 579 179 538 174 b 397 214 450 174 417 196 b 351 339 375 235 351 274 b 397 461 351 403 375 440 b 513 500 433 494 479 500 z "},"7":{"ha":1000,"x_min":0,"x_max":0,"o":"m 89 735 l 621 735 b 411 431 543 644 461 528 b 303 0 350 311 301 131 l 614 0 b 676 385 613 136 632 265 b 911 758 711 478 786 631 l 911 972 l 89 972 z "},"8":{"ha":1000,"x_min":0,"x_max":0,"o":"m 500 429 b 611 397 536 429 581 421 b 653 313 633 381 653 351 b 604 214 653 274 635 236 b 497 185 576 194 538 185 b 388 217 486 185 425 186 b 346 306 361 238 346 274 b 385 393 346 336 358 369 b 500 429 404 411 440 429 z m 501 807 b 601 782 535 807 572 803 b 644 693 624 765 644 738 b 603 604 644 653 628 624 b 499 575 569 578 529 575 b 386 610 463 575 418 579 b 354 690 367 628 354 656 b 397 778 354 724 372 757 b 501 807 429 804 469 807 z m 500 990 b 217 918 417 990 306 979 b 97 704 139 864 97 783 b 139 574 97 654 114 606 b 233 510 160 547 194 522 b 129 444 204 501 165 483 b 69 283 88 397 69 343 b 167 64 69 175 114 107 b 500 -19 261 -12 383 -19 b 833 64 617 -19 739 -12 b 931 283 886 107 931 175 b 871 444 931 343 913 397 b 767 510 835 483 796 501 b 861 574 806 522 840 547 b 903 704 886 606 903 654 b 783 918 903 783 861 864 b 500 990 694 979 583 990 z "},"9":{"ha":1000,"x_min":0,"x_max":0,"o":"m 92 239 b 201 47 106 153 150 86 b 451 -21 285 -17 407 -21 b 772 99 569 -21 683 8 b 918 532 872 200 918 365 b 806 879 918 619 906 772 b 503 990 713 979 601 990 b 189 882 408 990 286 979 b 83 615 119 813 83 714 b 189 374 83 501 135 421 b 443 293 268 306 365 293 b 650 356 514 293 585 303 b 590 213 646 300 622 244 b 465 167 554 176 510 167 b 386 185 442 167 408 171 b 349 239 374 192 356 208 z m 489 469 b 382 508 457 469 415 475 b 339 625 358 532 339 571 b 388 756 339 682 360 728 b 494 796 422 790 464 796 b 604 756 551 796 585 774 b 650 631 626 735 650 696 b 604 508 650 567 626 529 b 489 469 568 475 522 469 z "}," ":{"ha":324,"x_min":0,"x_max":0,"o":""},"!":{"ha":519,"x_min":0,"x_max":0,"o":"m 113 0 l 403 0 l 403 265 l 113 265 z m 333 375 l 415 742 l 415 994 l 104 994 l 104 742 l 186 375 z "},"\"":{"ha":825,"x_min":0,"x_max":0,"o":"m 378 972 l 83 972 l 163 699 l 299 699 z m 742 972 l 447 972 l 526 699 l 663 699 z "},"#":{"ha":1129,"x_min":0,"x_max":0,"o":"m 726 0 l 764 226 l 976 226 l 1003 369 l 790 369 l 835 629 l 1044 629 l 1069 772 l 858 772 l 890 972 l 757 972 l 722 772 l 500 772 l 533 972 l 399 972 l 364 772 l 153 772 l 128 629 l 342 629 l 296 369 l 85 369 l 60 226 l 271 226 l 235 0 l 369 0 l 406 226 l 629 226 l 593 0 z m 656 369 l 431 369 l 476 629 l 701 629 z "},"$":{"ha":1000,"x_min":0,"x_max":0,"o":"m 74 332 b 178 64 74 275 85 147 b 461 -26 258 -8 381 -28 l 461 -133 l 571 -133 l 571 -26 b 803 40 644 -26 736 -6 b 928 297 850 74 928 151 b 853 490 928 353 915 428 b 565 619 794 550 699 586 l 565 799 b 632 767 589 796 615 786 b 656 692 649 747 656 715 l 656 685 l 908 685 l 908 692 b 810 925 908 749 899 853 b 571 999 746 976 643 999 l 571 1103 l 461 1103 l 461 999 b 183 908 371 1000 258 982 b 103 703 129 856 103 781 b 175 519 103 624 131 564 b 464 390 254 440 411 401 l 464 194 b 379 233 425 196 396 214 b 347 332 360 257 347 296 z m 568 374 b 631 351 589 371 615 363 b 663 289 654 335 663 315 b 635 219 663 257 650 233 b 568 194 618 204 590 196 z m 467 639 b 399 665 443 643 411 656 b 374 718 386 675 374 692 b 401 781 374 742 383 765 b 467 801 417 793 442 801 z "},"%":{"ha":1229,"x_min":0,"x_max":0,"o":"m 556 725 b 474 935 556 832 514 897 b 289 1003 440 967 381 1003 b 103 935 196 1003 136 965 b 21 725 64 897 21 832 b 103 514 21 619 63 551 b 289 447 144 475 208 447 b 474 515 381 447 440 483 b 556 725 514 553 556 618 z m 286 843 b 344 815 318 843 336 826 b 367 725 367 788 367 744 b 343 635 367 694 360 657 b 286 607 332 619 313 607 b 229 635 263 607 242 618 b 206 725 207 663 206 707 b 226 813 206 756 210 790 b 286 843 236 826 254 843 z m 224 0 l 371 0 l 1019 990 l 879 990 z m 1208 247 b 1126 457 1208 354 1167 419 b 942 525 1093 489 1033 525 b 756 457 849 525 789 488 b 674 247 717 419 674 354 b 756 36 674 142 715 74 b 942 -31 797 -3 861 -31 b 1126 38 1033 -31 1093 6 b 1208 247 1167 75 1208 140 z m 939 365 b 997 338 971 365 989 349 b 1019 247 1019 310 1019 267 b 996 157 1019 217 1013 179 b 939 129 985 142 965 129 b 882 157 915 129 894 140 b 858 247 860 185 858 229 b 879 335 858 278 863 313 b 939 365 889 349 907 365 z "},"&":{"ha":969,"x_min":0,"x_max":0,"o":"m 679 465 b 653 406 675 446 667 425 l 561 514 b 725 751 669 563 725 656 b 640 931 725 826 689 893 b 444 988 590 969 515 988 b 225 913 328 988 261 949 b 153 731 190 879 153 821 b 224 565 153 682 164 622 b 101 488 156 539 114 499 b 14 268 39 426 14 351 b 97 64 14 188 40 121 b 336 -24 168 -7 247 -24 b 608 72 469 -24 551 18 l 665 0 l 983 0 l 788 239 b 900 465 815 271 874 344 z m 479 238 b 382 201 440 207 410 201 b 306 228 356 201 329 204 b 282 292 286 247 282 267 b 313 365 282 324 290 343 b 357 399 325 378 340 390 z m 442 654 b 410 693 422 679 424 676 b 385 754 397 708 385 729 b 404 807 385 772 392 794 b 454 825 417 818 438 825 b 507 807 472 825 494 819 b 528 753 519 794 528 772 b 500 690 528 728 515 706 b 442 654 482 674 451 658 z "},"'":{"ha":461,"x_min":0,"x_max":0,"o":"m 378 972 l 83 972 l 163 699 l 299 699 z "},"(":{"ha":625,"x_min":0,"x_max":0,"o":"m 272 1057 b 138 779 231 982 167 856 b 74 421 101 685 74 564 b 144 54 74 301 94 185 b 272 -211 175 -25 224 -126 l 497 -211 b 415 26 468 -132 443 -61 b 347 421 375 153 347 260 b 400 767 347 543 368 653 b 497 1057 422 846 463 965 z "},")":{"ha":625,"x_min":0,"x_max":0,"o":"m 128 1057 b 225 767 163 964 200 853 b 278 421 256 657 278 550 b 210 26 278 279 251 164 b 128 -211 186 -53 161 -126 l 353 -211 b 481 54 394 -136 446 -35 b 551 404 532 185 551 281 b 488 779 551 547 531 665 b 353 1057 454 868 394 985 z "},"*":{"ha":667,"x_min":0,"x_max":0,"o":"m 333 761 l 424 643 l 526 722 l 440 836 l 575 882 l 533 1006 l 399 958 l 399 1100 l 269 1100 l 269 958 l 135 1006 l 92 882 l 226 836 l 142 722 l 244 643 z "},"+":{"ha":944,"x_min":0,"x_max":0,"o":"m 74 542 l 74 424 l 411 424 l 411 86 l 529 86 l 529 424 l 867 424 l 867 542 l 529 542 l 529 879 l 411 879 l 411 542 z "},",":{"ha":490,"x_min":0,"x_max":0,"o":"m 97 0 l 254 0 b 218 -94 254 -37 239 -74 b 103 -131 182 -131 133 -131 l 97 -131 l 97 -274 l 106 -274 b 313 -204 156 -274 244 -268 b 393 26 385 -136 393 -44 l 393 276 l 97 276 z "},"-":{"ha":701,"x_min":0,"x_max":0,"o":"m 74 285 l 628 285 l 628 542 l 74 542 z "},".":{"ha":490,"x_min":0,"x_max":0,"o":"m 97 0 l 393 0 l 393 286 l 97 286 z "},"/":{"ha":628,"x_min":0,"x_max":0,"o":"m 0 -257 l 118 -257 l 628 972 l 510 972 z "},":":{"ha":490,"x_min":0,"x_max":0,"o":"m 97 0 l 393 0 l 393 286 l 97 286 z m 97 404 l 393 404 l 393 692 l 97 692 z "},";":{"ha":490,"x_min":0,"x_max":0,"o":"m 97 414 l 393 414 l 393 701 l 97 701 z m 97 19 l 254 19 b 218 -75 254 -18 239 -54 b 103 -111 182 -111 133 -111 l 97 -111 l 97 -254 l 106 -254 b 313 -185 156 -254 244 -249 b 393 46 385 -117 393 -25 l 393 296 l 97 296 z "},"<":{"ha":900,"x_min":0,"x_max":0,"o":"m 183 496 l 817 850 l 760 961 l 57 568 l 57 424 l 760 31 l 817 142 z "},"=":{"ha":925,"x_min":0,"x_max":0,"o":"m 69 642 l 69 524 l 856 524 l 856 642 z m 69 392 l 69 274 l 856 274 l 856 392 z "},">":{"ha":900,"x_min":0,"x_max":0,"o":"m 717 496 l 83 142 l 140 31 l 843 424 l 843 568 l 140 961 l 83 850 z "},"?":{"ha":871,"x_min":0,"x_max":0,"o":"m 265 0 l 561 0 l 561 260 l 265 260 z m 336 657 l 336 661 b 363 763 336 682 338 733 b 435 792 383 786 411 792 b 501 769 454 792 482 789 b 522 713 513 760 522 742 b 449 604 522 650 474 622 l 411 576 b 325 478 378 551 346 526 b 307 364 307 436 307 396 l 307 340 l 535 340 l 535 349 b 572 438 535 392 558 422 b 660 496 594 461 628 478 b 751 560 693 515 725 533 b 815 722 796 604 815 658 b 713 924 815 831 758 892 b 440 985 631 981 504 985 b 144 894 374 985 232 978 b 56 669 103 856 56 779 l 56 657 z "},"@":{"ha":1213,"x_min":0,"x_max":0,"o":"m 685 721 b 546 774 660 749 622 774 b 364 697 472 774 410 750 b 296 485 328 656 296 586 b 371 281 296 415 314 342 b 572 200 426 222 496 200 b 751 274 686 200 732 247 b 804 224 764 250 781 236 b 917 200 842 204 881 200 b 1082 257 965 200 1028 207 b 1171 519 1118 290 1171 365 b 1028 892 1171 622 1149 769 b 608 1047 940 981 808 1047 b 207 893 443 1047 315 1000 b 42 478 128 815 42 685 b 210 51 42 301 106 149 b 606 -83 283 -15 407 -83 b 903 -1 725 -83 814 -57 l 846 106 b 606 33 775 57 701 33 b 296 150 464 33 365 83 b 167 476 221 224 167 329 b 296 811 167 643 232 750 b 618 931 369 882 482 931 b 918 824 749 931 851 885 b 1046 510 958 786 1046 689 b 1021 381 1046 460 1039 417 b 950 331 1008 357 988 331 b 901 410 903 331 901 379 l 901 751 l 685 751 z m 599 635 b 654 615 626 635 644 625 b 688 493 669 600 688 567 b 653 358 688 442 682 388 b 599 338 638 343 618 338 b 544 358 572 338 556 347 b 510 493 510 392 510 468 b 546 615 510 550 521 592 b 599 635 561 631 579 635 z "},"A":{"ha":986,"x_min":0,"x_max":0,"o":"m 340 138 l 642 138 l 686 0 l 1000 0 l 640 972 l 342 972 l -18 0 l 296 0 z m 400 338 l 490 629 l 582 338 z "},"B":{"ha":1081,"x_min":0,"x_max":0,"o":"m 118 972 l 118 0 l 664 0 b 933 67 736 0 857 8 b 1025 265 975 97 1025 157 b 956 447 1025 356 992 413 b 818 515 947 456 899 500 l 818 521 b 917 579 851 529 885 546 b 976 729 961 625 976 672 b 899 914 976 824 938 882 b 668 972 829 971 732 972 z m 421 753 l 572 753 b 649 735 588 753 626 751 b 674 675 661 725 674 707 b 651 617 674 642 661 625 b 576 597 632 599 601 597 l 421 597 z m 421 396 l 603 396 b 682 376 628 396 661 393 b 710 308 693 368 710 349 b 683 240 710 274 697 253 b 604 219 661 221 631 219 l 421 219 z "},"C":{"ha":1054,"x_min":0,"x_max":0,"o":"m 731 358 b 683 269 728 338 718 300 b 567 232 647 238 608 232 b 432 288 525 232 475 236 b 378 485 386 342 378 422 b 440 690 378 544 385 635 b 575 739 481 731 529 739 b 679 708 600 739 646 736 b 725 621 701 689 719 657 l 1018 621 b 906 879 1003 778 918 867 b 565 997 835 951 725 997 b 200 869 450 997 311 978 b 56 476 115 788 56 660 b 196 83 56 272 128 147 b 546 -28 304 -18 446 -28 b 906 85 635 -28 797 -22 b 1026 358 967 144 1017 246 z "},"D":{"ha":1111,"x_min":0,"x_max":0,"o":"m 118 972 l 118 0 l 585 0 b 921 101 699 0 814 4 b 1063 472 967 143 1063 253 b 922 864 1063 628 1015 776 b 585 972 821 960 699 972 z m 421 717 l 528 717 b 688 668 574 717 642 714 b 740 486 739 617 740 522 b 682 307 740 431 732 353 b 529 261 636 264 574 261 l 421 261 z "},"E":{"ha":999,"x_min":0,"x_max":0,"o":"m 421 606 l 421 715 l 925 715 l 925 972 l 118 972 l 118 0 l 936 0 l 936 257 l 421 257 l 421 376 l 853 376 l 853 606 z "},"F":{"ha":921,"x_min":0,"x_max":0,"o":"m 421 579 l 421 706 l 900 706 l 900 972 l 118 972 l 118 0 l 421 0 l 421 342 l 818 342 l 818 579 z "},"G":{"ha":1111,"x_min":0,"x_max":0,"o":"m 624 536 l 624 322 l 757 322 b 699 244 753 313 735 274 b 588 210 663 217 626 210 b 458 254 542 210 497 217 b 383 486 400 308 383 410 b 447 707 383 564 400 657 b 576 758 472 733 513 758 b 690 717 603 758 654 754 b 726 636 708 699 722 669 l 1039 636 b 896 904 1024 760 960 854 b 563 996 810 972 675 996 b 203 858 446 996 314 971 b 56 461 138 792 56 667 b 196 78 56 290 111 157 b 522 -29 297 -17 424 -29 b 808 82 679 -29 754 15 l 826 0 l 1049 0 l 1049 536 z "},"H":{"ha":1113,"x_min":0,"x_max":0,"o":"m 421 382 l 692 382 l 692 0 l 994 0 l 994 972 l 692 972 l 692 638 l 421 638 l 421 972 l 118 972 l 118 0 l 421 0 z "},"I":{"ha":539,"x_min":0,"x_max":0,"o":"m 118 972 l 118 0 l 421 0 l 421 972 z "},"J":{"ha":900,"x_min":0,"x_max":0,"o":"m 28 383 l 28 364 b 121 65 28 279 31 156 b 408 -28 201 -17 314 -28 b 685 60 490 -28 603 -19 b 782 361 772 144 782 261 l 782 972 l 479 972 l 479 317 b 461 242 479 292 478 264 b 406 215 447 222 429 215 b 344 243 376 215 357 228 b 325 326 326 267 325 297 l 325 383 z "},"K":{"ha":1082,"x_min":0,"x_max":0,"o":"m 421 654 l 421 972 l 118 972 l 118 0 l 421 0 l 421 290 l 496 369 l 738 0 l 1103 0 l 693 568 l 1081 972 l 726 972 z "},"L":{"ha":849,"x_min":0,"x_max":0,"o":"m 842 257 l 421 257 l 421 972 l 118 972 l 118 0 l 842 0 z "},"M":{"ha":1396,"x_min":0,"x_max":0,"o":"m 588 0 l 808 0 l 1003 639 l 1010 638 l 1003 564 l 1003 0 l 1278 0 l 1278 972 l 867 972 l 711 422 l 701 356 l 694 356 l 686 422 l 529 972 l 118 972 l 118 0 l 393 0 l 393 564 l 386 638 l 393 639 z "},"N":{"ha":1139,"x_min":0,"x_max":0,"o":"m 421 539 l 718 0 l 1021 0 l 1021 972 l 718 972 l 718 507 l 725 433 l 718 433 l 421 972 l 118 972 l 118 0 l 421 0 l 421 465 l 414 539 z "},"O":{"ha":1136,"x_min":0,"x_max":0,"o":"m 56 483 b 181 115 56 276 136 163 b 572 -26 294 -7 444 -26 b 954 113 699 -26 842 -8 b 1081 494 1024 188 1081 307 b 951 861 1081 601 1061 749 b 561 999 839 978 686 999 b 193 863 446 999 308 983 b 56 483 121 786 56 663 z m 378 486 b 442 692 378 539 386 633 b 574 743 479 731 525 743 b 699 692 621 743 663 729 b 758 486 749 639 758 557 b 699 281 758 415 743 329 b 568 229 663 240 615 229 b 439 281 519 229 475 243 b 378 486 385 339 378 433 z "},"P":{"ha":1028,"x_min":0,"x_max":0,"o":"m 118 972 l 118 0 l 421 0 l 421 281 l 613 281 b 901 368 688 281 810 279 b 993 629 986 450 993 565 b 900 881 993 697 983 801 b 613 972 817 960 701 972 z m 421 710 l 565 710 b 664 685 593 710 638 708 b 689 619 676 674 689 653 b 661 542 689 582 676 556 b 565 514 632 514 590 514 l 421 514 z "},"Q":{"ha":1133,"x_min":0,"x_max":0,"o":"m 935 142 b 1078 514 992 197 1078 308 b 958 861 1078 656 1033 781 b 582 999 846 982 690 999 b 192 861 463 999 310 983 b 56 463 133 801 56 682 b 183 99 56 353 76 207 b 554 -26 294 -14 435 -26 b 794 26 643 -26 708 -19 l 925 -110 l 1054 24 z m 650 428 l 543 325 l 636 226 b 574 208 615 211 597 208 b 446 254 526 208 485 215 b 378 476 381 319 378 433 b 439 697 378 517 382 626 b 571 758 472 739 513 758 b 710 692 625 758 674 743 b 756 494 747 639 756 560 b 738 339 756 442 750 392 z "},"R":{"ha":1069,"x_min":0,"x_max":0,"o":"m 118 0 l 421 0 l 421 336 l 526 336 b 633 307 560 336 606 333 b 668 178 669 274 667 218 l 671 119 b 704 0 672 78 674 46 l 1014 0 b 979 143 983 53 981 92 l 976 222 b 938 374 975 276 974 325 b 839 439 915 403 881 428 l 839 446 b 926 496 875 456 904 475 b 990 671 978 547 990 610 b 907 893 990 749 974 831 b 667 972 831 964 728 972 l 118 972 z m 421 736 l 590 736 b 676 711 613 736 650 735 b 703 643 699 690 703 664 b 672 568 703 604 688 581 b 592 544 647 546 613 544 l 421 544 z "},"S":{"ha":950,"x_min":0,"x_max":0,"o":"m 42 321 b 133 79 43 219 83 131 b 474 -31 229 -21 378 -31 b 817 76 563 -31 719 -22 b 908 313 868 129 908 222 b 833 501 908 407 867 468 b 607 604 768 567 672 590 l 513 625 b 372 671 440 640 396 647 b 353 718 356 686 353 704 b 386 775 353 742 368 764 b 469 792 407 788 444 792 b 564 761 522 792 550 776 b 586 694 579 744 586 718 l 872 694 b 772 914 868 794 821 872 b 469 997 683 990 544 997 b 171 915 382 997 264 988 b 57 681 124 878 57 807 b 132 497 57 601 81 543 b 372 394 167 465 235 422 l 469 375 b 583 336 501 368 557 354 b 619 267 610 318 619 296 b 583 197 619 233 604 211 b 497 176 557 179 526 176 b 379 215 468 176 414 178 b 346 321 358 238 343 279 z "},"T":{"ha":881,"x_min":0,"x_max":0,"o":"m 289 706 l 289 0 l 592 0 l 592 706 l 867 706 l 867 972 l 14 972 l 14 706 z "},"U":{"ha":1136,"x_min":0,"x_max":0,"o":"m 1018 972 l 714 972 l 714 378 b 676 256 714 339 708 289 b 568 218 643 221 597 218 b 460 256 539 218 493 221 b 422 378 428 289 422 339 l 422 972 l 118 972 l 118 365 b 213 88 118 267 129 172 b 569 -26 300 -1 429 -26 b 924 88 711 -26 836 -1 b 1018 364 1011 176 1018 271 z "},"V":{"ha":965,"x_min":0,"x_max":0,"o":"m 486 356 l 479 356 l 461 454 l 326 972 l 0 972 l 326 0 l 638 0 l 965 972 l 638 972 l 506 454 z "},"W":{"ha":1385,"x_min":0,"x_max":0,"o":"m 693 632 l 815 0 l 1118 0 l 1385 972 l 1088 972 l 969 465 l 951 339 l 935 449 l 822 972 l 561 972 l 457 460 l 435 339 l 417 451 l 299 972 l 0 972 l 268 0 l 575 0 z "},"X":{"ha":1042,"x_min":0,"x_max":0,"o":"m 526 283 l 688 0 l 1056 0 l 706 508 l 1029 972 l 688 972 l 526 701 l 368 972 l 35 972 l 347 508 l -14 0 l 361 0 z "},"Y":{"ha":951,"x_min":0,"x_max":0,"o":"m 478 578 l 313 972 l -14 972 l 324 340 l 324 0 l 626 0 l 626 340 l 965 972 l 639 972 z "},"Z":{"ha":967,"x_min":0,"x_max":0,"o":"m 494 706 l 56 263 l 56 0 l 911 0 l 911 267 l 401 267 l 874 757 l 874 972 l 75 972 l 75 706 z "},"[":{"ha":557,"x_min":0,"x_max":0,"o":"m 74 1057 l 74 -211 l 483 -211 l 483 -22 l 350 -22 l 350 872 l 483 872 l 483 1057 z "},"\\":{"ha":628,"x_min":0,"x_max":0,"o":"m 628 -257 l 118 972 l 0 972 l 510 -257 z "},"]":{"ha":557,"x_min":0,"x_max":0,"o":"m 483 1057 l 74 1057 l 74 872 l 207 872 l 207 -22 l 74 -22 l 74 -211 l 483 -211 z "},"^":{"ha":722,"x_min":0,"x_max":0,"o":"m 360 871 l 478 669 l 679 669 l 485 972 l 235 972 l 40 669 l 242 669 z "},"_":{"ha":690,"x_min":0,"x_max":0,"o":"m 0 -264 l 690 -264 l 690 -146 l 0 -146 z "},"`":{"ha":521,"x_min":0,"x_max":0,"o":"m 289 972 l 26 972 l 182 789 l 381 789 z "},"a":{"ha":881,"x_min":0,"x_max":0,"o":"m 346 465 b 368 532 344 492 354 518 b 433 554 381 544 401 554 b 494 535 442 554 475 553 b 513 489 503 528 513 513 b 492 436 513 463 501 446 b 363 406 472 418 442 415 l 279 396 b 89 319 222 389 144 375 b 36 182 50 281 36 235 b 96 29 36 103 68 56 b 274 -25 147 -18 218 -25 b 432 8 322 -25 381 -18 b 518 76 465 25 496 50 l 521 76 l 539 0 l 853 0 l 853 10 b 814 42 836 15 821 28 b 804 122 807 54 804 72 l 804 440 b 732 642 804 497 797 579 b 440 724 651 721 508 724 b 143 629 347 724 222 711 b 72 465 106 590 78 533 z m 513 301 b 475 179 513 264 510 215 b 396 147 453 156 428 147 b 347 165 381 147 363 150 b 329 211 338 175 329 190 b 346 256 329 228 333 242 b 429 289 369 281 406 285 b 513 319 458 293 482 297 z "},"b":{"ha":965,"x_min":0,"x_max":0,"o":"m 368 68 l 374 68 b 583 -25 433 -11 515 -25 b 817 60 671 -25 749 -8 b 924 353 863 104 924 194 b 822 640 924 519 854 607 b 596 731 754 710 674 731 b 382 646 539 731 454 722 l 382 972 l 90 972 l 90 0 l 368 0 z m 369 344 b 414 499 369 399 379 461 b 499 533 436 522 464 533 b 578 501 532 533 557 522 b 624 353 610 469 624 411 b 575 192 624 296 610 228 b 493 158 560 175 533 158 b 415 193 463 158 435 172 b 369 344 386 224 369 276 z "},"c":{"ha":869,"x_min":0,"x_max":0,"o":"m 556 278 b 522 182 556 249 544 206 b 456 158 501 161 476 158 b 385 188 429 158 406 164 b 342 360 343 232 342 321 b 383 522 342 415 347 483 b 454 551 403 543 425 551 b 521 526 479 551 503 544 b 554 432 547 500 554 460 l 822 432 b 736 635 817 521 779 590 b 451 735 686 685 600 735 b 156 629 356 735 243 714 b 42 336 94 568 42 468 b 143 68 42 199 94 114 b 432 -25 229 -14 342 -25 b 733 75 522 -25 642 -17 b 828 278 776 118 818 186 z "},"d":{"ha":965,"x_min":0,"x_max":0,"o":"m 875 0 l 875 972 l 583 972 l 583 646 b 381 731 554 682 501 731 b 144 636 289 731 210 706 b 42 336 82 569 42 458 b 139 64 42 207 88 118 b 369 -25 213 -12 301 -25 b 592 68 429 -25 524 -14 l 597 68 l 597 0 z m 594 354 b 553 193 594 300 589 235 b 471 158 532 169 504 158 b 392 190 435 158 410 174 b 342 346 367 215 342 261 b 386 501 342 385 346 460 b 465 533 410 525 438 533 b 553 497 508 533 536 515 b 594 354 589 458 594 403 z "},"e":{"ha":900,"x_min":0,"x_max":0,"o":"m 561 204 b 525 161 557 190 547 174 b 456 147 506 150 476 147 b 367 188 413 147 385 164 b 340 294 349 213 339 257 l 858 294 l 858 311 b 761 626 858 394 857 528 b 453 731 707 682 614 731 b 147 617 344 731 233 707 b 42 332 81 547 42 444 b 138 72 42 214 83 126 b 450 -25 225 -15 340 -25 b 707 28 524 -25 618 -24 b 847 204 790 76 828 144 z m 342 433 b 376 526 343 463 354 503 b 456 557 397 550 426 557 b 528 528 479 557 507 551 b 558 433 547 507 558 464 z "},"f":{"ha":601,"x_min":0,"x_max":0,"o":"m 594 706 l 431 706 l 431 711 b 454 775 431 735 428 756 b 518 793 469 788 493 793 b 594 782 538 793 571 788 l 594 958 b 414 972 540 965 465 972 b 201 908 364 972 265 969 b 136 717 144 854 136 782 l 136 706 l 7 706 l 7 514 l 136 514 l 136 0 l 431 0 l 431 514 l 594 514 z "},"g":{"ha":950,"x_min":0,"x_max":0,"o":"m 106 -35 b 201 -210 108 -78 121 -154 b 460 -269 276 -262 382 -269 b 763 -179 556 -269 674 -264 b 860 106 846 -99 860 7 l 860 706 l 586 706 l 586 640 l 579 640 b 364 725 519 706 438 725 b 138 631 275 725 199 697 b 42 356 92 582 42 497 b 132 106 42 224 89 147 b 363 28 203 36 290 28 b 561 89 435 28 500 38 l 568 89 l 568 11 b 540 -72 568 -15 565 -47 b 463 -99 526 -85 503 -99 b 399 -82 439 -99 414 -93 b 375 -35 390 -76 375 -61 z m 343 371 b 385 501 343 396 346 463 b 461 533 404 522 432 533 b 539 500 493 533 519 519 b 579 372 560 478 579 440 b 542 243 579 351 576 283 b 458 208 525 224 499 208 b 376 249 425 208 397 221 b 343 371 347 286 343 333 z "},"h":{"ha":958,"x_min":0,"x_max":0,"o":"m 382 972 l 90 972 l 90 0 l 382 0 l 382 375 b 410 478 382 413 392 451 b 486 518 429 506 454 518 b 554 482 519 518 540 503 b 576 378 575 451 576 400 l 576 0 l 868 0 l 868 424 b 793 661 868 513 858 600 b 604 726 758 694 699 726 b 382 646 490 726 421 681 z "},"i":{"ha":472,"x_min":0,"x_max":0,"o":"m 90 706 l 90 0 l 382 0 l 382 706 z m 90 789 l 382 789 l 382 972 l 90 972 z "},"j":{"ha":485,"x_min":0,"x_max":0,"o":"m 100 779 l 394 779 l 394 972 l 100 972 z m 100 706 l 100 40 b 79 -36 100 14 99 -17 b 17 -54 61 -54 31 -54 b -28 -50 1 -54 -12 -53 l -28 -247 b 128 -261 6 -254 54 -261 b 332 -199 182 -261 274 -257 b 393 1 389 -142 393 -64 l 393 706 z "},"k":{"ha":889,"x_min":0,"x_max":0,"o":"m 382 486 l 382 972 l 90 972 l 90 0 l 382 0 l 382 197 l 433 250 l 579 0 l 903 0 l 614 421 l 896 706 l 572 706 z "},"l":{"ha":472,"x_min":0,"x_max":0,"o":"m 90 972 l 90 0 l 382 0 l 382 972 z "},"m":{"ha":1401,"x_min":0,"x_max":0,"o":"m 90 706 l 90 0 l 375 0 l 375 386 b 403 483 375 419 385 457 b 472 522 425 514 451 522 b 532 497 497 522 519 511 b 558 399 557 468 558 410 l 558 0 l 843 0 l 843 382 b 869 482 843 422 853 457 b 942 522 892 515 919 522 b 1003 490 969 522 990 508 b 1026 393 1025 461 1026 414 l 1026 0 l 1311 0 l 1311 418 b 1231 665 1311 486 1303 597 b 1043 729 1169 724 1086 729 b 881 686 989 729 936 722 b 790 596 847 665 815 636 b 713 693 772 643 740 675 b 578 729 676 715 622 729 b 442 692 524 729 476 714 b 361 608 413 672 383 643 l 353 608 l 353 706 z "},"n":{"ha":958,"x_min":0,"x_max":0,"o":"m 369 706 l 90 706 l 90 0 l 382 0 l 382 375 b 410 478 382 383 382 439 b 488 518 432 510 463 518 b 554 482 517 518 539 507 b 576 378 561 471 576 443 l 576 0 l 868 0 l 868 424 b 796 661 868 522 860 600 b 601 726 738 717 664 726 b 465 699 558 726 513 721 b 375 631 426 681 397 657 l 369 631 z "},"o":{"ha":908,"x_min":0,"x_max":0,"o":"m 457 547 b 522 521 482 547 503 542 b 567 353 560 481 567 401 b 521 186 567 340 567 235 b 451 158 501 165 478 158 b 385 186 428 158 404 164 b 342 353 354 219 342 294 b 386 519 342 460 369 501 b 457 547 406 540 428 547 z m 867 354 b 761 629 867 488 818 575 b 457 731 667 719 543 731 b 147 618 361 731 243 717 b 42 338 97 565 42 479 b 146 63 42 193 94 108 b 440 -25 231 -15 340 -25 b 760 76 533 -25 663 -18 b 867 354 811 126 867 215 z "},"p":{"ha":965,"x_min":0,"x_max":0,"o":"m 90 706 l 90 -257 l 382 -257 l 382 51 b 588 -25 444 -15 525 -25 b 819 61 667 -25 750 -11 b 924 365 893 136 924 254 b 824 654 924 549 846 633 b 601 731 751 724 661 731 b 374 628 533 731 439 719 l 368 628 l 368 706 z m 369 344 b 413 497 369 393 374 456 b 496 533 436 524 467 533 b 581 497 538 533 565 515 b 624 344 619 454 624 386 b 581 194 624 307 621 239 b 496 158 560 172 533 158 b 406 203 463 158 431 171 b 369 344 372 246 369 306 z "},"q":{"ha":965,"x_min":0,"x_max":0,"o":"m 597 629 l 592 629 b 372 731 565 669 510 731 b 147 644 290 731 213 713 b 42 338 85 581 42 475 b 144 54 42 189 94 101 b 372 -25 217 -15 304 -25 b 583 51 436 -25 517 -17 l 583 -257 l 875 -257 l 875 706 l 597 706 z m 596 356 b 553 194 596 261 572 217 b 468 158 526 163 497 158 b 382 199 440 158 410 164 b 342 344 346 243 342 304 b 389 501 342 429 364 476 b 471 533 413 525 442 533 b 553 501 510 533 536 518 b 596 356 593 461 596 388 z "},"r":{"ha":678,"x_min":0,"x_max":0,"o":"m 657 721 b 610 725 640 724 626 725 b 465 694 564 725 513 719 b 369 606 438 679 400 653 l 369 706 l 90 706 l 90 0 l 382 0 l 382 261 b 433 451 382 328 385 401 b 581 504 451 469 496 504 b 657 497 603 504 633 501 z "},"s":{"ha":818,"x_min":0,"x_max":0,"o":"m 35 232 b 103 61 36 151 71 94 b 411 -26 175 -14 283 -26 b 689 35 561 -26 642 1 b 783 224 736 68 783 132 b 724 374 783 293 756 343 b 540 446 671 424 589 439 l 443 460 b 356 482 414 464 388 465 b 325 525 340 489 325 499 b 350 572 325 543 335 561 b 413 589 356 576 375 589 b 485 567 436 589 468 583 b 506 504 500 551 507 524 l 754 504 b 658 679 749 601 693 656 b 418 732 611 711 538 732 b 158 672 338 732 235 724 b 61 486 113 642 61 585 b 119 349 61 414 93 372 b 313 281 168 306 246 290 l 385 269 b 478 249 424 264 454 260 b 513 197 501 238 513 221 b 482 149 513 172 499 158 b 411 133 458 135 436 133 b 340 157 379 133 354 143 b 319 232 322 175 315 207 z "},"t":{"ha":613,"x_min":0,"x_max":0,"o":"m 7 514 l 135 514 l 135 211 b 189 38 135 161 142 85 b 397 -21 242 -15 338 -21 b 576 -1 458 -21 514 -15 l 576 194 b 511 185 556 189 532 185 b 446 204 474 185 456 194 b 426 281 426 225 426 260 l 426 514 l 576 514 l 576 706 l 426 706 l 426 914 l 135 914 l 135 706 l 7 706 z "},"u":{"ha":957,"x_min":0,"x_max":0,"o":"m 596 0 l 867 0 l 867 706 l 575 706 l 575 331 b 546 224 575 304 572 258 b 475 189 528 199 507 189 b 406 219 450 189 424 194 b 382 326 394 235 382 264 l 382 706 l 90 706 l 90 283 b 164 43 90 225 92 114 b 349 -19 218 -10 289 -19 b 589 78 422 -19 513 -4 l 596 78 z "},"v":{"ha":794,"x_min":0,"x_max":0,"o":"m 393 276 l 279 706 l -14 706 l 236 0 l 550 0 l 808 706 l 521 706 z "},"w":{"ha":1179,"x_min":0,"x_max":0,"o":"m 594 376 l 690 0 l 957 0 l 1193 706 l 913 706 l 807 322 l 714 706 l 464 706 l 369 322 l 260 706 l -18 706 l 226 0 l 499 0 z "},"x":{"ha":807,"x_min":0,"x_max":0,"o":"m 407 513 l 300 706 l 14 706 l 260 365 l 0 0 l 289 0 l 406 193 l 525 0 l 807 0 l 554 365 l 807 707 l 515 707 z "},"y":{"ha":817,"x_min":0,"x_max":0,"o":"m 86 -240 b 246 -258 154 -256 211 -258 b 463 -189 360 -258 425 -224 b 568 11 518 -137 546 -51 l 817 706 l 546 706 l 435 265 l 294 706 l 0 706 l 276 42 l 269 11 b 233 -49 265 -8 257 -32 b 164 -67 210 -67 185 -67 b 86 -53 138 -67 115 -64 z "},"z":{"ha":753,"x_min":0,"x_max":0,"o":"m 65 514 l 407 514 l 35 194 l 35 0 l 718 0 l 718 193 l 333 192 l 700 511 l 700 706 l 65 706 z "},"{":{"ha":735,"x_min":0,"x_max":0,"o":"m 183 351 b 264 322 217 351 246 339 b 310 182 306 286 310 228 b 304 8 310 142 304 57 b 371 -181 304 -46 308 -124 b 585 -251 424 -229 514 -251 l 590 -251 l 590 -119 b 532 -93 568 -118 546 -108 b 506 3 506 -65 506 -29 b 511 164 506 129 511 107 b 442 353 511 229 504 293 b 324 421 396 397 340 415 l 324 432 b 442 500 340 438 396 456 b 511 689 504 560 511 624 b 506 850 511 746 506 724 b 532 946 506 882 506 918 b 590 972 546 961 568 971 l 590 1104 l 585 1104 b 371 1033 515 1104 425 1083 b 304 844 308 976 304 899 b 310 671 304 796 310 711 b 264 531 310 625 306 567 b 183 501 246 514 217 501 z "},"|":{"ha":660,"x_min":0,"x_max":0,"o":"m 271 -311 l 389 -311 l 389 1151 l 271 1151 z "},"}":{"ha":735,"x_min":0,"x_max":0,"o":"m 551 501 b 471 531 518 501 489 514 b 425 671 429 567 425 625 b 431 844 425 711 431 796 b 364 1033 431 899 426 976 b 150 1104 310 1083 219 1104 l 144 1104 l 144 972 b 203 946 167 971 189 961 b 229 850 229 918 229 882 b 224 689 229 724 224 746 b 293 500 224 624 231 560 b 411 432 339 456 394 438 l 411 421 b 293 353 394 415 339 397 b 224 164 231 293 224 229 b 229 3 224 107 229 129 b 203 -93 229 -29 229 -65 b 144 -119 189 -108 167 -118 l 144 -251 l 150 -251 b 364 -181 221 -251 311 -229 b 431 8 426 -124 431 -46 b 425 182 431 57 425 142 b 471 322 425 228 429 286 b 551 351 489 339 518 351 z "},"~":{"ha":904,"x_min":0,"x_max":0,"o":"m 174 388 b 207 436 182 406 196 425 b 285 467 226 456 251 467 b 381 439 314 467 347 458 l 482 382 b 619 343 525 358 564 343 b 758 396 674 343 719 356 b 835 531 789 426 819 489 l 732 593 b 694 538 724 575 707 550 b 625 514 672 517 644 514 b 533 544 589 514 557 531 l 446 594 b 304 638 400 621 360 638 b 150 576 233 638 183 610 b 69 451 118 544 85 488 z "}," ":{"ha":324,"x_min":0,"x_max":0,"o":""},"¡":{"ha":519,"x_min":0,"x_max":0,"o":"m 333 367 l 186 367 l 104 0 l 104 -253 l 415 -253 l 415 0 z m 113 463 l 403 463 l 403 728 l 113 728 z "},"¢":{"ha":1000,"x_min":0,"x_max":0,"o":"m 626 278 b 594 182 626 218 606 193 b 529 158 575 163 554 158 b 463 183 503 158 482 165 b 413 372 422 222 413 301 b 454 522 413 413 418 483 b 525 551 474 543 496 551 b 592 526 550 551 574 544 b 625 432 618 500 625 460 l 893 432 b 806 632 886 528 844 593 b 575 732 768 671 692 728 l 575 883 l 465 883 l 465 732 b 214 633 367 731 274 692 b 113 357 164 585 113 499 b 215 83 113 275 129 169 b 465 -22 265 33 350 -18 l 465 -183 l 575 -183 l 575 -22 b 804 74 689 -19 764 33 b 899 278 847 117 889 188 z "},"£":{"ha":1000,"x_min":0,"x_max":0,"o":"m 790 299 b 674 238 760 261 721 238 b 588 257 643 238 617 247 b 503 272 564 264 536 272 b 418 254 463 272 429 258 l 415 265 b 465 325 447 290 463 318 b 482 424 478 350 486 389 l 601 424 l 601 521 l 467 521 b 436 582 457 550 447 565 b 406 668 421 607 406 629 b 439 749 406 710 424 735 b 508 772 456 763 479 772 b 597 731 547 772 581 756 b 615 626 618 699 615 657 l 615 624 l 885 624 l 885 628 b 788 900 885 724 878 818 b 500 990 732 950 640 990 b 228 914 443 990 318 983 b 119 685 153 857 119 769 b 161 521 119 628 138 567 l 83 521 l 83 424 l 200 424 b 215 361 214 396 215 371 b 169 260 215 336 207 299 b 110 207 154 244 114 211 l 243 0 b 367 54 281 33 318 54 b 486 22 413 54 449 39 l 517 8 b 668 -22 565 -14 615 -22 b 918 100 736 -22 811 -10 z "},"¤":{"ha":1029,"x_min":0,"x_max":0,"o":"m 17 79 l 126 -32 l 264 110 b 514 31 321 69 400 31 b 763 111 611 31 692 60 l 901 -29 l 1015 79 l 875 228 b 944 463 929 314 944 399 b 872 701 944 524 931 611 l 1007 839 l 903 956 l 763 814 b 513 894 706 856 624 894 b 263 814 392 894 307 846 l 126 958 l 14 843 l 154 703 b 81 463 108 636 81 560 b 156 221 81 358 113 283 z m 236 463 b 513 739 236 615 360 739 b 789 463 665 739 789 615 b 513 186 789 310 665 186 b 236 463 360 186 236 310 z "},"¥":{"ha":1000,"x_min":0,"x_max":0,"o":"m 500 578 l 338 972 l 11 972 l 354 365 l 354 329 l 240 329 l 240 238 l 354 238 l 354 192 l 240 192 l 240 100 l 354 100 l 354 0 l 646 0 l 646 100 l 760 100 l 760 192 l 646 192 l 646 238 l 760 238 l 760 329 l 646 329 l 646 365 l 990 972 l 664 972 z "},"¦":{"ha":660,"x_min":0,"x_max":0,"o":"m 271 244 l 271 -311 l 389 -311 l 389 244 z m 389 596 l 389 1151 l 271 1151 l 271 596 z "},"§":{"ha":863,"x_min":0,"x_max":0,"o":"m 117 32 l 117 17 b 200 -187 117 -54 149 -137 b 435 -262 274 -258 375 -262 b 672 -181 500 -262 597 -256 b 746 7 717 -136 746 -71 b 686 149 746 46 736 103 b 767 225 715 168 746 194 b 807 367 799 272 807 324 b 739 551 807 425 796 496 b 543 639 682 607 596 626 l 494 650 b 375 696 408 669 385 685 b 361 733 364 708 361 719 b 378 775 361 747 365 763 b 435 793 390 788 414 793 b 494 772 457 793 482 785 b 513 715 507 760 513 735 l 731 715 b 665 906 739 788 707 864 b 438 978 597 972 489 978 b 196 900 300 978 229 933 b 125 718 150 854 125 781 b 174 581 125 658 150 613 b 96 507 138 561 115 538 b 56 367 68 463 56 424 b 124 190 56 304 67 242 b 282 114 164 154 221 131 l 381 86 b 488 49 438 69 468 63 b 510 3 501 38 510 24 b 486 -47 510 -19 500 -37 b 435 -62 469 -60 449 -62 b 367 -39 399 -62 378 -51 b 344 32 351 -22 344 8 z m 350 332 b 292 360 329 338 307 344 b 272 410 282 369 272 385 b 283 446 272 424 276 436 b 308 468 289 454 297 463 l 519 410 b 582 381 539 404 565 397 b 599 338 596 367 599 351 b 586 297 599 318 593 306 b 558 278 576 285 561 279 z "},"¨":{"ha":751,"x_min":0,"x_max":0,"o":"m 69 807 l 308 807 l 308 986 l 69 986 z m 443 807 l 682 807 l 682 986 l 443 986 z "},"©":{"ha":1000,"x_min":0,"x_max":0,"o":"m 583 424 b 564 379 583 401 574 388 b 510 363 553 369 536 363 b 447 385 481 363 461 372 b 414 490 415 415 414 468 b 443 583 414 522 419 557 b 507 608 463 604 483 608 b 563 590 525 608 546 606 b 582 550 578 576 582 560 l 724 550 b 669 676 719 594 701 644 b 499 732 621 725 547 732 b 317 668 444 732 371 725 b 257 493 290 640 257 586 b 326 301 257 399 292 336 b 507 236 383 244 456 236 b 669 290 547 236 618 240 b 728 424 699 319 724 368 z m 14 486 b 157 143 14 414 31 269 b 500 0 283 17 428 0 b 843 142 625 0 750 49 b 986 486 938 236 986 363 b 843 831 986 610 938 736 b 500 972 740 932 610 972 b 157 831 390 972 260 932 b 14 486 63 736 14 610 z m 125 486 b 233 750 125 572 156 671 b 500 861 307 825 404 861 b 763 754 586 861 685 831 b 875 486 839 679 875 581 b 767 222 875 400 844 301 b 500 111 693 147 594 111 b 233 221 407 111 306 149 b 125 486 163 292 125 393 z "},"ª":{"ha":561,"x_min":0,"x_max":0,"o":"m 47 403 l 508 403 l 508 479 l 47 479 z m 224 842 b 238 883 222 858 228 875 b 276 896 246 892 260 896 b 311 886 292 896 303 892 b 325 851 322 878 325 865 b 306 821 325 838 318 828 b 217 804 293 814 275 813 l 175 799 b 68 754 133 793 93 778 b 36 672 42 728 36 696 b 71 583 36 639 46 608 b 179 546 104 551 144 546 b 276 563 231 546 263 556 b 329 603 300 572 317 588 l 332 603 l 342 560 l 533 560 l 533 567 b 510 585 521 569 514 578 b 504 633 503 597 504 615 l 504 828 b 461 944 504 858 500 907 b 282 1000 425 981 360 1000 b 101 944 193 1000 133 978 b 60 842 79 921 63 883 z m 325 738 b 303 663 325 718 325 683 b 256 644 292 653 275 644 b 225 656 246 644 235 646 b 215 686 219 663 215 672 b 228 714 215 696 218 706 b 275 731 240 725 260 728 b 325 749 294 733 308 738 z "},"«":{"ha":649,"x_min":0,"x_max":0,"o":"m 56 494 l 56 238 l 264 43 l 264 292 l 174 368 l 264 442 l 264 688 z m 328 496 l 328 239 l 538 43 l 538 293 l 446 369 l 538 443 l 538 689 z "},"¬":{"ha":938,"x_min":0,"x_max":0,"o":"m 74 542 l 74 424 l 742 424 l 742 231 l 860 231 l 860 542 z "},"­":{"ha":701,"x_min":0,"x_max":0,"o":"m 74 285 l 628 285 l 628 542 l 74 542 z "},"®":{"ha":1000,"x_min":0,"x_max":0,"o":"m 14 486 b 157 143 14 414 31 269 b 500 0 283 17 428 0 b 843 142 625 0 750 49 b 986 486 938 236 986 363 b 843 831 986 610 938 736 b 500 972 740 932 610 972 b 157 831 390 972 260 932 b 14 486 63 736 14 610 z m 125 486 b 233 750 125 572 156 671 b 500 861 307 825 404 861 b 763 754 586 861 685 831 b 875 486 839 679 875 581 b 767 222 875 400 844 301 b 500 111 693 147 594 111 b 233 221 407 111 306 149 b 125 486 163 292 125 393 z m 303 251 l 450 251 l 450 413 l 508 413 b 557 397 525 413 544 411 b 571 338 571 382 569 358 l 572 308 b 589 251 574 289 574 274 l 738 251 b 719 319 726 271 721 293 l 718 358 b 699 438 717 389 718 414 b 654 465 688 451 671 461 l 654 468 b 704 501 685 476 700 496 b 726 579 717 518 726 543 b 686 685 726 615 718 654 b 569 725 649 721 599 725 l 303 725 z m 450 608 l 533 608 b 572 600 547 608 563 607 b 586 564 585 590 586 576 b 571 525 586 554 585 535 b 531 517 560 517 543 517 l 450 517 z "},"¯":{"ha":703,"x_min":0,"x_max":0,"o":"m 69 819 l 633 819 l 633 953 l 69 953 z "},"°":{"ha":456,"x_min":0,"x_max":0,"o":"m 56 840 b 228 668 56 746 133 668 b 400 840 322 668 400 746 b 228 1013 400 935 322 1013 b 56 840 133 1013 56 935 z m 153 840 b 228 915 153 882 186 915 b 303 840 269 915 303 882 b 228 765 303 799 269 765 b 153 840 186 765 153 799 z "},"±":{"ha":944,"x_min":0,"x_max":0,"o":"m 74 625 l 74 507 l 411 507 l 411 257 l 529 257 l 529 507 l 867 507 l 867 625 l 529 625 l 529 931 l 411 931 l 411 625 z m 74 194 l 74 76 l 867 76 l 867 194 z "},"²":{"ha":604,"x_min":0,"x_max":0,"o":"m 540 550 l 275 550 b 322 593 276 563 283 575 b 386 622 335 599 342 601 l 404 631 b 496 690 432 643 472 667 b 542 807 531 725 542 761 b 490 942 542 853 531 901 b 292 1007 453 978 392 1007 b 103 944 235 1007 157 996 b 49 792 53 896 49 842 l 49 782 l 215 782 l 215 790 b 235 863 215 813 215 840 b 290 885 250 881 269 885 b 350 864 308 885 332 882 b 369 810 367 847 369 826 b 340 738 369 778 361 758 b 275 693 321 718 290 701 l 211 660 b 107 590 181 643 139 624 b 53 418 54 536 53 472 l 53 407 l 540 407 z "},"³":{"ha":629,"x_min":0,"x_max":0,"o":"m 49 617 l 49 608 b 107 457 49 544 72 490 b 311 394 163 401 243 394 b 490 432 361 394 438 397 b 567 576 536 463 567 517 b 532 667 567 621 549 649 b 442 711 513 688 481 706 l 442 714 b 513 747 472 717 496 729 b 547 842 540 775 547 810 b 479 969 547 893 531 938 b 308 1007 436 997 378 1007 b 115 949 254 1007 169 1001 b 58 811 81 914 58 858 l 58 803 l 221 803 l 221 811 b 236 863 221 829 226 849 b 306 890 247 878 268 890 b 363 876 322 890 347 888 b 386 826 374 869 386 853 b 360 778 386 797 369 783 b 296 767 358 776 340 767 l 254 767 l 254 654 l 297 654 b 365 640 318 654 344 654 b 390 590 383 628 390 610 b 369 538 390 571 382 550 b 310 518 358 528 340 518 b 240 543 294 518 261 519 b 219 608 229 556 219 578 l 219 617 z "},"´":{"ha":521,"x_min":0,"x_max":0,"o":"m 232 972 l 140 789 l 339 789 l 494 972 z "},"µ":{"ha":967,"x_min":0,"x_max":0,"o":"m 367 -257 l 367 107 l 375 107 b 408 19 381 78 394 39 b 482 -22 432 -15 463 -22 b 556 19 503 -22 532 -14 b 590 107 571 40 585 76 l 600 107 l 600 0 l 876 0 l 876 706 l 592 706 l 592 378 b 572 229 592 297 582 256 b 483 157 547 165 504 157 b 397 224 454 157 418 175 b 375 378 381 264 375 328 l 375 706 l 90 706 l 90 -257 z "},"μ":{"ha":967,"x_min":0,"x_max":0,"o":"m 367 -257 l 367 107 l 375 107 b 408 19 381 78 394 39 b 482 -22 432 -15 463 -22 b 556 19 503 -22 532 -14 b 590 107 571 40 585 76 l 600 107 l 600 0 l 876 0 l 876 706 l 592 706 l 592 378 b 572 229 592 297 582 256 b 483 157 547 165 504 157 b 397 224 454 157 418 175 b 375 378 381 264 375 328 l 375 706 l 90 706 l 90 -257 z "},"¶":{"ha":726,"x_min":0,"x_max":0,"o":"m 272 -257 l 397 -257 l 397 972 l 272 972 b 42 743 146 972 42 871 b 272 514 42 640 118 518 z m 508 -257 l 633 -257 l 633 972 l 508 972 z "},"·":{"ha":490,"x_min":0,"x_max":0,"o":"m 97 367 l 393 367 l 393 653 l 97 653 z "},"¸":{"ha":463,"x_min":0,"x_max":0,"o":"m 51 -325 b 211 -347 83 -337 125 -347 b 353 -315 249 -347 308 -346 b 413 -197 376 -300 413 -264 b 354 -90 413 -151 394 -115 b 211 -62 338 -81 299 -62 b 140 -65 190 -62 167 -62 l 108 -158 l 128 -158 b 222 -164 194 -158 214 -162 b 254 -200 239 -168 254 -176 b 229 -235 254 -211 250 -226 b 172 -242 214 -242 183 -242 b 85 -228 144 -242 114 -236 z "},"¹":{"ha":464,"x_min":0,"x_max":0,"o":"m 42 778 l 175 778 l 175 389 l 360 389 l 360 972 l 219 972 b 158 892 208 925 178 901 b 53 871 133 878 89 871 l 42 871 z "},"º":{"ha":585,"x_min":0,"x_max":0,"o":"m 543 768 b 479 939 543 849 515 906 b 292 1000 440 976 378 1000 b 104 939 200 1000 139 972 b 42 771 53 890 42 824 b 104 603 42 711 53 651 b 292 542 163 547 238 542 b 479 603 342 542 419 546 b 543 768 536 657 543 728 z m 64 403 l 524 403 l 524 479 l 64 479 z m 292 888 b 335 871 308 888 322 883 b 360 768 347 858 360 832 b 336 671 360 718 351 689 b 293 651 324 656 311 651 b 250 668 276 651 263 656 b 224 768 242 678 224 701 b 249 871 224 840 240 863 b 292 888 258 881 272 888 z "},"»":{"ha":649,"x_min":0,"x_max":0,"o":"m 593 494 l 383 689 l 383 440 l 475 364 l 383 289 l 385 43 l 593 238 z m 321 493 l 111 688 l 111 439 l 203 363 l 111 288 l 111 43 l 321 236 z "},"¼":{"ha":1221,"x_min":0,"x_max":0,"o":"m 49 778 l 182 778 l 182 389 l 367 389 l 367 972 l 226 972 b 165 892 215 925 185 901 b 60 871 140 878 96 871 l 49 871 z m 114 0 l 264 0 l 1097 972 l 947 972 z m 908 128 l 908 0 l 1083 0 l 1083 128 l 1158 128 l 1158 260 l 1083 260 l 1083 583 l 918 583 l 636 263 l 636 128 z m 769 260 l 918 424 l 918 260 z "},"½":{"ha":1322,"x_min":0,"x_max":0,"o":"m 49 778 l 182 778 l 182 389 l 367 389 l 367 972 l 226 972 b 165 892 215 925 185 901 b 60 871 140 878 96 871 l 49 871 z m 1258 143 l 993 143 b 1040 186 994 156 1001 168 b 1104 215 1051 192 1060 194 l 1122 224 b 1214 283 1150 236 1190 260 b 1260 400 1249 318 1260 354 b 1208 535 1260 446 1249 494 b 1010 600 1171 571 1110 600 b 821 538 953 600 875 589 b 767 385 771 489 767 435 l 767 375 l 933 375 l 933 383 b 953 456 933 406 933 433 b 1011 478 964 468 982 478 b 1068 457 1033 478 1054 471 b 1088 403 1085 440 1088 419 b 1058 331 1088 371 1079 351 b 993 286 1039 311 1008 294 l 929 253 b 825 183 899 236 857 217 b 771 11 772 129 771 65 l 771 0 l 1258 0 z m 114 0 l 264 0 l 1097 972 l 947 972 z "},"¾":{"ha":1335,"x_min":0,"x_max":0,"o":"m 228 0 l 378 0 l 1211 972 l 1061 972 z m 1022 128 l 1022 0 l 1197 0 l 1197 128 l 1272 128 l 1272 260 l 1197 260 l 1197 583 l 1032 583 l 750 263 l 750 128 z m 883 260 l 1032 424 l 1032 260 z m 49 617 l 49 608 b 107 457 49 544 72 490 b 311 394 163 401 243 394 b 490 432 361 394 438 397 b 567 576 536 463 567 517 b 532 667 567 621 549 649 b 442 711 513 688 481 706 l 442 714 b 513 747 472 717 496 729 b 547 842 540 775 547 810 b 479 969 547 893 531 938 b 308 1007 436 997 378 1007 b 115 949 254 1007 169 1001 b 58 811 81 914 58 858 l 58 803 l 221 803 l 221 811 b 236 863 221 829 226 849 b 306 890 247 878 268 890 b 363 876 322 890 347 888 b 386 826 374 869 386 853 b 360 778 386 797 369 783 b 296 767 358 776 340 767 l 254 767 l 254 654 l 297 654 b 365 640 318 654 344 654 b 390 590 383 628 390 610 b 369 538 390 571 382 550 b 310 518 358 528 340 518 b 240 543 294 518 261 519 b 219 608 229 556 219 578 l 219 617 z "},"¿":{"ha":871,"x_min":0,"x_max":0,"o":"m 606 735 l 310 735 l 310 475 l 606 475 z m 535 78 l 535 74 b 508 -28 535 53 533 1 b 436 -57 488 -51 460 -57 b 369 -35 417 -57 389 -54 b 349 22 358 -25 349 -7 b 422 131 349 85 397 113 l 460 158 b 546 257 493 183 525 208 b 564 371 564 299 564 339 l 564 394 l 336 394 l 336 386 b 299 297 336 343 313 313 b 214 240 276 275 249 260 b 121 175 171 217 142 196 b 56 13 94 149 56 97 b 158 -189 56 -96 114 -158 b 431 -250 240 -246 367 -250 b 726 -160 497 -250 639 -243 b 815 65 768 -121 815 -44 l 815 78 z "},"À":{"ha":986,"x_min":0,"x_max":0,"o":"m 340 138 l 642 138 l 686 0 l 1000 0 l 640 972 l 342 972 l -18 0 l 296 0 z m 400 338 l 490 629 l 582 338 z m 511 1261 l 235 1261 l 390 1064 l 603 1064 z "},"Á":{"ha":986,"x_min":0,"x_max":0,"o":"m 340 138 l 642 138 l 686 0 l 1000 0 l 640 972 l 342 972 l -18 0 l 296 0 z m 400 338 l 490 629 l 582 338 z m 475 1261 l 383 1064 l 596 1064 l 751 1261 z "},"Â":{"ha":986,"x_min":0,"x_max":0,"o":"m 340 138 l 642 138 l 686 0 l 1000 0 l 640 972 l 342 972 l -18 0 l 296 0 z m 400 338 l 490 629 l 582 338 z m 489 1179 l 596 1064 l 818 1064 l 644 1247 l 333 1247 l 160 1064 l 382 1064 z "},"Ã":{"ha":986,"x_min":0,"x_max":0,"o":"m 340 138 l 642 138 l 686 0 l 1000 0 l 640 972 l 342 972 l -18 0 l 296 0 z m 400 338 l 490 629 l 582 338 z m 653 1251 b 636 1207 651 1239 646 1218 b 599 1193 628 1197 613 1193 b 514 1221 574 1193 547 1206 l 478 1238 b 375 1264 447 1251 421 1264 b 251 1208 324 1264 286 1249 b 194 1079 221 1172 201 1121 l 343 1079 b 360 1119 344 1094 351 1110 b 400 1135 372 1132 388 1135 b 478 1113 429 1135 453 1125 l 519 1093 b 629 1064 550 1079 583 1064 b 735 1106 668 1064 703 1072 b 800 1251 768 1139 793 1199 z "},"Ä":{"ha":986,"x_min":0,"x_max":0,"o":"m 340 138 l 642 138 l 686 0 l 1000 0 l 640 972 l 342 972 l -18 0 l 296 0 z m 400 338 l 490 629 l 582 338 z m 181 1082 l 419 1082 l 419 1261 l 181 1261 z m 554 1082 l 793 1082 l 793 1261 l 554 1261 z "},"Å":{"ha":986,"x_min":0,"x_max":0,"o":"m 340 138 l 642 138 l 686 0 l 1000 0 l 640 972 l 342 972 l -18 0 l 296 0 z m 400 338 l 490 629 l 582 338 z m 339 1211 b 493 1057 339 1126 404 1057 b 647 1211 582 1057 647 1126 b 493 1367 647 1297 581 1367 b 339 1211 406 1367 339 1297 z m 429 1211 b 493 1276 429 1253 465 1276 b 557 1211 521 1276 557 1253 b 493 1147 557 1175 529 1147 b 429 1211 457 1147 429 1175 z "},"Æ":{"ha":1576,"x_min":0,"x_max":0,"o":"m 368 138 l 701 138 l 701 0 l 1514 0 l 1514 257 l 999 257 l 999 376 l 1431 376 l 1431 606 l 999 606 l 999 715 l 1503 715 l 1503 972 l 557 972 l -35 0 l 285 0 z m 479 338 l 667 660 l 701 660 l 701 338 z "},"Ç":{"ha":1054,"x_min":0,"x_max":0,"o":"m 731 358 b 683 269 728 338 718 300 b 567 232 647 238 608 232 b 432 288 525 232 475 236 b 378 485 386 342 378 422 b 440 690 378 544 385 635 b 575 739 481 731 529 739 b 679 708 600 739 646 736 b 725 621 701 689 719 657 l 1018 621 b 906 879 1003 778 918 867 b 565 997 835 951 725 997 b 200 869 450 997 311 978 b 56 476 115 788 56 660 b 196 83 56 272 128 147 b 546 -28 304 -18 446 -28 b 906 85 635 -28 797 -22 b 1026 358 967 144 1017 246 z m 392 -340 b 551 -362 424 -353 465 -362 b 693 -331 589 -362 649 -361 b 753 -212 717 -315 753 -279 b 694 -106 753 -167 735 -131 b 551 -78 678 -96 639 -78 b 481 -81 531 -78 507 -78 l 449 -174 l 468 -174 b 563 -179 535 -174 554 -178 b 594 -215 579 -183 594 -192 b 569 -250 594 -226 590 -242 b 513 -257 554 -257 524 -257 b 425 -243 485 -257 454 -251 z "},"È":{"ha":999,"x_min":0,"x_max":0,"o":"m 421 606 l 421 715 l 925 715 l 925 972 l 118 972 l 118 0 l 936 0 l 936 257 l 421 257 l 421 376 l 853 376 l 853 606 z m 567 1261 l 290 1261 l 446 1064 l 658 1064 z "},"É":{"ha":999,"x_min":0,"x_max":0,"o":"m 421 606 l 421 715 l 925 715 l 925 972 l 118 972 l 118 0 l 936 0 l 936 257 l 421 257 l 421 376 l 853 376 l 853 606 z m 482 1261 l 390 1064 l 603 1064 l 758 1261 z "},"Ê":{"ha":999,"x_min":0,"x_max":0,"o":"m 421 606 l 421 715 l 925 715 l 925 972 l 118 972 l 118 0 l 936 0 l 936 257 l 421 257 l 421 376 l 853 376 l 853 606 z m 524 1179 l 631 1064 l 853 1064 l 679 1247 l 368 1247 l 194 1064 l 417 1064 z "},"Ë":{"ha":999,"x_min":0,"x_max":0,"o":"m 421 606 l 421 715 l 925 715 l 925 972 l 118 972 l 118 0 l 936 0 l 936 257 l 421 257 l 421 376 l 853 376 l 853 606 z m 208 1082 l 447 1082 l 447 1261 l 208 1261 z m 582 1082 l 821 1082 l 821 1261 l 582 1261 z "},"Ì":{"ha":539,"x_min":0,"x_max":0,"o":"m 118 972 l 118 0 l 421 0 l 421 972 z m 326 1261 l 50 1261 l 206 1064 l 418 1064 z "},"Í":{"ha":539,"x_min":0,"x_max":0,"o":"m 118 972 l 118 0 l 421 0 l 421 972 z m 233 1261 l 142 1064 l 354 1064 l 510 1261 z "},"Î":{"ha":539,"x_min":0,"x_max":0,"o":"m 118 972 l 118 0 l 421 0 l 421 972 z m 263 1179 l 369 1064 l 592 1064 l 418 1247 l 107 1247 l -67 1064 l 156 1064 z "},"Ï":{"ha":539,"x_min":0,"x_max":0,"o":"m 118 972 l 118 0 l 421 0 l 421 972 z m -43 1082 l 196 1082 l 196 1261 l -43 1261 z m 331 1082 l 569 1082 l 569 1261 l 331 1261 z "},"Ð":{"ha":1143,"x_min":0,"x_max":0,"o":"m 150 972 l 150 588 l 14 588 l 14 450 l 150 450 l 150 0 l 617 0 b 953 101 721 0 846 7 b 1094 474 1013 154 1094 264 b 954 864 1094 625 1049 774 b 617 972 853 960 729 972 z m 453 717 l 560 717 b 719 668 606 717 674 714 b 772 486 771 617 772 522 b 714 307 772 431 764 353 b 561 261 668 264 606 261 l 453 261 l 453 443 l 639 443 l 639 588 l 453 588 z "},"Ñ":{"ha":1139,"x_min":0,"x_max":0,"o":"m 421 539 l 718 0 l 1021 0 l 1021 972 l 718 972 l 718 507 l 725 433 l 718 433 l 421 972 l 118 972 l 118 0 l 421 0 l 421 465 l 414 539 z m 725 1251 b 708 1207 724 1239 718 1218 b 671 1193 700 1197 685 1193 b 586 1221 646 1193 619 1206 l 550 1238 b 447 1264 519 1251 493 1264 b 324 1208 396 1264 358 1249 b 267 1079 293 1172 274 1121 l 415 1079 b 432 1119 417 1094 424 1110 b 472 1135 444 1132 460 1135 b 550 1113 501 1135 525 1125 l 592 1093 b 701 1064 622 1079 656 1064 b 807 1106 740 1064 775 1072 b 872 1251 840 1139 865 1199 z "},"Ò":{"ha":1136,"x_min":0,"x_max":0,"o":"m 56 483 b 181 115 56 276 136 163 b 572 -26 294 -7 444 -26 b 954 113 699 -26 842 -8 b 1081 494 1024 188 1081 307 b 951 861 1081 601 1061 749 b 561 999 839 978 686 999 b 193 863 446 999 308 983 b 56 483 121 786 56 663 z m 378 486 b 442 692 378 539 386 633 b 574 743 479 731 525 743 b 699 692 621 743 663 729 b 758 486 749 639 758 557 b 699 281 758 415 743 329 b 568 229 663 240 615 229 b 439 281 519 229 475 243 b 378 486 385 339 378 433 z m 622 1261 l 346 1261 l 501 1064 l 714 1064 z "},"Ó":{"ha":1136,"x_min":0,"x_max":0,"o":"m 56 483 b 181 115 56 276 136 163 b 572 -26 294 -7 444 -26 b 954 113 699 -26 842 -8 b 1081 494 1024 188 1081 307 b 951 861 1081 601 1061 749 b 561 999 839 978 686 999 b 193 863 446 999 308 983 b 56 483 121 786 56 663 z m 378 486 b 442 692 378 539 386 633 b 574 743 479 731 525 743 b 699 692 621 743 663 729 b 758 486 749 639 758 557 b 699 281 758 415 743 329 b 568 229 663 240 615 229 b 439 281 519 229 475 243 b 378 486 385 339 378 433 z m 565 1261 l 474 1064 l 686 1064 l 842 1261 z "},"Ô":{"ha":1136,"x_min":0,"x_max":0,"o":"m 56 483 b 181 115 56 276 136 163 b 572 -26 294 -7 444 -26 b 954 113 699 -26 842 -8 b 1081 494 1024 188 1081 307 b 951 861 1081 601 1061 749 b 561 999 839 978 686 999 b 193 863 446 999 308 983 b 56 483 121 786 56 663 z m 378 486 b 442 692 378 539 386 633 b 574 743 479 731 525 743 b 699 692 621 743 663 729 b 758 486 749 639 758 557 b 699 281 758 415 743 329 b 568 229 663 240 615 229 b 439 281 519 229 475 243 b 378 486 385 339 378 433 z m 568 1179 l 675 1064 l 897 1064 l 724 1247 l 413 1247 l 239 1064 l 461 1064 z "},"Õ":{"ha":1136,"x_min":0,"x_max":0,"o":"m 56 483 b 181 115 56 276 136 163 b 572 -26 294 -7 444 -26 b 954 113 699 -26 842 -8 b 1081 494 1024 188 1081 307 b 951 861 1081 601 1061 749 b 561 999 839 978 686 999 b 193 863 446 999 308 983 b 56 483 121 786 56 663 z m 378 486 b 442 692 378 539 386 633 b 574 743 479 731 525 743 b 699 692 621 743 663 729 b 758 486 749 639 758 557 b 699 281 758 415 743 329 b 568 229 663 240 615 229 b 439 281 519 229 475 243 b 378 486 385 339 378 433 z m 750 1251 b 733 1207 749 1239 743 1218 b 696 1193 725 1197 710 1193 b 611 1221 671 1193 644 1206 l 575 1238 b 472 1264 544 1251 518 1264 b 349 1208 421 1264 383 1249 b 292 1079 318 1172 299 1121 l 440 1079 b 457 1119 442 1094 449 1110 b 497 1135 469 1132 485 1135 b 575 1113 526 1135 550 1125 l 617 1093 b 726 1064 647 1079 681 1064 b 832 1106 765 1064 800 1072 b 897 1251 865 1139 890 1199 z "},"Ö":{"ha":1136,"x_min":0,"x_max":0,"o":"m 56 483 b 181 115 56 276 136 163 b 572 -26 294 -7 444 -26 b 954 113 699 -26 842 -8 b 1081 494 1024 188 1081 307 b 951 861 1081 601 1061 749 b 561 999 839 978 686 999 b 193 863 446 999 308 983 b 56 483 121 786 56 663 z m 378 486 b 442 692 378 539 386 633 b 574 743 479 731 525 743 b 699 692 621 743 663 729 b 758 486 749 639 758 557 b 699 281 758 415 743 329 b 568 229 663 240 615 229 b 439 281 519 229 475 243 b 378 486 385 339 378 433 z m 264 1082 l 503 1082 l 503 1261 l 264 1261 z m 638 1082 l 876 1082 l 876 1261 l 638 1261 z "},"×":{"ha":922,"x_min":0,"x_max":0,"o":"m 125 226 l 208 143 l 461 396 l 714 142 l 797 225 l 544 479 l 797 731 l 714 815 l 461 563 l 208 815 l 125 731 l 378 479 z "},"Ø":{"ha":1144,"x_min":0,"x_max":0,"o":"m 56 24 l 143 -68 l 258 56 b 571 -26 361 -10 449 -26 b 961 113 699 -26 846 -6 b 1088 481 1072 226 1088 365 b 983 833 1088 590 1071 714 l 1089 947 l 1001 1039 l 889 918 b 579 999 793 978 707 999 b 200 865 443 999 307 972 b 63 486 83 750 63 596 b 165 142 63 299 119 199 z m 396 390 b 385 486 389 424 385 451 b 444 697 385 597 411 661 b 576 749 481 736 522 749 b 694 707 628 749 660 738 z m 753 590 b 765 489 763 557 765 526 b 704 275 765 422 754 328 b 572 224 664 232 613 224 b 451 269 524 224 486 235 z "},"Ù":{"ha":1136,"x_min":0,"x_max":0,"o":"m 1018 972 l 714 972 l 714 378 b 676 256 714 339 708 289 b 568 218 643 221 597 218 b 460 256 539 218 493 221 b 422 378 428 289 422 339 l 422 972 l 118 972 l 118 365 b 213 88 118 267 129 172 b 569 -26 300 -1 429 -26 b 924 88 711 -26 836 -1 b 1018 364 1011 176 1018 271 z m 581 1261 l 304 1261 l 460 1064 l 672 1064 z "},"Ú":{"ha":1136,"x_min":0,"x_max":0,"o":"m 1018 972 l 714 972 l 714 378 b 676 256 714 339 708 289 b 568 218 643 221 597 218 b 460 256 539 218 493 221 b 422 378 428 289 422 339 l 422 972 l 118 972 l 118 365 b 213 88 118 267 129 172 b 569 -26 300 -1 429 -26 b 924 88 711 -26 836 -1 b 1018 364 1011 176 1018 271 z m 558 1261 l 467 1064 l 679 1064 l 835 1261 z "},"Û":{"ha":1136,"x_min":0,"x_max":0,"o":"m 1018 972 l 714 972 l 714 378 b 676 256 714 339 708 289 b 568 218 643 221 597 218 b 460 256 539 218 493 221 b 422 378 428 289 422 339 l 422 972 l 118 972 l 118 365 b 213 88 118 267 129 172 b 569 -26 300 -1 429 -26 b 924 88 711 -26 836 -1 b 1018 364 1011 176 1018 271 z m 568 1179 l 675 1064 l 897 1064 l 724 1247 l 413 1247 l 239 1064 l 461 1064 z "},"Ü":{"ha":1136,"x_min":0,"x_max":0,"o":"m 1018 972 l 714 972 l 714 378 b 676 256 714 339 708 289 b 568 218 643 221 597 218 b 460 256 539 218 493 221 b 422 378 428 289 422 339 l 422 972 l 118 972 l 118 365 b 213 88 118 267 129 172 b 569 -26 300 -1 429 -26 b 924 88 711 -26 836 -1 b 1018 364 1011 176 1018 271 z m 261 1082 l 500 1082 l 500 1261 l 261 1261 z m 635 1082 l 874 1082 l 874 1261 l 635 1261 z "},"Ý":{"ha":951,"x_min":0,"x_max":0,"o":"m 478 578 l 313 972 l -14 972 l 324 340 l 324 0 l 626 0 l 626 340 l 965 972 l 639 972 z m 440 1261 l 349 1064 l 561 1064 l 717 1261 z "},"Þ":{"ha":1028,"x_min":0,"x_max":0,"o":"m 118 972 l 118 0 l 421 0 l 421 154 l 613 154 b 901 242 688 154 810 153 b 993 482 954 293 993 376 b 907 719 993 586 960 667 b 613 817 822 806 697 817 l 410 817 l 410 972 z m 421 583 l 565 583 b 664 557 592 583 638 582 b 689 488 679 543 689 518 b 663 413 689 460 679 429 b 565 388 638 389 594 388 l 421 388 z "},"ß":{"ha":917,"x_min":0,"x_max":0,"o":"m 90 0 l 375 0 l 375 672 b 394 757 375 697 376 731 b 460 789 411 781 433 789 b 511 769 486 789 501 779 b 531 707 529 750 531 721 b 507 639 531 685 526 658 b 444 617 488 619 464 617 l 436 617 l 436 444 l 449 444 b 557 422 488 444 528 443 b 601 315 578 407 601 375 b 571 226 601 276 590 244 b 488 197 550 206 517 197 b 436 206 467 197 451 200 l 436 4 b 558 -10 478 -7 513 -10 b 797 74 622 -10 725 0 b 875 288 831 107 875 174 b 810 482 875 383 844 444 b 675 553 781 513 733 542 l 675 560 b 786 739 783 603 786 713 b 694 929 786 844 731 903 b 467 990 624 982 529 990 b 179 893 388 990 263 978 b 90 621 94 807 90 694 z "},"à":{"ha":881,"x_min":0,"x_max":0,"o":"m 346 465 b 368 532 344 492 354 518 b 433 554 381 544 401 554 b 494 535 442 554 475 553 b 513 489 503 528 513 513 b 492 436 513 463 501 446 b 363 406 472 418 442 415 l 279 396 b 89 319 222 389 144 375 b 36 182 50 281 36 235 b 96 29 36 103 68 56 b 274 -25 147 -18 218 -25 b 432 8 322 -25 381 -18 b 518 76 465 25 496 50 l 521 76 l 539 0 l 853 0 l 853 10 b 814 42 836 15 821 28 b 804 122 807 54 804 72 l 804 440 b 732 642 804 497 797 579 b 440 724 651 721 508 724 b 143 629 347 724 222 711 b 72 465 106 590 78 533 z m 513 301 b 475 179 513 264 510 215 b 396 147 453 156 428 147 b 347 165 381 147 363 150 b 329 211 338 175 329 190 b 346 256 329 228 333 242 b 429 289 369 281 406 285 b 513 319 458 293 482 297 z m 490 972 l 228 972 l 383 789 l 582 789 z "},"á":{"ha":881,"x_min":0,"x_max":0,"o":"m 346 465 b 368 532 344 492 354 518 b 433 554 381 544 401 554 b 494 535 442 554 475 553 b 513 489 503 528 513 513 b 492 436 513 463 501 446 b 363 406 472 418 442 415 l 279 396 b 89 319 222 389 144 375 b 36 182 50 281 36 235 b 96 29 36 103 68 56 b 274 -25 147 -18 218 -25 b 432 8 322 -25 381 -18 b 518 76 465 25 496 50 l 521 76 l 539 0 l 853 0 l 853 10 b 814 42 836 15 821 28 b 804 122 807 54 804 72 l 804 440 b 732 642 804 497 797 579 b 440 724 651 721 508 724 b 143 629 347 724 222 711 b 72 465 106 590 78 533 z m 513 301 b 475 179 513 264 510 215 b 396 147 453 156 428 147 b 347 165 381 147 363 150 b 329 211 338 175 329 190 b 346 256 329 228 333 242 b 429 289 369 281 406 285 b 513 319 458 293 482 297 z m 426 972 l 335 789 l 533 789 l 689 972 z "},"â":{"ha":881,"x_min":0,"x_max":0,"o":"m 346 465 b 368 532 344 492 354 518 b 433 554 381 544 401 554 b 494 535 442 554 475 553 b 513 489 503 528 513 513 b 492 436 513 463 501 446 b 363 406 472 418 442 415 l 279 396 b 89 319 222 389 144 375 b 36 182 50 281 36 235 b 96 29 36 103 68 56 b 274 -25 147 -18 218 -25 b 432 8 322 -25 381 -18 b 518 76 465 25 496 50 l 521 76 l 539 0 l 853 0 l 853 10 b 814 42 836 15 821 28 b 804 122 807 54 804 72 l 804 440 b 732 642 804 497 797 579 b 440 724 651 721 508 724 b 143 629 347 724 222 711 b 72 465 106 590 78 533 z m 513 301 b 475 179 513 264 510 215 b 396 147 453 156 428 147 b 347 165 381 147 363 150 b 329 211 338 175 329 190 b 346 256 329 228 333 242 b 429 289 369 281 406 285 b 513 319 458 293 482 297 z m 468 911 l 575 789 l 797 789 l 624 972 l 313 972 l 139 789 l 361 789 z "},"ã":{"ha":881,"x_min":0,"x_max":0,"o":"m 346 465 b 368 532 344 492 354 518 b 433 554 381 544 401 554 b 494 535 442 554 475 553 b 513 489 503 528 513 513 b 492 436 513 463 501 446 b 363 406 472 418 442 415 l 279 396 b 89 319 222 389 144 375 b 36 182 50 281 36 235 b 96 29 36 103 68 56 b 274 -25 147 -18 218 -25 b 432 8 322 -25 381 -18 b 518 76 465 25 496 50 l 521 76 l 539 0 l 853 0 l 853 10 b 814 42 836 15 821 28 b 804 122 807 54 804 72 l 804 440 b 732 642 804 497 797 579 b 440 724 651 721 508 724 b 143 629 347 724 222 711 b 72 465 106 590 78 533 z m 513 301 b 475 179 513 264 510 215 b 396 147 453 156 428 147 b 347 165 381 147 363 150 b 329 211 338 175 329 190 b 346 256 329 228 333 242 b 429 289 369 281 406 285 b 513 319 458 293 482 297 z m 604 976 b 588 932 603 964 597 943 b 550 918 579 922 564 918 b 465 946 525 918 499 931 l 429 963 b 324 989 400 976 368 989 b 203 933 274 989 236 974 b 146 804 172 897 153 846 l 294 804 b 311 844 296 819 303 835 b 351 860 324 857 339 860 b 429 838 381 860 404 850 l 471 818 b 582 789 501 804 529 789 b 688 831 624 789 657 799 b 751 976 719 864 744 924 z "},"ä":{"ha":881,"x_min":0,"x_max":0,"o":"m 346 465 b 368 532 344 492 354 518 b 433 554 381 544 401 554 b 494 535 442 554 475 553 b 513 489 503 528 513 513 b 492 436 513 463 501 446 b 363 406 472 418 442 415 l 279 396 b 89 319 222 389 144 375 b 36 182 50 281 36 235 b 96 29 36 103 68 56 b 274 -25 147 -18 218 -25 b 432 8 322 -25 381 -18 b 518 76 465 25 496 50 l 521 76 l 539 0 l 853 0 l 853 10 b 814 42 836 15 821 28 b 804 122 807 54 804 72 l 804 440 b 732 642 804 497 797 579 b 440 724 651 721 508 724 b 143 629 347 724 222 711 b 72 465 106 590 78 533 z m 513 301 b 475 179 513 264 510 215 b 396 147 453 156 428 147 b 347 165 381 147 363 150 b 329 211 338 175 329 190 b 346 256 329 228 333 242 b 429 289 369 281 406 285 b 513 319 458 293 482 297 z m 133 807 l 372 807 l 372 986 l 133 986 z m 507 807 l 746 807 l 746 986 l 507 986 z "},"å":{"ha":881,"x_min":0,"x_max":0,"o":"m 346 465 b 368 532 344 492 354 518 b 433 554 381 544 401 554 b 494 535 442 554 475 553 b 513 489 503 528 513 513 b 492 436 513 463 501 446 b 363 406 472 418 442 415 l 279 396 b 89 319 222 389 144 375 b 36 182 50 281 36 235 b 96 29 36 103 68 56 b 274 -25 147 -18 218 -25 b 432 8 322 -25 381 -18 b 518 76 465 25 496 50 l 521 76 l 539 0 l 853 0 l 853 10 b 814 42 836 15 821 28 b 804 122 807 54 804 72 l 804 440 b 732 642 804 497 797 579 b 440 724 651 721 508 724 b 143 629 347 724 222 711 b 72 465 106 590 78 533 z m 513 301 b 475 179 513 264 510 215 b 396 147 453 156 428 147 b 347 165 381 147 363 150 b 329 211 338 175 329 190 b 346 256 329 228 333 242 b 429 289 369 281 406 285 b 513 319 458 293 482 297 z m 306 931 b 453 783 306 849 371 783 b 600 931 535 783 600 849 b 453 1078 600 1013 535 1078 b 306 931 371 1078 306 1013 z m 392 931 b 453 992 392 964 419 992 b 514 931 486 992 514 964 b 453 869 514 897 486 869 b 392 931 419 869 392 897 z "},"æ":{"ha":1364,"x_min":0,"x_max":0,"o":"m 1025 204 b 993 163 1021 186 1011 174 b 926 147 974 151 950 147 b 840 181 906 147 868 151 b 804 294 814 210 804 260 l 1322 294 l 1322 311 b 1211 632 1322 390 1313 533 b 928 731 1154 688 1061 731 b 669 631 772 731 706 672 b 410 724 617 689 549 724 b 149 638 324 724 224 713 b 72 465 119 608 78 553 l 335 465 b 360 532 336 488 344 517 b 426 554 368 540 388 554 b 489 538 444 554 472 550 b 513 486 503 526 513 506 b 488 435 513 464 503 446 b 389 408 478 428 454 415 l 279 396 b 104 336 228 390 156 379 b 36 183 69 307 36 256 b 103 31 36 117 64 63 b 332 -25 140 0 207 -25 b 526 8 436 -25 492 -10 b 636 111 571 31 610 69 b 739 11 653 81 682 39 b 940 -25 783 -11 846 -25 b 1172 22 1001 -25 1094 -22 b 1311 204 1226 53 1286 107 z m 507 308 b 472 169 507 267 500 201 b 400 139 450 144 422 139 b 340 156 382 139 358 140 b 319 203 332 163 319 178 b 347 260 319 236 338 253 b 432 281 368 274 397 275 b 507 308 461 285 481 290 z m 806 433 b 839 528 807 468 819 507 b 918 557 863 554 896 557 b 990 529 942 557 969 551 b 1022 433 1010 508 1022 467 z "},"ç":{"ha":869,"x_min":0,"x_max":0,"o":"m 556 278 b 522 182 556 249 544 206 b 456 158 501 161 476 158 b 385 188 429 158 406 164 b 342 360 343 232 342 321 b 383 522 342 415 347 483 b 454 551 403 543 425 551 b 521 526 479 551 503 544 b 554 432 547 500 554 460 l 822 432 b 736 635 817 521 779 590 b 451 735 686 685 600 735 b 156 629 356 735 243 714 b 42 336 94 568 42 468 b 143 68 42 199 94 114 b 432 -25 229 -14 342 -25 b 733 75 522 -25 642 -17 b 828 278 776 118 818 186 z m 264 -325 b 424 -347 296 -337 338 -347 b 565 -315 461 -347 521 -346 b 625 -197 589 -300 625 -264 b 567 -90 625 -151 607 -115 b 424 -62 550 -81 511 -62 b 353 -65 403 -62 379 -62 l 321 -158 l 340 -158 b 435 -164 407 -158 426 -162 b 467 -200 451 -168 467 -176 b 442 -235 467 -211 463 -226 b 385 -242 426 -242 396 -242 b 297 -228 357 -242 326 -236 z "},"è":{"ha":900,"x_min":0,"x_max":0,"o":"m 561 204 b 525 161 557 190 547 174 b 456 147 506 150 476 147 b 367 188 413 147 385 164 b 340 294 349 213 339 257 l 858 294 l 858 311 b 761 626 858 394 857 528 b 453 731 707 682 614 731 b 147 617 344 731 233 707 b 42 332 81 547 42 444 b 138 72 42 214 83 126 b 450 -25 225 -15 340 -25 b 707 28 524 -25 618 -24 b 847 204 790 76 828 144 z m 342 433 b 376 526 343 463 354 503 b 456 557 397 550 426 557 b 528 528 479 557 507 551 b 558 433 547 507 558 464 z m 463 972 l 200 972 l 356 789 l 554 789 z "},"é":{"ha":900,"x_min":0,"x_max":0,"o":"m 561 204 b 525 161 557 190 547 174 b 456 147 506 150 476 147 b 367 188 413 147 385 164 b 340 294 349 213 339 257 l 858 294 l 858 311 b 761 626 858 394 857 528 b 453 731 707 682 614 731 b 147 617 344 731 233 707 b 42 332 81 547 42 444 b 138 72 42 214 83 126 b 450 -25 225 -15 340 -25 b 707 28 524 -25 618 -24 b 847 204 790 76 828 144 z m 342 433 b 376 526 343 463 354 503 b 456 557 397 550 426 557 b 528 528 479 557 507 551 b 558 433 547 507 558 464 z m 447 972 l 356 789 l 554 789 l 710 972 z "},"ê":{"ha":900,"x_min":0,"x_max":0,"o":"m 561 204 b 525 161 557 190 547 174 b 456 147 506 150 476 147 b 367 188 413 147 385 164 b 340 294 349 213 339 257 l 858 294 l 858 311 b 761 626 858 394 857 528 b 453 731 707 682 614 731 b 147 617 344 731 233 707 b 42 332 81 547 42 444 b 138 72 42 214 83 126 b 450 -25 225 -15 340 -25 b 707 28 524 -25 618 -24 b 847 204 790 76 828 144 z m 342 433 b 376 526 343 463 354 503 b 456 557 397 550 426 557 b 528 528 479 557 507 551 b 558 433 547 507 558 464 z m 468 911 l 575 789 l 797 789 l 624 972 l 313 972 l 139 789 l 361 789 z "},"ë":{"ha":900,"x_min":0,"x_max":0,"o":"m 561 204 b 525 161 557 190 547 174 b 456 147 506 150 476 147 b 367 188 413 147 385 164 b 340 294 349 213 339 257 l 858 294 l 858 311 b 761 626 858 394 857 528 b 453 731 707 682 614 731 b 147 617 344 731 233 707 b 42 332 81 547 42 444 b 138 72 42 214 83 126 b 450 -25 225 -15 340 -25 b 707 28 524 -25 618 -24 b 847 204 790 76 828 144 z m 342 433 b 376 526 343 463 354 503 b 456 557 397 550 426 557 b 528 528 479 557 507 551 b 558 433 547 507 558 464 z m 143 807 l 382 807 l 382 986 l 143 986 z m 517 807 l 756 807 l 756 986 l 517 986 z "},"ì":{"ha":472,"x_min":0,"x_max":0,"o":"m 90 706 l 90 0 l 382 0 l 382 706 z m 267 972 l 4 972 l 160 789 l 358 789 z "},"í":{"ha":472,"x_min":0,"x_max":0,"o":"m 90 706 l 90 0 l 382 0 l 382 706 z m 197 972 l 106 789 l 304 789 l 460 972 z "},"î":{"ha":472,"x_min":0,"x_max":0,"o":"m 90 706 l 90 0 l 382 0 l 382 706 z m 232 911 l 339 789 l 561 789 l 388 972 l 76 972 l -97 789 l 125 789 z "},"ï":{"ha":472,"x_min":0,"x_max":0,"o":"m 90 706 l 90 0 l 382 0 l 382 706 z m -75 807 l 164 807 l 164 986 l -75 986 z m 299 807 l 538 807 l 538 986 l 299 986 z "},"ð":{"ha":929,"x_min":0,"x_max":0,"o":"m 454 547 b 521 519 483 547 503 538 b 567 353 551 488 567 436 b 521 186 567 269 551 218 b 454 158 503 168 483 158 b 388 186 425 158 406 168 b 342 353 357 218 342 269 b 388 519 342 436 357 488 b 454 547 406 538 425 547 z m 214 999 b 358 961 265 992 314 978 l 179 857 l 249 774 l 475 906 b 618 782 538 874 581 832 b 700 586 661 725 689 664 l 690 586 b 413 724 658 644 586 724 b 139 624 333 724 224 708 b 42 363 88 571 42 489 b 144 82 42 235 86 142 b 440 -24 235 -10 349 -24 b 768 99 538 -24 667 -10 b 888 474 875 214 888 379 b 817 792 888 554 878 679 b 621 997 772 872 700 946 l 719 1056 l 646 1140 l 517 1058 b 235 1132 431 1093 338 1118 z "},"ñ":{"ha":958,"x_min":0,"x_max":0,"o":"m 369 706 l 90 706 l 90 0 l 382 0 l 382 375 b 410 478 382 383 382 439 b 488 518 432 510 463 518 b 554 482 517 518 539 507 b 576 378 561 471 576 443 l 576 0 l 868 0 l 868 424 b 796 661 868 522 860 600 b 601 726 738 717 664 726 b 465 699 558 726 513 721 b 375 631 426 681 397 657 l 369 631 z m 635 976 b 618 932 633 964 628 943 b 581 918 610 922 594 918 b 496 946 556 918 529 931 l 460 963 b 354 989 431 976 399 989 b 233 933 304 989 267 974 b 176 804 203 897 183 846 l 325 804 b 342 844 326 819 333 835 b 382 860 354 857 369 860 b 460 838 411 860 435 850 l 501 818 b 613 789 532 804 560 789 b 718 831 654 789 688 799 b 782 976 750 864 775 924 z "},"ò":{"ha":908,"x_min":0,"x_max":0,"o":"m 457 547 b 522 521 482 547 503 542 b 567 353 560 481 567 401 b 521 186 567 340 567 235 b 451 158 501 165 478 158 b 385 186 428 158 404 164 b 342 353 354 219 342 294 b 386 519 342 460 369 501 b 457 547 406 540 428 547 z m 867 354 b 761 629 867 488 818 575 b 457 731 667 719 543 731 b 147 618 361 731 243 717 b 42 338 97 565 42 479 b 146 63 42 193 94 108 b 440 -25 231 -15 340 -25 b 760 76 533 -25 663 -18 b 867 354 811 126 867 215 z m 469 972 l 207 972 l 363 789 l 561 789 z "},"ó":{"ha":908,"x_min":0,"x_max":0,"o":"m 457 547 b 522 521 482 547 503 542 b 567 353 560 481 567 401 b 521 186 567 340 567 235 b 451 158 501 165 478 158 b 385 186 428 158 404 164 b 342 353 354 219 342 294 b 386 519 342 460 369 501 b 457 547 406 540 428 547 z m 867 354 b 761 629 867 488 818 575 b 457 731 667 719 543 731 b 147 618 361 731 243 717 b 42 338 97 565 42 479 b 146 63 42 193 94 108 b 440 -25 231 -15 340 -25 b 760 76 533 -25 663 -18 b 867 354 811 126 867 215 z m 440 972 l 349 789 l 547 789 l 703 972 z "},"ô":{"ha":908,"x_min":0,"x_max":0,"o":"m 457 547 b 522 521 482 547 503 542 b 567 353 560 481 567 401 b 521 186 567 340 567 235 b 451 158 501 165 478 158 b 385 186 428 158 404 164 b 342 353 354 219 342 294 b 386 519 342 460 369 501 b 457 547 406 540 428 547 z m 867 354 b 761 629 867 488 818 575 b 457 731 667 719 543 731 b 147 618 361 731 243 717 b 42 338 97 565 42 479 b 146 63 42 193 94 108 b 440 -25 231 -15 340 -25 b 760 76 533 -25 663 -18 b 867 354 811 126 867 215 z m 468 911 l 575 789 l 797 789 l 624 972 l 313 972 l 139 789 l 361 789 z "},"õ":{"ha":908,"x_min":0,"x_max":0,"o":"m 457 547 b 522 521 482 547 503 542 b 567 353 560 481 567 401 b 521 186 567 340 567 235 b 451 158 501 165 478 158 b 385 186 428 158 404 164 b 342 353 354 219 342 294 b 386 519 342 460 369 501 b 457 547 406 540 428 547 z m 867 354 b 761 629 867 488 818 575 b 457 731 667 719 543 731 b 147 618 361 731 243 717 b 42 338 97 565 42 479 b 146 63 42 193 94 108 b 440 -25 231 -15 340 -25 b 760 76 533 -25 663 -18 b 867 354 811 126 867 215 z m 618 976 b 601 932 617 964 611 943 b 564 918 593 922 578 918 b 479 946 539 918 513 931 l 443 963 b 338 989 414 976 382 989 b 217 933 288 989 250 974 b 160 804 186 897 167 846 l 308 804 b 325 844 310 819 317 835 b 365 860 338 857 353 860 b 443 838 394 860 418 850 l 485 818 b 596 789 515 804 543 789 b 701 831 638 789 671 799 b 765 976 733 864 758 924 z "},"ö":{"ha":908,"x_min":0,"x_max":0,"o":"m 457 547 b 522 521 482 547 503 542 b 567 353 560 481 567 401 b 521 186 567 340 567 235 b 451 158 501 165 478 158 b 385 186 428 158 404 164 b 342 353 354 219 342 294 b 386 519 342 460 369 501 b 457 547 406 540 428 547 z m 867 354 b 761 629 867 488 818 575 b 457 731 667 719 543 731 b 147 618 361 731 243 717 b 42 338 97 565 42 479 b 146 63 42 193 94 108 b 440 -25 231 -15 340 -25 b 760 76 533 -25 663 -18 b 867 354 811 126 867 215 z m 147 807 l 386 807 l 386 986 l 147 986 z m 521 807 l 760 807 l 760 986 l 521 986 z "},"÷":{"ha":964,"x_min":0,"x_max":0,"o":"m 69 568 l 69 444 l 894 444 l 894 568 z m 375 783 b 482 676 375 722 421 676 b 589 783 543 676 589 722 b 482 890 589 844 543 890 b 375 783 421 890 375 844 z m 375 229 b 482 122 375 168 421 122 b 589 229 543 122 589 168 b 482 336 589 290 543 336 b 375 229 421 336 375 290 z "},"ø":{"ha":908,"x_min":0,"x_max":0,"o":"m 335 310 b 329 374 332 329 329 351 b 365 514 329 426 340 481 b 451 554 386 540 414 554 b 526 522 488 554 510 540 z m 574 429 b 581 347 578 406 581 376 b 549 203 581 294 572 239 b 460 151 522 163 486 151 b 369 201 406 151 379 186 z m 831 700 l 756 774 l 676 688 b 457 731 603 719 540 731 b 147 618 363 731 243 717 b 42 332 100 569 42 479 b 131 89 42 226 71 156 l 64 15 l 136 -61 l 214 22 b 432 -25 294 -22 354 -25 b 760 76 536 -25 663 -18 b 867 354 811 125 867 215 b 763 624 867 479 826 558 z "},"ù":{"ha":957,"x_min":0,"x_max":0,"o":"m 596 0 l 867 0 l 867 706 l 575 706 l 575 331 b 546 224 575 304 572 258 b 475 189 528 199 507 189 b 406 219 450 189 424 194 b 382 326 394 235 382 264 l 382 706 l 90 706 l 90 283 b 164 43 90 225 92 114 b 349 -19 218 -10 289 -19 b 589 78 422 -19 513 -4 l 596 78 z m 518 972 l 256 972 l 411 789 l 610 789 z "},"ú":{"ha":957,"x_min":0,"x_max":0,"o":"m 596 0 l 867 0 l 867 706 l 575 706 l 575 331 b 546 224 575 304 572 258 b 475 189 528 199 507 189 b 406 219 450 189 424 194 b 382 326 394 235 382 264 l 382 706 l 90 706 l 90 283 b 164 43 90 225 92 114 b 349 -19 218 -10 289 -19 b 589 78 422 -19 513 -4 l 596 78 z m 433 972 l 342 789 l 540 789 l 696 972 z "},"û":{"ha":957,"x_min":0,"x_max":0,"o":"m 596 0 l 867 0 l 867 706 l 575 706 l 575 331 b 546 224 575 304 572 258 b 475 189 528 199 507 189 b 406 219 450 189 424 194 b 382 326 394 235 382 264 l 382 706 l 90 706 l 90 283 b 164 43 90 225 92 114 b 349 -19 218 -10 289 -19 b 589 78 422 -19 513 -4 l 596 78 z m 489 911 l 596 789 l 818 789 l 644 972 l 333 972 l 160 789 l 382 789 z "},"ü":{"ha":957,"x_min":0,"x_max":0,"o":"m 596 0 l 867 0 l 867 706 l 575 706 l 575 331 b 546 224 575 304 572 258 b 475 189 528 199 507 189 b 406 219 450 189 424 194 b 382 326 394 235 382 264 l 382 706 l 90 706 l 90 283 b 164 43 90 225 92 114 b 349 -19 218 -10 289 -19 b 589 78 422 -19 513 -4 l 596 78 z m 172 807 l 411 807 l 411 986 l 172 986 z m 546 807 l 785 807 l 785 986 l 546 986 z "},"ý":{"ha":817,"x_min":0,"x_max":0,"o":"m 86 -240 b 246 -258 154 -256 211 -258 b 463 -189 360 -258 425 -224 b 568 11 518 -137 546 -51 l 817 706 l 546 706 l 435 265 l 294 706 l 0 706 l 276 42 l 269 11 b 233 -49 265 -8 257 -32 b 164 -67 210 -67 185 -67 b 86 -53 138 -67 115 -64 z m 426 972 l 335 789 l 533 789 l 689 972 z "},"þ":{"ha":965,"x_min":0,"x_max":0,"o":"m 90 972 l 90 -257 l 382 -257 l 382 51 b 588 -25 444 -15 525 -25 b 819 61 667 -25 750 -11 b 924 365 893 136 924 254 b 824 654 924 549 846 633 b 601 731 751 724 661 731 b 374 628 533 731 439 719 l 368 628 l 368 972 z m 369 344 b 413 497 369 393 374 456 b 496 533 436 524 467 533 b 581 497 538 533 565 515 b 624 344 619 454 624 386 b 581 194 624 307 621 239 b 496 158 560 172 533 158 b 406 203 463 158 431 171 b 369 344 372 246 369 306 z "},"ÿ":{"ha":817,"x_min":0,"x_max":0,"o":"m 86 -240 b 246 -258 154 -256 211 -258 b 463 -189 360 -258 425 -224 b 568 11 518 -137 546 -51 l 817 706 l 546 706 l 435 265 l 294 706 l 0 706 l 276 42 l 269 11 b 233 -49 265 -8 257 -32 b 164 -67 210 -67 185 -67 b 86 -53 138 -67 115 -64 z m 114 807 l 353 807 l 353 986 l 114 986 z m 488 807 l 726 807 l 726 986 l 488 986 z "},"Ā":{"ha":986,"x_min":0,"x_max":0,"o":"m 340 138 l 642 138 l 686 0 l 1000 0 l 640 972 l 342 972 l -18 0 l 296 0 z m 400 338 l 490 629 l 582 338 z m 211 1082 l 775 1082 l 775 1215 l 211 1215 z "},"ā":{"ha":881,"x_min":0,"x_max":0,"o":"m 346 465 b 368 532 344 492 354 518 b 433 554 381 544 401 554 b 494 535 442 554 475 553 b 513 489 503 528 513 513 b 492 436 513 463 501 446 b 363 406 472 418 442 415 l 279 396 b 89 319 222 389 144 375 b 36 182 50 281 36 235 b 96 29 36 103 68 56 b 274 -25 147 -18 218 -25 b 432 8 322 -25 381 -18 b 518 76 465 25 496 50 l 521 76 l 539 0 l 853 0 l 853 10 b 814 42 836 15 821 28 b 804 122 807 54 804 72 l 804 440 b 732 642 804 497 797 579 b 440 724 651 721 508 724 b 143 629 347 724 222 711 b 72 465 106 590 78 533 z m 513 301 b 475 179 513 264 510 215 b 396 147 453 156 428 147 b 347 165 381 147 363 150 b 329 211 338 175 329 190 b 346 256 329 228 333 242 b 429 289 369 281 406 285 b 513 319 458 293 482 297 z m 167 819 l 731 819 l 731 953 l 167 953 z "},"Ă":{"ha":986,"x_min":0,"x_max":0,"o":"m 340 138 l 642 138 l 686 0 l 1000 0 l 640 972 l 342 972 l -18 0 l 296 0 z m 400 338 l 490 629 l 582 338 z m 599 1250 b 574 1189 600 1219 585 1199 b 493 1165 549 1167 513 1165 b 413 1189 478 1165 438 1167 b 388 1250 397 1203 386 1224 l 218 1250 b 274 1126 222 1192 249 1151 b 493 1056 339 1061 438 1056 b 713 1126 549 1056 647 1061 b 768 1250 738 1151 764 1192 z "},"ă":{"ha":881,"x_min":0,"x_max":0,"o":"m 346 465 b 368 532 344 492 354 518 b 433 554 381 544 401 554 b 494 535 442 554 475 553 b 513 489 503 528 513 513 b 492 436 513 463 501 446 b 363 406 472 418 442 415 l 279 396 b 89 319 222 389 144 375 b 36 182 50 281 36 235 b 96 29 36 103 68 56 b 274 -25 147 -18 218 -25 b 432 8 322 -25 381 -18 b 518 76 465 25 496 50 l 521 76 l 539 0 l 853 0 l 853 10 b 814 42 836 15 821 28 b 804 122 807 54 804 72 l 804 440 b 732 642 804 497 797 579 b 440 724 651 721 508 724 b 143 629 347 724 222 711 b 72 465 106 590 78 533 z m 513 301 b 475 179 513 264 510 215 b 396 147 453 156 428 147 b 347 165 381 147 363 150 b 329 211 338 175 329 190 b 346 256 329 228 333 242 b 429 289 369 281 406 285 b 513 319 458 293 482 297 z m 561 975 b 536 914 563 944 547 924 b 456 890 511 892 475 890 b 375 914 440 890 400 892 b 350 975 360 928 349 949 l 181 975 b 236 851 185 917 211 876 b 456 781 301 786 400 781 b 675 851 511 781 610 786 b 731 975 700 876 726 917 z "},"Ą":{"ha":986,"x_min":0,"x_max":0,"o":"m 340 138 l 642 138 l 686 0 l 854 0 b 743 -196 808 -36 743 -106 b 799 -321 743 -262 776 -301 b 956 -367 849 -362 911 -367 b 1122 -304 1003 -367 1071 -362 b 1172 -172 1147 -275 1171 -229 l 1024 -172 b 1015 -231 1028 -192 1025 -215 b 968 -257 1007 -244 993 -257 b 921 -239 951 -257 932 -251 b 901 -181 907 -225 901 -199 b 1000 0 901 -122 935 -51 l 640 972 l 342 972 l -18 0 l 296 0 z m 400 338 l 490 629 l 582 338 z "},"ą":{"ha":881,"x_min":0,"x_max":0,"o":"m 346 465 b 368 532 344 492 354 518 b 433 554 381 544 401 554 b 494 535 442 554 475 553 b 513 489 503 528 513 513 b 492 436 513 463 501 446 b 363 406 472 418 442 415 l 279 396 b 89 319 222 389 144 375 b 36 182 50 281 36 235 b 96 29 36 103 68 56 b 274 -25 147 -18 218 -25 b 432 8 322 -25 381 -18 b 518 76 465 25 496 50 l 521 76 l 539 0 l 707 0 b 596 -194 661 -36 596 -104 b 651 -319 596 -261 629 -300 b 808 -367 700 -361 765 -367 b 975 -304 856 -367 924 -362 b 1025 -172 1000 -275 1024 -229 l 876 -172 b 868 -231 881 -192 878 -215 b 821 -257 860 -244 846 -257 b 774 -239 804 -257 785 -251 b 754 -181 760 -225 754 -199 b 853 0 754 -122 788 -51 l 853 10 b 814 42 836 15 821 28 b 804 122 807 54 804 72 l 804 440 b 732 642 804 497 797 579 b 440 724 651 721 508 724 b 143 629 347 724 222 711 b 72 465 106 590 78 533 z m 513 301 b 475 179 513 264 510 215 b 396 147 453 156 428 147 b 347 165 381 147 363 150 b 329 211 338 175 329 190 b 346 256 329 228 333 242 b 429 289 369 281 406 285 b 513 319 458 293 482 297 z "},"Ć":{"ha":1054,"x_min":0,"x_max":0,"o":"m 731 358 b 683 269 728 338 718 300 b 567 232 647 238 608 232 b 432 288 525 232 475 236 b 378 485 386 342 378 422 b 440 690 378 544 385 635 b 575 739 481 731 529 739 b 679 708 600 739 646 736 b 725 621 701 689 719 657 l 1018 621 b 906 879 1003 778 918 867 b 565 997 835 951 725 997 b 200 869 450 997 311 978 b 56 476 115 788 56 660 b 196 83 56 272 128 147 b 546 -28 304 -18 446 -28 b 906 85 635 -28 797 -22 b 1026 358 967 144 1017 246 z m 524 1261 l 432 1064 l 644 1064 l 800 1261 z "},"ć":{"ha":869,"x_min":0,"x_max":0,"o":"m 556 278 b 522 182 556 249 544 206 b 456 158 501 161 476 158 b 385 188 429 158 406 164 b 342 360 343 232 342 321 b 383 522 342 415 347 483 b 454 551 403 543 425 551 b 521 526 479 551 503 544 b 554 432 547 500 554 460 l 822 432 b 736 635 817 521 779 590 b 451 735 686 685 600 735 b 156 629 356 735 243 714 b 42 336 94 568 42 468 b 143 68 42 199 94 114 b 432 -25 229 -14 342 -25 b 733 75 522 -25 642 -17 b 828 278 776 118 818 186 z m 419 972 l 328 789 l 526 789 l 682 972 z "},"Ĉ":{"ha":1054,"x_min":0,"x_max":0,"o":"m 731 358 b 683 269 728 338 718 300 b 567 232 647 238 608 232 b 432 288 525 232 475 236 b 378 485 386 342 378 422 b 440 690 378 544 385 635 b 575 739 481 731 529 739 b 679 708 600 739 646 736 b 725 621 701 689 719 657 l 1018 621 b 906 879 1003 778 918 867 b 565 997 835 951 725 997 b 200 869 450 997 311 978 b 56 476 115 788 56 660 b 196 83 56 272 128 147 b 546 -28 304 -18 446 -28 b 906 85 635 -28 797 -22 b 1026 358 967 144 1017 246 z m 565 1179 l 672 1064 l 894 1064 l 721 1247 l 410 1247 l 236 1064 l 458 1064 z "},"ĉ":{"ha":869,"x_min":0,"x_max":0,"o":"m 556 278 b 522 182 556 249 544 206 b 456 158 501 161 476 158 b 385 188 429 158 406 164 b 342 360 343 232 342 321 b 383 522 342 415 347 483 b 454 551 403 543 425 551 b 521 526 479 551 503 544 b 554 432 547 500 554 460 l 822 432 b 736 635 817 521 779 590 b 451 735 686 685 600 735 b 156 629 356 735 243 714 b 42 336 94 568 42 468 b 143 68 42 199 94 114 b 432 -25 229 -14 342 -25 b 733 75 522 -25 642 -17 b 828 278 776 118 818 186 z m 454 911 l 561 789 l 783 789 l 610 972 l 299 972 l 125 789 l 347 789 z "},"Č":{"ha":1054,"x_min":0,"x_max":0,"o":"m 731 358 b 683 269 728 338 718 300 b 567 232 647 238 608 232 b 432 288 525 232 475 236 b 378 485 386 342 378 422 b 440 690 378 544 385 635 b 575 739 481 731 529 739 b 679 708 600 739 646 736 b 725 621 701 689 719 657 l 1018 621 b 906 879 1003 778 918 867 b 565 997 835 951 725 997 b 200 869 450 997 311 978 b 56 476 115 788 56 660 b 196 83 56 272 128 147 b 546 -28 304 -18 446 -28 b 906 85 635 -28 797 -22 b 1026 358 967 144 1017 246 z m 565 1132 l 458 1247 l 236 1247 l 410 1064 l 721 1064 l 894 1247 l 672 1247 z "},"č":{"ha":869,"x_min":0,"x_max":0,"o":"m 556 278 b 522 182 556 249 544 206 b 456 158 501 161 476 158 b 385 188 429 158 406 164 b 342 360 343 232 342 321 b 383 522 342 415 347 483 b 454 551 403 543 425 551 b 521 526 479 551 503 544 b 554 432 547 500 554 460 l 822 432 b 736 635 817 521 779 590 b 451 735 686 685 600 735 b 156 629 356 735 243 714 b 42 336 94 568 42 468 b 143 68 42 199 94 114 b 432 -25 229 -14 342 -25 b 733 75 522 -25 642 -17 b 828 278 776 118 818 186 z m 454 850 l 347 972 l 125 972 l 299 789 l 610 789 l 783 972 l 561 972 z "},"Ď":{"ha":1111,"x_min":0,"x_max":0,"o":"m 118 972 l 118 0 l 585 0 b 921 101 699 0 814 4 b 1063 472 967 143 1063 253 b 922 864 1063 628 1015 776 b 585 972 821 960 699 972 z m 421 717 l 528 717 b 688 668 574 717 642 714 b 740 486 739 617 740 522 b 682 307 740 431 732 353 b 529 261 636 264 574 261 l 421 261 z m 538 1132 l 431 1247 l 208 1247 l 382 1064 l 693 1064 l 867 1247 l 644 1247 z "},"ď":{"ha":1156,"x_min":0,"x_max":0,"o":"m 875 0 l 875 972 l 583 972 l 583 646 b 381 731 554 682 501 731 b 144 636 289 731 210 706 b 42 336 82 569 42 458 b 139 64 42 207 88 118 b 369 -25 213 -12 301 -25 b 592 68 429 -25 524 -14 l 597 68 l 597 0 z m 594 354 b 553 193 594 300 589 235 b 471 158 532 169 504 158 b 392 190 435 158 410 174 b 342 346 367 215 342 261 b 386 501 342 385 346 460 b 465 533 410 525 438 533 b 553 497 508 533 536 515 b 594 354 589 458 594 403 z m 960 767 l 1079 767 l 1079 761 b 1054 685 1079 736 1072 703 b 960 657 1033 663 993 658 l 960 556 b 1132 619 1004 557 1083 568 b 1186 804 1182 674 1186 751 l 1186 972 l 960 972 z "},"Đ":{"ha":1143,"x_min":0,"x_max":0,"o":"m 150 972 l 150 588 l 14 588 l 14 450 l 150 450 l 150 0 l 617 0 b 953 101 721 0 846 7 b 1094 474 1013 154 1094 264 b 954 864 1094 625 1049 774 b 617 972 853 960 729 972 z m 453 717 l 560 717 b 719 668 606 717 674 714 b 772 486 771 617 772 522 b 714 307 772 431 764 353 b 561 261 668 264 606 261 l 453 261 l 453 443 l 639 443 l 639 588 l 453 588 z "},"đ":{"ha":965,"x_min":0,"x_max":0,"o":"m 875 0 l 875 782 l 997 782 l 997 886 l 875 886 l 875 972 l 583 972 l 583 886 l 296 886 l 296 782 l 583 782 l 583 643 b 503 700 560 672 533 688 b 388 719 460 717 424 719 b 140 629 311 719 215 707 b 42 351 78 565 42 464 b 142 64 42 224 83 124 b 381 -25 217 -14 307 -25 b 510 0 424 -25 468 -18 b 594 63 539 14 569 35 l 597 63 l 597 0 z m 594 354 b 553 193 594 299 589 233 b 474 158 531 169 504 158 b 392 190 435 158 408 174 b 342 350 353 229 342 301 b 388 501 342 444 372 486 b 467 533 408 522 433 533 b 554 497 510 533 538 515 b 594 354 593 456 594 390 z "},"Ē":{"ha":999,"x_min":0,"x_max":0,"o":"m 421 606 l 421 715 l 925 715 l 925 972 l 118 972 l 118 0 l 936 0 l 936 257 l 421 257 l 421 376 l 853 376 l 853 606 z m 236 1082 l 800 1082 l 800 1215 l 236 1215 z "},"ē":{"ha":900,"x_min":0,"x_max":0,"o":"m 561 204 b 525 161 557 190 547 174 b 456 147 506 150 476 147 b 367 188 413 147 385 164 b 340 294 349 213 339 257 l 858 294 l 858 311 b 761 626 858 394 857 528 b 453 731 707 682 614 731 b 147 617 344 731 233 707 b 42 332 81 547 42 444 b 138 72 42 214 83 126 b 450 -25 225 -15 340 -25 b 707 28 524 -25 618 -24 b 847 204 790 76 828 144 z m 342 433 b 376 526 343 463 354 503 b 456 557 397 550 426 557 b 528 528 479 557 507 551 b 558 433 547 507 558 464 z m 174 819 l 738 819 l 738 953 l 174 953 z "},"Ė":{"ha":999,"x_min":0,"x_max":0,"o":"m 421 606 l 421 715 l 925 715 l 925 972 l 118 972 l 118 0 l 936 0 l 936 257 l 421 257 l 421 376 l 853 376 l 853 606 z m 396 1082 l 635 1082 l 635 1261 l 396 1261 z "},"ė":{"ha":900,"x_min":0,"x_max":0,"o":"m 561 204 b 525 161 557 190 547 174 b 456 147 506 150 476 147 b 367 188 413 147 385 164 b 340 294 349 213 339 257 l 858 294 l 858 311 b 761 626 858 394 857 528 b 453 731 707 682 614 731 b 147 617 344 731 233 707 b 42 332 81 547 42 444 b 138 72 42 214 83 126 b 450 -25 225 -15 340 -25 b 707 28 524 -25 618 -24 b 847 204 790 76 828 144 z m 342 433 b 376 526 343 463 354 503 b 456 557 397 550 426 557 b 528 528 479 557 507 551 b 558 433 547 507 558 464 z m 340 807 l 579 807 l 579 986 l 340 986 z "},"Ę":{"ha":999,"x_min":0,"x_max":0,"o":"m 421 606 l 421 715 l 925 715 l 925 972 l 118 972 l 118 0 l 790 0 b 679 -194 744 -36 679 -104 b 735 -319 679 -253 704 -294 b 900 -367 775 -353 839 -367 b 1058 -304 951 -367 1013 -356 b 1108 -172 1083 -275 1107 -229 l 960 -172 b 951 -231 964 -192 961 -215 b 899 -257 936 -256 913 -257 b 857 -240 876 -257 864 -249 b 838 -179 843 -226 838 -201 b 936 0 838 -110 882 -43 l 936 257 l 421 257 l 421 376 l 853 376 l 853 606 z "},"ę":{"ha":900,"x_min":0,"x_max":0,"o":"m 656 -172 b 647 -231 660 -192 657 -215 b 600 -257 635 -250 618 -257 b 553 -239 575 -257 560 -247 b 533 -176 551 -237 533 -217 b 579 -71 533 -140 550 -101 b 735 42 617 -31 685 1 b 847 204 790 86 826 132 l 561 204 b 525 161 557 190 547 174 b 456 147 506 150 476 147 b 367 188 413 147 385 164 b 340 294 349 213 339 257 l 858 294 l 858 311 b 761 626 858 394 857 528 b 453 731 707 682 614 731 b 147 617 344 731 233 707 b 42 332 81 547 42 444 b 138 72 42 214 83 126 b 411 -26 185 24 272 -26 b 457 -25 426 -26 440 -26 b 375 -197 404 -78 375 -135 b 431 -322 375 -264 407 -303 b 588 -367 479 -362 546 -367 b 754 -304 635 -367 703 -362 b 804 -172 779 -275 803 -229 z m 342 433 b 376 526 343 463 354 503 b 456 557 397 550 426 557 b 528 528 479 557 507 551 b 558 433 547 507 558 464 z "},"Ě":{"ha":999,"x_min":0,"x_max":0,"o":"m 421 606 l 421 715 l 925 715 l 925 972 l 118 972 l 118 0 l 936 0 l 936 257 l 421 257 l 421 376 l 853 376 l 853 606 z m 524 1132 l 417 1247 l 194 1247 l 368 1064 l 679 1064 l 853 1247 l 631 1247 z "},"ě":{"ha":900,"x_min":0,"x_max":0,"o":"m 561 204 b 525 161 557 190 547 174 b 456 147 506 150 476 147 b 367 188 413 147 385 164 b 340 294 349 213 339 257 l 858 294 l 858 311 b 761 626 858 394 857 528 b 453 731 707 682 614 731 b 147 617 344 731 233 707 b 42 332 81 547 42 444 b 138 72 42 214 83 126 b 450 -25 225 -15 340 -25 b 707 28 524 -25 618 -24 b 847 204 790 76 828 144 z m 342 433 b 376 526 343 463 354 503 b 456 557 397 550 426 557 b 528 528 479 557 507 551 b 558 433 547 507 558 464 z m 461 850 l 354 972 l 132 972 l 306 789 l 617 789 l 790 972 l 568 972 z "},"Ĝ":{"ha":1111,"x_min":0,"x_max":0,"o":"m 624 536 l 624 322 l 757 322 b 699 244 753 313 735 274 b 588 210 663 217 626 210 b 458 254 542 210 497 217 b 383 486 400 308 383 410 b 447 707 383 564 400 657 b 576 758 472 733 513 758 b 690 717 603 758 654 754 b 726 636 708 699 722 669 l 1039 636 b 896 904 1024 760 960 854 b 563 996 810 972 675 996 b 203 858 446 996 314 971 b 56 461 138 792 56 667 b 196 78 56 290 111 157 b 522 -29 297 -17 424 -29 b 808 82 679 -29 754 15 l 826 0 l 1049 0 l 1049 536 z m 572 1179 l 679 1064 l 901 1064 l 728 1247 l 417 1247 l 243 1064 l 465 1064 z "},"ĝ":{"ha":950,"x_min":0,"x_max":0,"o":"m 106 -35 b 201 -210 108 -78 121 -154 b 460 -269 276 -262 382 -269 b 763 -179 556 -269 674 -264 b 860 106 846 -99 860 7 l 860 706 l 586 706 l 586 640 l 579 640 b 364 725 519 706 438 725 b 138 631 275 725 199 697 b 42 356 92 582 42 497 b 132 106 42 224 89 147 b 363 28 203 36 290 28 b 561 89 435 28 500 38 l 568 89 l 568 11 b 540 -72 568 -15 565 -47 b 463 -99 526 -85 503 -99 b 399 -82 439 -99 414 -93 b 375 -35 390 -76 375 -61 z m 343 371 b 385 501 343 396 346 463 b 461 533 404 522 432 533 b 539 500 493 533 519 519 b 579 372 560 478 579 440 b 542 243 579 351 576 283 b 458 208 525 224 499 208 b 376 249 425 208 397 221 b 343 371 347 286 343 333 z m 475 911 l 582 789 l 804 789 l 631 972 l 319 972 l 146 789 l 368 789 z "},"Ğ":{"ha":1111,"x_min":0,"x_max":0,"o":"m 624 536 l 624 322 l 757 322 b 699 244 753 313 735 274 b 588 210 663 217 626 210 b 458 254 542 210 497 217 b 383 486 400 308 383 410 b 447 707 383 564 400 657 b 576 758 472 733 513 758 b 690 717 603 758 654 754 b 726 636 708 699 722 669 l 1039 636 b 896 904 1024 760 960 854 b 563 996 810 972 675 996 b 203 858 446 996 314 971 b 56 461 138 792 56 667 b 196 78 56 290 111 157 b 522 -29 297 -17 424 -29 b 808 82 679 -29 754 15 l 826 0 l 1049 0 l 1049 536 z m 661 1250 b 636 1189 663 1219 647 1199 b 556 1165 611 1167 575 1165 b 475 1189 540 1165 500 1167 b 450 1250 460 1203 449 1224 l 281 1250 b 336 1126 285 1192 311 1151 b 556 1056 401 1061 500 1056 b 775 1126 611 1056 710 1061 b 831 1250 800 1151 826 1192 z "},"ğ":{"ha":950,"x_min":0,"x_max":0,"o":"m 106 -35 b 201 -210 108 -78 121 -154 b 460 -269 276 -262 382 -269 b 763 -179 556 -269 674 -264 b 860 106 846 -99 860 7 l 860 706 l 586 706 l 586 640 l 579 640 b 364 725 519 706 438 725 b 138 631 275 725 199 697 b 42 356 92 582 42 497 b 132 106 42 224 89 147 b 363 28 203 36 290 28 b 561 89 435 28 500 38 l 568 89 l 568 11 b 540 -72 568 -15 565 -47 b 463 -99 526 -85 503 -99 b 399 -82 439 -99 414 -93 b 375 -35 390 -76 375 -61 z m 343 371 b 385 501 343 396 346 463 b 461 533 404 522 432 533 b 539 500 493 533 519 519 b 579 372 560 478 579 440 b 542 243 579 351 576 283 b 458 208 525 224 499 208 b 376 249 425 208 397 221 b 343 371 347 286 343 333 z m 581 975 b 556 914 582 944 567 924 b 475 890 531 892 494 890 b 394 914 460 890 419 892 b 369 975 379 928 368 949 l 200 975 b 256 851 204 917 231 876 b 475 781 321 786 419 781 b 694 851 531 781 629 786 b 750 975 719 876 746 917 z "},"Ģ":{"ha":1111,"x_min":0,"x_max":0,"o":"m 624 536 l 624 322 l 757 322 b 699 244 753 313 735 274 b 588 210 663 217 626 210 b 458 254 542 210 497 217 b 383 486 400 308 383 410 b 447 707 383 564 400 657 b 576 758 472 733 513 758 b 690 717 603 758 654 754 b 726 636 708 699 722 669 l 1039 636 b 896 904 1024 760 960 854 b 563 996 810 972 675 996 b 203 858 446 996 314 971 b 56 461 138 792 56 667 b 196 78 56 290 111 157 b 522 -29 297 -17 424 -29 b 808 82 679 -29 754 15 l 826 0 l 1049 0 l 1049 536 z m 439 -271 l 564 -271 l 564 -276 b 540 -353 564 -301 563 -329 b 439 -385 513 -382 467 -386 l 439 -489 b 608 -429 494 -487 564 -472 b 671 -231 667 -372 671 -292 l 671 -87 l 439 -87 z "},"ģ":{"ha":950,"x_min":0,"x_max":0,"o":"m 106 -35 b 201 -210 108 -78 121 -154 b 460 -269 276 -262 382 -269 b 763 -179 556 -269 674 -264 b 860 106 846 -99 860 7 l 860 706 l 586 706 l 586 640 l 579 640 b 364 725 519 706 438 725 b 138 631 275 725 199 697 b 42 356 92 582 42 497 b 132 106 42 224 89 147 b 363 28 203 36 290 28 b 561 89 435 28 500 38 l 568 89 l 568 11 b 540 -72 568 -15 565 -47 b 463 -99 526 -85 503 -99 b 399 -82 439 -99 414 -93 b 375 -35 390 -76 375 -61 z m 343 371 b 385 501 343 396 346 463 b 461 533 404 522 432 533 b 539 500 493 533 519 519 b 579 372 560 478 579 440 b 542 243 579 351 576 283 b 458 208 525 224 499 208 b 376 249 425 208 397 221 b 343 371 347 286 343 333 z m 579 950 l 454 950 l 454 956 b 478 1026 454 981 461 1008 b 579 1058 506 1057 557 1060 l 579 1154 b 410 1097 485 1151 436 1121 b 347 904 354 1046 347 975 l 347 781 l 579 781 z "},"Ĥ":{"ha":1113,"x_min":0,"x_max":0,"o":"m 421 382 l 692 382 l 692 0 l 994 0 l 994 972 l 692 972 l 692 638 l 421 638 l 421 972 l 118 972 l 118 0 l 421 0 z m 556 1179 l 663 1064 l 885 1064 l 711 1247 l 400 1247 l 226 1064 l 449 1064 z "},"ĥ":{"ha":958,"x_min":0,"x_max":0,"o":"m 382 972 l 90 972 l 90 0 l 382 0 l 382 375 b 410 478 382 413 392 451 b 486 518 429 506 454 518 b 554 482 519 518 540 503 b 576 378 575 451 576 400 l 576 0 l 868 0 l 868 424 b 793 661 868 513 858 600 b 604 726 758 694 699 726 b 382 646 490 726 421 681 z m 235 1133 l 342 1011 l 564 1011 l 390 1194 l 79 1194 l -94 1011 l 128 1011 z "},"Ī":{"ha":539,"x_min":0,"x_max":0,"o":"m 118 972 l 118 0 l 421 0 l 421 972 z m -21 1082 l 543 1082 l 543 1215 l -21 1215 z "},"ī":{"ha":472,"x_min":0,"x_max":0,"o":"m 90 706 l 90 0 l 382 0 l 382 706 z m -51 819 l 513 819 l 513 953 l -51 953 z "},"Į":{"ha":539,"x_min":0,"x_max":0,"o":"m 118 972 l 118 0 l 275 0 b 164 -194 175 -78 164 -154 b 219 -319 164 -261 196 -300 b 376 -367 268 -361 333 -367 b 543 -304 424 -367 492 -362 b 593 -172 568 -275 592 -229 l 444 -172 b 436 -231 447 -192 446 -215 b 389 -257 428 -244 414 -257 b 342 -239 372 -257 353 -251 b 322 -179 328 -225 322 -200 b 350 -81 322 -149 329 -115 b 421 0 369 -49 396 -21 l 421 972 z "},"į":{"ha":472,"x_min":0,"x_max":0,"o":"m 90 706 l 90 0 l 236 0 b 125 -196 190 -36 125 -106 b 181 -321 125 -262 158 -301 b 338 -367 231 -362 293 -367 b 504 -304 385 -367 453 -362 b 554 -172 529 -275 553 -229 l 406 -172 b 397 -231 410 -192 407 -215 b 350 -257 389 -244 375 -257 b 303 -239 333 -257 314 -251 b 283 -181 289 -225 283 -199 b 382 0 283 -122 317 -51 l 382 706 z m 90 789 l 382 789 l 382 972 l 90 972 z "},"İ":{"ha":539,"x_min":0,"x_max":0,"o":"m 118 972 l 118 0 l 421 0 l 421 972 z m 150 1082 l 389 1082 l 389 1261 l 150 1261 z "},"ı":{"ha":472,"x_min":0,"x_max":0,"o":"m 90 706 l 90 0 l 382 0 l 382 706 z "},"Ĵ":{"ha":900,"x_min":0,"x_max":0,"o":"m 28 383 l 28 364 b 121 65 28 279 31 156 b 408 -28 201 -17 314 -28 b 685 60 490 -28 603 -19 b 782 361 772 144 782 261 l 782 972 l 479 972 l 479 317 b 461 242 479 292 478 264 b 406 215 447 222 429 215 b 344 243 376 215 357 228 b 325 326 326 267 325 297 l 325 383 z m 450 1179 l 557 1064 l 779 1064 l 606 1247 l 294 1247 l 121 1064 l 343 1064 z "},"ĵ":{"ha":483,"x_min":0,"x_max":0,"o":"m 100 706 l 100 40 b 79 -36 100 14 99 -17 b 17 -54 61 -54 31 -54 b -28 -50 1 -54 -12 -53 l -28 -247 b 128 -261 6 -254 54 -261 b 332 -199 182 -261 274 -257 b 393 1 389 -142 393 -64 l 393 706 z m 243 911 l 350 789 l 572 789 l 399 972 l 88 972 l -86 789 l 136 789 z "},"Ķ":{"ha":1082,"x_min":0,"x_max":0,"o":"m 421 654 l 421 972 l 118 972 l 118 0 l 421 0 l 421 290 l 496 369 l 738 0 l 1103 0 l 693 568 l 1081 972 l 726 972 z m 465 -271 l 590 -271 l 590 -276 b 567 -353 590 -301 589 -329 b 465 -385 539 -382 493 -386 l 465 -489 b 635 -429 521 -487 590 -472 b 697 -231 693 -372 697 -292 l 697 -87 l 465 -87 z "},"ķ":{"ha":889,"x_min":0,"x_max":0,"o":"m 382 486 l 382 972 l 90 972 l 90 0 l 382 0 l 382 197 l 433 250 l 579 0 l 903 0 l 614 421 l 896 706 l 572 706 z m 368 -257 l 493 -257 l 493 -262 b 469 -333 493 -287 486 -315 b 368 -365 442 -364 390 -367 l 368 -461 b 538 -404 463 -458 511 -428 b 600 -211 593 -353 600 -282 l 600 -87 l 368 -87 z "},"Ĺ":{"ha":849,"x_min":0,"x_max":0,"o":"m 842 257 l 421 257 l 421 972 l 118 972 l 118 0 l 842 0 z m 260 1261 l 168 1064 l 381 1064 l 536 1261 z "},"ĺ":{"ha":472,"x_min":0,"x_max":0,"o":"m 90 972 l 90 0 l 382 0 l 382 972 z m 197 1208 l 106 1025 l 304 1025 l 460 1208 z "},"Ļ":{"ha":849,"x_min":0,"x_max":0,"o":"m 842 257 l 421 257 l 421 972 l 118 972 l 118 0 l 842 0 z m 375 -271 l 500 -271 l 500 -276 b 476 -353 500 -301 499 -329 b 375 -385 449 -382 403 -386 l 375 -489 b 544 -429 431 -487 500 -472 b 607 -231 603 -372 607 -292 l 607 -87 l 375 -87 z "},"ļ":{"ha":472,"x_min":0,"x_max":0,"o":"m 90 972 l 90 0 l 382 0 l 382 972 z m 117 -257 l 242 -257 l 242 -262 b 218 -333 242 -287 235 -315 b 117 -365 190 -364 139 -367 l 117 -461 b 286 -404 211 -458 260 -428 b 349 -211 342 -353 349 -282 l 349 -87 l 117 -87 z "},"Ľ":{"ha":849,"x_min":0,"x_max":0,"o":"m 842 257 l 421 257 l 421 972 l 118 972 l 118 0 l 842 0 z m 542 756 l 667 756 l 667 750 b 640 669 667 703 650 679 b 542 640 617 646 578 642 l 542 533 b 722 601 590 535 671 546 b 779 796 776 660 779 739 l 779 972 l 542 972 z "},"ľ":{"ha":647,"x_min":0,"x_max":0,"o":"m 90 972 l 90 0 l 382 0 l 382 972 z m 446 767 l 565 767 l 565 761 b 540 685 565 736 558 703 b 446 657 519 663 479 658 l 446 556 b 618 619 490 557 569 568 b 672 804 668 674 672 751 l 672 972 l 446 972 z "},"Ł":{"ha":885,"x_min":0,"x_max":0,"o":"m 885 257 l 464 257 l 464 493 l 668 679 l 668 875 l 464 689 l 464 972 l 161 972 l 161 494 l 14 371 l 14 174 l 161 294 l 161 0 l 885 0 z "},"ł":{"ha":681,"x_min":0,"x_max":0,"o":"m 194 972 l 194 546 l 0 415 l 0 271 l 194 399 l 194 0 l 486 0 l 486 542 l 681 682 l 681 826 l 486 690 l 486 972 z "},"Ń":{"ha":1139,"x_min":0,"x_max":0,"o":"m 421 539 l 718 0 l 1021 0 l 1021 972 l 718 972 l 718 507 l 725 433 l 718 433 l 421 972 l 118 972 l 118 0 l 421 0 l 421 465 l 414 539 z m 533 1261 l 442 1064 l 654 1064 l 810 1261 z "},"ń":{"ha":958,"x_min":0,"x_max":0,"o":"m 369 706 l 90 706 l 90 0 l 382 0 l 382 375 b 410 478 382 383 382 439 b 488 518 432 510 463 518 b 554 482 517 518 539 507 b 576 378 561 471 576 443 l 576 0 l 868 0 l 868 424 b 796 661 868 522 860 600 b 601 726 738 717 664 726 b 465 699 558 726 513 721 b 375 631 426 681 397 657 l 369 631 z m 475 972 l 383 789 l 582 789 l 738 972 z "},"Ņ":{"ha":1139,"x_min":0,"x_max":0,"o":"m 421 539 l 718 0 l 1021 0 l 1021 972 l 718 972 l 718 507 l 725 433 l 718 433 l 421 972 l 118 972 l 118 0 l 421 0 l 421 465 l 414 539 z m 458 -271 l 583 -271 l 583 -276 b 560 -353 583 -301 582 -329 b 458 -385 532 -382 486 -386 l 458 -489 b 628 -429 514 -487 583 -472 b 690 -231 686 -372 690 -292 l 690 -87 l 458 -87 z "},"ņ":{"ha":958,"x_min":0,"x_max":0,"o":"m 369 706 l 90 706 l 90 0 l 382 0 l 382 375 b 410 478 382 383 382 439 b 488 518 432 510 463 518 b 554 482 517 518 539 507 b 576 378 561 471 576 443 l 576 0 l 868 0 l 868 424 b 796 661 868 522 860 600 b 601 726 738 717 664 726 b 465 699 558 726 513 721 b 375 631 426 681 397 657 l 369 631 z m 389 -257 l 514 -257 l 514 -262 b 490 -333 514 -287 507 -315 b 389 -365 463 -364 411 -367 l 389 -461 b 558 -404 483 -458 532 -428 b 621 -211 614 -353 621 -282 l 621 -87 l 389 -87 z "},"Ň":{"ha":1139,"x_min":0,"x_max":0,"o":"m 421 539 l 718 0 l 1021 0 l 1021 972 l 718 972 l 718 507 l 725 433 l 718 433 l 421 972 l 118 972 l 118 0 l 421 0 l 421 465 l 414 539 z m 569 1132 l 463 1247 l 240 1247 l 414 1064 l 725 1064 l 899 1247 l 676 1247 z "},"ň":{"ha":958,"x_min":0,"x_max":0,"o":"m 369 706 l 90 706 l 90 0 l 382 0 l 382 375 b 410 478 382 383 382 439 b 488 518 432 510 463 518 b 554 482 517 518 539 507 b 576 378 561 471 576 443 l 576 0 l 868 0 l 868 424 b 796 661 868 522 860 600 b 601 726 738 717 664 726 b 465 699 558 726 513 721 b 375 631 426 681 397 657 l 369 631 z m 479 850 l 372 972 l 150 972 l 324 789 l 635 789 l 808 972 l 586 972 z "},"Ō":{"ha":1136,"x_min":0,"x_max":0,"o":"m 56 483 b 181 115 56 276 136 163 b 572 -26 294 -7 444 -26 b 954 113 699 -26 842 -8 b 1081 494 1024 188 1081 307 b 951 861 1081 601 1061 749 b 561 999 839 978 686 999 b 193 863 446 999 308 983 b 56 483 121 786 56 663 z m 378 486 b 442 692 378 539 386 633 b 574 743 479 731 525 743 b 699 692 621 743 663 729 b 758 486 749 639 758 557 b 699 281 758 415 743 329 b 568 229 663 240 615 229 b 439 281 519 229 475 243 b 378 486 385 339 378 433 z m 286 1082 l 850 1082 l 850 1215 l 286 1215 z "},"ō":{"ha":908,"x_min":0,"x_max":0,"o":"m 457 547 b 522 521 482 547 503 542 b 567 353 560 481 567 401 b 521 186 567 340 567 235 b 451 158 501 165 478 158 b 385 186 428 158 404 164 b 342 353 354 219 342 294 b 386 519 342 460 369 501 b 457 547 406 540 428 547 z m 867 354 b 761 629 867 488 818 575 b 457 731 667 719 543 731 b 147 618 361 731 243 717 b 42 338 97 565 42 479 b 146 63 42 193 94 108 b 440 -25 231 -15 340 -25 b 760 76 533 -25 663 -18 b 867 354 811 126 867 215 z m 172 819 l 736 819 l 736 953 l 172 953 z "},"Ŏ":{"ha":1136,"x_min":0,"x_max":0,"o":"m 56 483 b 181 115 56 276 136 163 b 572 -26 294 -7 444 -26 b 954 113 699 -26 842 -8 b 1081 494 1024 188 1081 307 b 951 861 1081 601 1061 749 b 561 999 839 978 686 999 b 193 863 446 999 308 983 b 56 483 121 786 56 663 z m 378 486 b 442 692 378 539 386 633 b 574 743 479 731 525 743 b 699 692 621 743 663 729 b 758 486 749 639 758 557 b 699 281 758 415 743 329 b 568 229 663 240 615 229 b 439 281 519 229 475 243 b 378 486 385 339 378 433 z m 674 1250 b 649 1189 675 1219 660 1199 b 568 1165 624 1167 588 1165 b 488 1189 553 1165 513 1167 b 463 1250 472 1203 461 1224 l 293 1250 b 349 1126 297 1192 324 1151 b 568 1056 414 1061 513 1056 b 788 1126 624 1056 722 1061 b 843 1250 813 1151 839 1192 z "},"ŏ":{"ha":908,"x_min":0,"x_max":0,"o":"m 457 547 b 522 521 482 547 503 542 b 567 353 560 481 567 401 b 521 186 567 340 567 235 b 451 158 501 165 478 158 b 385 186 428 158 404 164 b 342 353 354 219 342 294 b 386 519 342 460 369 501 b 457 547 406 540 428 547 z m 867 354 b 761 629 867 488 818 575 b 457 731 667 719 543 731 b 147 618 361 731 243 717 b 42 338 97 565 42 479 b 146 63 42 193 94 108 b 440 -25 231 -15 340 -25 b 760 76 533 -25 663 -18 b 867 354 811 126 867 215 z m 560 975 b 535 914 561 944 546 924 b 454 890 510 892 474 890 b 374 914 439 890 399 892 b 349 975 358 928 347 949 l 179 975 b 235 851 183 917 210 876 b 454 781 300 786 399 781 b 674 851 510 781 608 786 b 729 975 699 876 725 917 z "},"Ő":{"ha":1136,"x_min":0,"x_max":0,"o":"m 56 483 b 181 115 56 276 136 163 b 572 -26 294 -7 444 -26 b 954 113 699 -26 842 -8 b 1081 494 1024 188 1081 307 b 951 861 1081 601 1061 749 b 561 999 839 978 686 999 b 193 863 446 999 308 983 b 56 483 121 786 56 663 z m 378 486 b 442 692 378 539 386 633 b 574 743 479 731 525 743 b 699 692 621 743 663 729 b 758 486 749 639 758 557 b 699 281 758 415 743 329 b 568 229 663 240 615 229 b 439 281 519 229 475 243 b 378 486 385 339 378 433 z m 343 1261 l 264 1078 l 468 1078 l 603 1261 z m 667 1261 l 588 1078 l 792 1078 l 928 1261 z "},"ő":{"ha":908,"x_min":0,"x_max":0,"o":"m 457 547 b 522 521 482 547 503 542 b 567 353 560 481 567 401 b 521 186 567 340 567 235 b 451 158 501 165 478 158 b 385 186 428 158 404 164 b 342 353 354 219 342 294 b 386 519 342 460 369 501 b 457 547 406 540 428 547 z m 867 354 b 761 629 867 488 818 575 b 457 731 667 719 543 731 b 147 618 361 731 243 717 b 42 338 97 565 42 479 b 146 63 42 193 94 108 b 440 -25 231 -15 340 -25 b 760 76 533 -25 663 -18 b 867 354 811 126 867 215 z m 229 986 l 150 803 l 354 803 l 489 986 z m 553 986 l 474 803 l 678 803 l 814 986 z "},"Œ":{"ha":1678,"x_min":0,"x_max":0,"o":"m 806 0 l 1615 0 l 1615 257 l 1100 257 l 1100 376 l 1532 376 l 1532 606 l 1100 606 l 1100 715 l 1604 715 l 1604 972 l 806 972 l 806 897 b 518 999 746 957 661 999 b 193 876 417 999 294 981 b 56 482 124 804 56 679 b 193 90 56 308 110 174 b 518 -26 294 -11 424 -26 b 806 64 682 -26 758 21 z m 378 486 b 442 692 378 539 386 633 b 574 743 479 731 525 743 b 699 692 621 743 663 729 b 758 486 749 639 758 557 b 699 281 758 415 743 329 b 568 229 663 240 615 229 b 439 281 519 229 475 243 b 378 486 385 339 378 433 z "},"œ":{"ha":1410,"x_min":0,"x_max":0,"o":"m 1071 204 b 1033 161 1065 192 1056 174 b 968 147 1013 149 988 147 b 882 185 936 147 906 156 b 850 294 860 213 850 258 l 1368 294 l 1368 311 b 1265 628 1368 493 1307 585 b 982 731 1221 674 1133 731 b 703 613 814 731 739 658 b 432 731 669 661 599 731 b 147 631 304 731 211 693 b 42 353 61 549 42 444 b 143 68 42 208 90 119 b 422 -25 228 -15 340 -25 b 700 71 558 -25 639 8 b 972 -26 740 24 807 -26 b 1217 22 1051 -26 1153 -12 b 1357 204 1258 44 1329 97 z m 336 353 b 382 519 336 407 344 479 b 449 547 400 538 419 547 b 515 519 476 547 499 538 b 560 353 542 492 560 438 b 515 186 560 307 554 228 b 449 158 499 168 476 158 b 382 186 419 158 400 168 b 336 353 365 204 336 246 z m 851 433 b 888 528 853 463 867 506 b 964 557 910 551 938 557 b 1035 529 989 557 1015 551 b 1068 433 1054 508 1067 465 z "},"Ŕ":{"ha":1069,"x_min":0,"x_max":0,"o":"m 118 0 l 421 0 l 421 336 l 526 336 b 633 307 560 336 606 333 b 668 178 669 274 667 218 l 671 119 b 704 0 672 78 674 46 l 1014 0 b 979 143 983 53 981 92 l 976 222 b 938 374 975 276 974 325 b 839 439 915 403 881 428 l 839 446 b 926 496 875 456 904 475 b 990 671 978 547 990 610 b 907 893 990 749 974 831 b 667 972 831 964 728 972 l 118 972 z m 421 736 l 590 736 b 676 711 613 736 650 735 b 703 643 699 690 703 664 b 672 568 703 604 688 581 b 592 544 647 546 613 544 l 421 544 z m 499 1261 l 407 1064 l 619 1064 l 775 1261 z "},"ŕ":{"ha":678,"x_min":0,"x_max":0,"o":"m 657 721 b 610 725 640 724 626 725 b 465 694 564 725 513 719 b 369 606 438 679 400 653 l 369 706 l 90 706 l 90 0 l 382 0 l 382 261 b 433 451 382 328 385 401 b 581 504 451 469 496 504 b 657 497 603 504 633 501 z m 329 972 l 238 789 l 436 789 l 592 972 z "},"Ŗ":{"ha":1069,"x_min":0,"x_max":0,"o":"m 118 0 l 421 0 l 421 336 l 526 336 b 633 307 560 336 606 333 b 668 178 669 274 667 218 l 671 119 b 704 0 672 78 674 46 l 1014 0 b 979 143 983 53 981 92 l 976 222 b 938 374 975 276 974 325 b 839 439 915 403 881 428 l 839 446 b 926 496 875 456 904 475 b 990 671 978 547 990 610 b 907 893 990 749 974 831 b 667 972 831 964 728 972 l 118 972 z m 421 736 l 590 736 b 676 711 613 736 650 735 b 703 643 699 690 703 664 b 672 568 703 604 688 581 b 592 544 647 546 613 544 l 421 544 z m 444 -271 l 569 -271 l 569 -276 b 546 -353 569 -301 568 -329 b 444 -385 518 -382 472 -386 l 444 -489 b 614 -429 500 -487 569 -472 b 676 -231 672 -372 676 -292 l 676 -87 l 444 -87 z "},"ŗ":{"ha":678,"x_min":0,"x_max":0,"o":"m 657 721 b 610 725 640 724 626 725 b 465 694 564 725 513 719 b 369 606 438 679 400 653 l 369 706 l 90 706 l 90 0 l 382 0 l 382 261 b 433 451 382 328 385 401 b 581 504 451 469 496 504 b 657 497 603 504 633 501 z m 121 -257 l 246 -257 l 246 -262 b 222 -333 246 -287 239 -315 b 121 -365 194 -364 143 -367 l 121 -461 b 290 -404 215 -458 264 -428 b 353 -211 346 -353 353 -282 l 353 -87 l 121 -87 z "},"Ř":{"ha":1069,"x_min":0,"x_max":0,"o":"m 118 0 l 421 0 l 421 336 l 526 336 b 633 307 560 336 606 333 b 668 178 669 274 667 218 l 671 119 b 704 0 672 78 674 46 l 1014 0 b 979 143 983 53 981 92 l 976 222 b 938 374 975 276 974 325 b 839 439 915 403 881 428 l 839 446 b 926 496 875 456 904 475 b 990 671 978 547 990 610 b 907 893 990 749 974 831 b 667 972 831 964 728 972 l 118 972 z m 421 736 l 590 736 b 676 711 613 736 650 735 b 703 643 699 690 703 664 b 672 568 703 604 688 581 b 592 544 647 546 613 544 l 421 544 z m 535 1132 l 428 1247 l 206 1247 l 379 1064 l 690 1064 l 864 1247 l 642 1247 z "},"ř":{"ha":678,"x_min":0,"x_max":0,"o":"m 657 721 b 610 725 640 724 626 725 b 465 694 564 725 513 719 b 369 606 438 679 400 653 l 369 706 l 90 706 l 90 0 l 382 0 l 382 261 b 433 451 382 328 385 401 b 581 504 451 469 496 504 b 657 497 603 504 633 501 z m 322 850 l 215 972 l -7 972 l 167 789 l 478 789 l 651 972 l 429 972 z "},"Ś":{"ha":950,"x_min":0,"x_max":0,"o":"m 42 321 b 133 79 43 219 83 131 b 474 -31 229 -21 378 -31 b 817 76 563 -31 719 -22 b 908 313 868 129 908 222 b 833 501 908 407 867 468 b 607 604 768 567 672 590 l 513 625 b 372 671 440 640 396 647 b 353 718 356 686 353 704 b 386 775 353 742 368 764 b 469 792 407 788 444 792 b 564 761 522 792 550 776 b 586 694 579 744 586 718 l 872 694 b 772 914 868 794 821 872 b 469 997 683 990 544 997 b 171 915 382 997 264 988 b 57 681 124 878 57 807 b 132 497 57 601 81 543 b 372 394 167 465 235 422 l 469 375 b 583 336 501 368 557 354 b 619 267 610 318 619 296 b 583 197 619 233 604 211 b 497 176 557 179 526 176 b 379 215 468 176 414 178 b 346 321 358 238 343 279 z m 433 1261 l 342 1064 l 554 1064 l 710 1261 z "},"ś":{"ha":818,"x_min":0,"x_max":0,"o":"m 35 232 b 103 61 36 151 71 94 b 411 -26 175 -14 283 -26 b 689 35 561 -26 642 1 b 783 224 736 68 783 132 b 724 374 783 293 756 343 b 540 446 671 424 589 439 l 443 460 b 356 482 414 464 388 465 b 325 525 340 489 325 499 b 350 572 325 543 335 561 b 413 589 356 576 375 589 b 485 567 436 589 468 583 b 506 504 500 551 507 524 l 754 504 b 658 679 749 601 693 656 b 418 732 611 711 538 732 b 158 672 338 732 235 724 b 61 486 113 642 61 585 b 119 349 61 414 93 372 b 313 281 168 306 246 290 l 385 269 b 478 249 424 264 454 260 b 513 197 501 238 513 221 b 482 149 513 172 499 158 b 411 133 458 135 436 133 b 340 157 379 133 354 143 b 319 232 322 175 315 207 z m 406 972 l 314 789 l 513 789 l 668 972 z "},"Ŝ":{"ha":950,"x_min":0,"x_max":0,"o":"m 42 321 b 133 79 43 219 83 131 b 474 -31 229 -21 378 -31 b 817 76 563 -31 719 -22 b 908 313 868 129 908 222 b 833 501 908 407 867 468 b 607 604 768 567 672 590 l 513 625 b 372 671 440 640 396 647 b 353 718 356 686 353 704 b 386 775 353 742 368 764 b 469 792 407 788 444 792 b 564 761 522 792 550 776 b 586 694 579 744 586 718 l 872 694 b 772 914 868 794 821 872 b 469 997 683 990 544 997 b 171 915 382 997 264 988 b 57 681 124 878 57 807 b 132 497 57 601 81 543 b 372 394 167 465 235 422 l 469 375 b 583 336 501 368 557 354 b 619 267 610 318 619 296 b 583 197 619 233 604 211 b 497 176 557 179 526 176 b 379 215 468 176 414 178 b 346 321 358 238 343 279 z m 475 1179 l 582 1064 l 804 1064 l 631 1247 l 319 1247 l 146 1064 l 368 1064 z "},"ŝ":{"ha":818,"x_min":0,"x_max":0,"o":"m 35 232 b 103 61 36 151 71 94 b 411 -26 175 -14 283 -26 b 689 35 561 -26 642 1 b 783 224 736 68 783 132 b 724 374 783 293 756 343 b 540 446 671 424 589 439 l 443 460 b 356 482 414 464 388 465 b 325 525 340 489 325 499 b 350 572 325 543 335 561 b 413 589 356 576 375 589 b 485 567 436 589 468 583 b 506 504 500 551 507 524 l 754 504 b 658 679 749 601 693 656 b 418 732 611 711 538 732 b 158 672 338 732 235 724 b 61 486 113 642 61 585 b 119 349 61 414 93 372 b 313 281 168 306 246 290 l 385 269 b 478 249 424 264 454 260 b 513 197 501 238 513 221 b 482 149 513 172 499 158 b 411 133 458 135 436 133 b 340 157 379 133 354 143 b 319 232 322 175 315 207 z m 419 911 l 526 789 l 749 789 l 575 972 l 264 972 l 90 789 l 313 789 z "},"Ş":{"ha":950,"x_min":0,"x_max":0,"o":"m 42 321 b 133 79 43 219 83 131 b 474 -31 229 -21 378 -31 b 817 76 563 -31 719 -22 b 908 313 868 129 908 222 b 833 501 908 407 867 468 b 607 604 768 567 672 590 l 513 625 b 372 671 440 640 396 647 b 353 718 356 686 353 704 b 386 775 353 742 368 764 b 469 792 407 788 444 792 b 564 761 522 792 550 776 b 586 694 579 744 586 718 l 872 694 b 772 914 868 794 821 872 b 469 997 683 990 544 997 b 171 915 382 997 264 988 b 57 681 124 878 57 807 b 132 497 57 601 81 543 b 372 394 167 465 235 422 l 469 375 b 583 336 501 368 557 354 b 619 267 610 318 619 296 b 583 197 619 233 604 211 b 497 176 557 179 526 176 b 379 215 468 176 414 178 b 346 321 358 238 343 279 z m 304 -325 b 464 -347 336 -337 378 -347 b 606 -315 501 -347 561 -346 b 665 -197 629 -300 665 -264 b 607 -90 665 -151 647 -115 b 464 -62 590 -81 551 -62 b 393 -65 443 -62 419 -62 l 361 -158 l 381 -158 b 475 -164 447 -158 467 -162 b 507 -200 492 -168 507 -176 b 482 -235 507 -211 503 -226 b 425 -242 467 -242 436 -242 b 338 -228 397 -242 367 -236 z "},"ş":{"ha":818,"x_min":0,"x_max":0,"o":"m 35 232 b 103 61 36 151 71 94 b 411 -26 175 -14 283 -26 b 689 35 561 -26 642 1 b 783 224 736 68 783 132 b 724 374 783 293 756 343 b 540 446 671 424 589 439 l 443 460 b 356 482 414 464 388 465 b 325 525 340 489 325 499 b 350 572 325 543 335 561 b 413 589 356 576 375 589 b 485 567 436 589 468 583 b 506 504 500 551 507 524 l 754 504 b 658 679 749 601 693 656 b 418 732 611 711 538 732 b 158 672 338 732 235 724 b 61 486 113 642 61 585 b 119 349 61 414 93 372 b 313 281 168 306 246 290 l 385 269 b 478 249 424 264 454 260 b 513 197 501 238 513 221 b 482 149 513 172 499 158 b 411 133 458 135 436 133 b 340 157 379 133 354 143 b 319 232 322 175 315 207 z m 236 -325 b 396 -347 268 -337 310 -347 b 538 -315 433 -347 493 -346 b 597 -197 561 -300 597 -264 b 539 -90 597 -151 579 -115 b 396 -62 522 -81 483 -62 b 325 -65 375 -62 351 -62 l 293 -158 l 313 -158 b 407 -164 379 -158 399 -162 b 439 -200 424 -168 439 -176 b 414 -235 439 -211 435 -226 b 357 -242 399 -242 368 -242 b 269 -228 329 -242 299 -236 z "},"Š":{"ha":950,"x_min":0,"x_max":0,"o":"m 42 321 b 133 79 43 219 83 131 b 474 -31 229 -21 378 -31 b 817 76 563 -31 719 -22 b 908 313 868 129 908 222 b 833 501 908 407 867 468 b 607 604 768 567 672 590 l 513 625 b 372 671 440 640 396 647 b 353 718 356 686 353 704 b 386 775 353 742 368 764 b 469 792 407 788 444 792 b 564 761 522 792 550 776 b 586 694 579 744 586 718 l 872 694 b 772 914 868 794 821 872 b 469 997 683 990 544 997 b 171 915 382 997 264 988 b 57 681 124 878 57 807 b 132 497 57 601 81 543 b 372 394 167 465 235 422 l 469 375 b 583 336 501 368 557 354 b 619 267 610 318 619 296 b 583 197 619 233 604 211 b 497 176 557 179 526 176 b 379 215 468 176 414 178 b 346 321 358 238 343 279 z m 475 1132 l 368 1247 l 146 1247 l 319 1064 l 631 1064 l 804 1247 l 582 1247 z "},"š":{"ha":818,"x_min":0,"x_max":0,"o":"m 35 232 b 103 61 36 151 71 94 b 411 -26 175 -14 283 -26 b 689 35 561 -26 642 1 b 783 224 736 68 783 132 b 724 374 783 293 756 343 b 540 446 671 424 589 439 l 443 460 b 356 482 414 464 388 465 b 325 525 340 489 325 499 b 350 572 325 543 335 561 b 413 589 356 576 375 589 b 485 567 436 589 468 583 b 506 504 500 551 507 524 l 754 504 b 658 679 749 601 693 656 b 418 732 611 711 538 732 b 158 672 338 732 235 724 b 61 486 113 642 61 585 b 119 349 61 414 93 372 b 313 281 168 306 246 290 l 385 269 b 478 249 424 264 454 260 b 513 197 501 238 513 221 b 482 149 513 172 499 158 b 411 133 458 135 436 133 b 340 157 379 133 354 143 b 319 232 322 175 315 207 z m 419 850 l 313 972 l 90 972 l 264 789 l 575 789 l 749 972 l 526 972 z "},"Ţ":{"ha":881,"x_min":0,"x_max":0,"o":"m 289 706 l 289 0 l 592 0 l 592 706 l 867 706 l 867 972 l 14 972 l 14 706 z m 250 -325 b 410 -347 282 -337 324 -347 b 551 -315 447 -347 507 -346 b 611 -197 575 -300 611 -264 b 553 -90 611 -151 593 -115 b 410 -62 536 -81 497 -62 b 339 -65 389 -62 365 -62 l 307 -158 l 326 -158 b 421 -164 393 -158 413 -162 b 453 -200 438 -168 453 -176 b 428 -235 453 -211 449 -226 b 371 -242 413 -242 382 -242 b 283 -228 343 -242 313 -236 z "},"ţ":{"ha":613,"x_min":0,"x_max":0,"o":"m 7 514 l 135 514 l 135 211 b 189 38 135 161 142 85 b 397 -21 242 -15 338 -21 b 576 -1 458 -21 514 -15 l 576 194 b 511 185 556 189 532 185 b 446 204 474 185 456 194 b 426 281 426 225 426 260 l 426 514 l 576 514 l 576 706 l 426 706 l 426 914 l 135 914 l 135 706 l 7 706 z m 190 -325 b 350 -347 222 -337 264 -347 b 492 -315 388 -347 447 -346 b 551 -197 515 -300 551 -264 b 493 -90 551 -151 533 -115 b 350 -62 476 -81 438 -62 b 279 -65 329 -62 306 -62 l 247 -158 l 267 -158 b 361 -164 333 -158 353 -162 b 393 -200 378 -168 393 -176 b 368 -235 393 -211 389 -226 b 311 -242 353 -242 322 -242 b 224 -228 283 -242 253 -236 z "},"Ť":{"ha":881,"x_min":0,"x_max":0,"o":"m 289 706 l 289 0 l 592 0 l 592 706 l 867 706 l 867 972 l 14 972 l 14 706 z m 440 1132 l 333 1247 l 111 1247 l 285 1064 l 596 1064 l 769 1247 l 547 1247 z "},"ť":{"ha":681,"x_min":0,"x_max":0,"o":"m 7 514 l 135 514 l 135 211 b 189 38 135 161 142 85 b 397 -21 242 -15 338 -21 b 576 -1 458 -21 514 -15 l 576 194 b 511 185 556 189 532 185 b 446 204 474 185 456 194 b 426 281 426 225 426 260 l 426 514 l 576 514 l 576 706 l 426 706 l 426 914 l 135 914 l 135 706 l 7 706 z m 494 989 l 614 989 l 614 983 b 589 907 614 958 607 925 b 494 879 568 885 528 881 l 494 778 b 667 842 539 779 618 790 b 721 1026 717 896 721 974 l 721 1194 l 494 1194 z "},"Ũ":{"ha":1136,"x_min":0,"x_max":0,"o":"m 1018 972 l 714 972 l 714 378 b 676 256 714 339 708 289 b 568 218 643 221 597 218 b 460 256 539 218 493 221 b 422 378 428 289 422 339 l 422 972 l 118 972 l 118 365 b 213 88 118 267 129 172 b 569 -26 300 -1 429 -26 b 924 88 711 -26 836 -1 b 1018 364 1011 176 1018 271 z m 724 1251 b 707 1207 722 1239 717 1218 b 669 1193 699 1197 683 1193 b 585 1221 644 1193 618 1206 l 549 1238 b 446 1264 518 1251 492 1264 b 322 1208 394 1264 357 1249 b 265 1079 292 1172 272 1121 l 414 1079 b 431 1119 415 1094 422 1110 b 471 1135 443 1132 458 1135 b 549 1113 500 1135 524 1125 l 590 1093 b 700 1064 621 1079 654 1064 b 806 1106 739 1064 774 1072 b 871 1251 839 1139 864 1199 z "},"ũ":{"ha":957,"x_min":0,"x_max":0,"o":"m 596 0 l 867 0 l 867 706 l 575 706 l 575 331 b 546 224 575 304 572 258 b 475 189 528 199 507 189 b 406 219 450 189 424 194 b 382 326 394 235 382 264 l 382 706 l 90 706 l 90 283 b 164 43 90 225 92 114 b 349 -19 218 -10 289 -19 b 589 78 422 -19 513 -4 l 596 78 z m 633 976 b 617 932 632 964 626 943 b 579 918 608 922 593 918 b 494 946 554 918 528 931 l 458 963 b 353 989 429 976 397 989 b 232 933 303 989 265 974 b 175 804 201 897 182 846 l 324 804 b 340 844 325 819 332 835 b 381 860 353 857 368 860 b 458 838 410 860 433 850 l 500 818 b 611 789 531 804 558 789 b 717 831 653 789 686 799 b 781 976 749 864 774 924 z "},"Ū":{"ha":1136,"x_min":0,"x_max":0,"o":"m 1018 972 l 714 972 l 714 378 b 676 256 714 339 708 289 b 568 218 643 221 597 218 b 460 256 539 218 493 221 b 422 378 428 289 422 339 l 422 972 l 118 972 l 118 365 b 213 88 118 267 129 172 b 569 -26 300 -1 429 -26 b 924 88 711 -26 836 -1 b 1018 364 1011 176 1018 271 z m 286 1082 l 850 1082 l 850 1215 l 286 1215 z "},"ū":{"ha":957,"x_min":0,"x_max":0,"o":"m 596 0 l 867 0 l 867 706 l 575 706 l 575 331 b 546 224 575 304 572 258 b 475 189 528 199 507 189 b 406 219 450 189 424 194 b 382 326 394 235 382 264 l 382 706 l 90 706 l 90 283 b 164 43 90 225 92 114 b 349 -19 218 -10 289 -19 b 589 78 422 -19 513 -4 l 596 78 z m 196 819 l 760 819 l 760 953 l 196 953 z "},"Ŭ":{"ha":1136,"x_min":0,"x_max":0,"o":"m 1018 972 l 714 972 l 714 378 b 676 256 714 339 708 289 b 568 218 643 221 597 218 b 460 256 539 218 493 221 b 422 378 428 289 422 339 l 422 972 l 118 972 l 118 365 b 213 88 118 267 129 172 b 569 -26 300 -1 429 -26 b 924 88 711 -26 836 -1 b 1018 364 1011 176 1018 271 z m 674 1250 b 649 1189 675 1219 660 1199 b 568 1165 624 1167 588 1165 b 488 1189 553 1165 513 1167 b 463 1250 472 1203 461 1224 l 293 1250 b 349 1126 297 1192 324 1151 b 568 1056 414 1061 513 1056 b 788 1126 624 1056 722 1061 b 843 1250 813 1151 839 1192 z "},"ŭ":{"ha":957,"x_min":0,"x_max":0,"o":"m 596 0 l 867 0 l 867 706 l 575 706 l 575 331 b 546 224 575 304 572 258 b 475 189 528 199 507 189 b 406 219 450 189 424 194 b 382 326 394 235 382 264 l 382 706 l 90 706 l 90 283 b 164 43 90 225 92 114 b 349 -19 218 -10 289 -19 b 589 78 422 -19 513 -4 l 596 78 z m 583 975 b 558 914 585 944 569 924 b 478 890 533 892 497 890 b 397 914 463 890 422 892 b 372 975 382 928 371 949 l 203 975 b 258 851 207 917 233 876 b 478 781 324 786 422 781 b 697 851 533 781 632 786 b 753 975 722 876 749 917 z "},"Ů":{"ha":1136,"x_min":0,"x_max":0,"o":"m 1018 972 l 714 972 l 714 378 b 676 256 714 339 708 289 b 568 218 643 221 597 218 b 460 256 539 218 493 221 b 422 378 428 289 422 339 l 422 972 l 118 972 l 118 365 b 213 88 118 267 129 172 b 569 -26 300 -1 429 -26 b 924 88 711 -26 836 -1 b 1018 364 1011 176 1018 271 z m 414 1211 b 568 1057 414 1126 479 1057 b 722 1211 657 1057 722 1126 b 568 1367 722 1297 656 1367 b 414 1211 481 1367 414 1297 z m 504 1211 b 568 1276 504 1253 540 1276 b 632 1211 596 1276 632 1253 b 568 1147 632 1175 604 1147 b 504 1211 532 1147 504 1175 z "},"ů":{"ha":957,"x_min":0,"x_max":0,"o":"m 596 0 l 867 0 l 867 706 l 575 706 l 575 331 b 546 224 575 304 572 258 b 475 189 528 199 507 189 b 406 219 450 189 424 194 b 382 326 394 235 382 264 l 382 706 l 90 706 l 90 283 b 164 43 90 225 92 114 b 349 -19 218 -10 289 -19 b 589 78 422 -19 513 -4 l 596 78 z m 331 931 b 478 783 331 849 396 783 b 625 931 560 783 625 849 b 478 1078 625 1013 560 1078 b 331 931 396 1078 331 1013 z m 417 931 b 478 992 417 964 444 992 b 539 931 511 992 539 964 b 478 869 539 897 511 869 b 417 931 444 869 417 897 z "},"Ű":{"ha":1136,"x_min":0,"x_max":0,"o":"m 1018 972 l 714 972 l 714 378 b 676 256 714 339 708 289 b 568 218 643 221 597 218 b 460 256 539 218 493 221 b 422 378 428 289 422 339 l 422 972 l 118 972 l 118 365 b 213 88 118 267 129 172 b 569 -26 300 -1 429 -26 b 924 88 711 -26 836 -1 b 1018 364 1011 176 1018 271 z m 343 1261 l 264 1078 l 468 1078 l 603 1261 z m 667 1261 l 588 1078 l 792 1078 l 928 1261 z "},"ű":{"ha":957,"x_min":0,"x_max":0,"o":"m 596 0 l 867 0 l 867 706 l 575 706 l 575 331 b 546 224 575 304 572 258 b 475 189 528 199 507 189 b 406 219 450 189 424 194 b 382 326 394 235 382 264 l 382 706 l 90 706 l 90 283 b 164 43 90 225 92 114 b 349 -19 218 -10 289 -19 b 589 78 422 -19 513 -4 l 596 78 z m 253 986 l 174 803 l 378 803 l 513 986 z m 576 986 l 497 803 l 701 803 l 838 986 z "},"Ų":{"ha":1136,"x_min":0,"x_max":0,"o":"m 799 -172 b 790 -231 803 -192 800 -215 b 743 -257 782 -244 768 -257 b 696 -239 726 -257 707 -251 b 676 -181 682 -225 676 -199 b 733 -49 676 -137 696 -86 b 832 19 760 -22 794 -3 b 924 88 857 35 893 57 b 1018 364 1011 175 1018 272 l 1018 972 l 714 972 l 714 378 b 676 256 714 339 708 289 b 568 218 643 221 597 218 b 460 256 539 218 493 221 b 422 378 428 289 422 339 l 422 972 l 118 972 l 118 365 b 244 58 118 257 138 143 b 547 -28 332 -12 456 -28 b 599 -26 565 -28 583 -28 b 518 -192 558 -60 518 -114 b 574 -319 518 -246 536 -287 b 731 -367 622 -361 688 -367 b 897 -304 778 -367 846 -362 b 947 -172 922 -275 946 -229 z "},"ų":{"ha":957,"x_min":0,"x_max":0,"o":"m 596 0 l 721 0 b 610 -194 664 -44 610 -110 b 665 -319 610 -261 642 -300 b 822 -367 714 -361 779 -367 b 989 -304 869 -367 938 -362 b 1039 -172 1014 -275 1038 -229 l 892 -172 b 882 -231 893 -189 892 -214 b 835 -257 876 -240 863 -257 b 788 -239 818 -257 799 -251 b 768 -181 774 -225 768 -199 b 867 0 768 -122 801 -51 l 867 706 l 575 706 l 575 331 b 546 224 575 304 572 258 b 475 189 528 199 507 189 b 406 219 450 189 424 194 b 382 326 394 235 382 264 l 382 706 l 90 706 l 90 283 b 164 43 90 225 92 114 b 349 -19 218 -10 289 -19 b 589 78 422 -19 513 -4 l 596 78 z "},"Ÿ":{"ha":951,"x_min":0,"x_max":0,"o":"m 478 578 l 313 972 l -14 972 l 324 340 l 324 0 l 626 0 l 626 340 l 965 972 l 639 972 z m 169 1082 l 408 1082 l 408 1261 l 169 1261 z m 543 1082 l 782 1082 l 782 1261 l 543 1261 z "},"Ź":{"ha":967,"x_min":0,"x_max":0,"o":"m 494 706 l 56 263 l 56 0 l 911 0 l 911 267 l 401 267 l 874 757 l 874 972 l 75 972 l 75 706 z m 447 1261 l 356 1064 l 568 1064 l 724 1261 z "},"ź":{"ha":753,"x_min":0,"x_max":0,"o":"m 65 514 l 407 514 l 35 194 l 35 0 l 718 0 l 718 193 l 333 192 l 700 511 l 700 706 l 65 706 z m 357 972 l 265 789 l 464 789 l 619 972 z "},"Ż":{"ha":967,"x_min":0,"x_max":0,"o":"m 494 706 l 56 263 l 56 0 l 911 0 l 911 267 l 401 267 l 874 757 l 874 972 l 75 972 l 75 706 z m 364 1082 l 603 1082 l 603 1261 l 364 1261 z "},"ż":{"ha":753,"x_min":0,"x_max":0,"o":"m 65 514 l 407 514 l 35 194 l 35 0 l 718 0 l 718 193 l 333 192 l 700 511 l 700 706 l 65 706 z m 278 807 l 517 807 l 517 986 l 278 986 z "},"Ž":{"ha":967,"x_min":0,"x_max":0,"o":"m 494 706 l 56 263 l 56 0 l 911 0 l 911 267 l 401 267 l 874 757 l 874 972 l 75 972 l 75 706 z m 483 1132 l 376 1247 l 154 1247 l 328 1064 l 639 1064 l 813 1247 l 590 1247 z "},"ž":{"ha":753,"x_min":0,"x_max":0,"o":"m 65 514 l 407 514 l 35 194 l 35 0 l 718 0 l 718 193 l 333 192 l 700 511 l 700 706 l 65 706 z m 392 850 l 285 972 l 63 972 l 236 789 l 547 789 l 721 972 l 499 972 z "},"ƒ":{"ha":1000,"x_min":0,"x_max":0,"o":"m 819 706 l 656 706 l 657 711 b 685 769 661 731 667 751 b 756 793 704 789 731 793 b 836 782 774 793 803 792 l 874 958 b 703 972 824 967 761 972 b 449 890 624 972 518 960 b 364 717 399 840 376 769 l 361 706 l 232 706 l 192 514 l 321 514 l 213 0 b 174 -71 207 -24 200 -53 b 107 -87 153 -86 129 -87 b 53 -81 88 -87 74 -87 l 17 -253 b 160 -267 74 -264 111 -267 b 419 -192 249 -267 344 -265 b 504 -11 469 -142 490 -74 l 615 514 l 779 514 z "},"Ɵ":{"ha":1136,"x_min":0,"x_max":0,"o":"m 390 590 b 444 715 396 636 415 685 b 569 764 479 751 522 764 b 694 714 614 764 658 753 b 744 590 721 685 742 640 z m 746 390 b 690 257 742 347 722 290 b 563 208 668 233 629 208 b 431 261 522 208 469 217 b 385 390 401 294 386 344 z m 56 483 b 181 115 56 276 136 163 b 572 -26 294 -7 444 -26 b 954 113 699 -26 842 -8 b 1081 492 1024 188 1081 307 b 951 861 1081 601 1060 749 b 565 999 839 978 693 999 b 193 863 451 999 310 983 b 56 483 121 788 56 663 z "},"Ǐ":{"ha":539,"x_min":0,"x_max":0,"o":"m 118 972 l 118 0 l 421 0 l 421 972 z m 268 1132 l 161 1247 l -61 1247 l 113 1064 l 424 1064 l 597 1247 l 375 1247 z "},"ǐ":{"ha":472,"x_min":0,"x_max":0,"o":"m 90 706 l 90 0 l 382 0 l 382 706 z m 232 850 l 125 972 l -97 972 l 76 789 l 388 789 l 561 972 l 339 972 z "},"Ǧ":{"ha":1111,"x_min":0,"x_max":0,"o":"m 624 536 l 624 322 l 757 322 b 699 244 753 313 735 274 b 588 210 663 217 626 210 b 458 254 542 210 497 217 b 383 486 400 308 383 410 b 447 707 383 564 400 657 b 576 758 472 733 513 758 b 690 717 603 758 654 754 b 726 636 708 699 722 669 l 1039 636 b 896 904 1024 760 960 854 b 563 996 810 972 675 996 b 203 858 446 996 314 971 b 56 461 138 792 56 667 b 196 78 56 290 111 157 b 522 -29 297 -17 424 -29 b 808 82 679 -29 754 15 l 826 0 l 1049 0 l 1049 536 z m 556 1132 l 449 1247 l 226 1247 l 400 1064 l 711 1064 l 885 1247 l 663 1247 z "},"ǧ":{"ha":950,"x_min":0,"x_max":0,"o":"m 106 -35 b 201 -210 108 -78 121 -154 b 460 -269 276 -262 382 -269 b 763 -179 556 -269 674 -264 b 860 106 846 -99 860 7 l 860 706 l 586 706 l 586 640 l 579 640 b 364 725 519 706 438 725 b 138 631 275 725 199 697 b 42 356 92 582 42 497 b 132 106 42 224 89 147 b 363 28 203 36 290 28 b 561 89 435 28 500 38 l 568 89 l 568 11 b 540 -72 568 -15 565 -47 b 463 -99 526 -85 503 -99 b 399 -82 439 -99 414 -93 b 375 -35 390 -76 375 -61 z m 343 371 b 385 501 343 396 346 463 b 461 533 404 522 432 533 b 539 500 493 533 519 519 b 579 372 560 478 579 440 b 542 243 579 351 576 283 b 458 208 525 224 499 208 b 376 249 425 208 397 221 b 343 371 347 286 343 333 z m 475 850 l 368 972 l 146 972 l 319 789 l 631 789 l 804 972 l 582 972 z "},"Ș":{"ha":950,"x_min":0,"x_max":0,"o":"m 42 321 b 133 79 43 219 83 131 b 474 -31 229 -21 378 -31 b 817 76 563 -31 719 -22 b 908 313 868 129 908 222 b 833 501 908 407 867 468 b 607 604 768 567 672 590 l 513 625 b 372 671 440 640 396 647 b 353 718 356 686 353 704 b 386 775 353 742 368 764 b 469 792 407 788 444 792 b 564 761 522 792 550 776 b 586 694 579 744 586 718 l 872 694 b 772 914 868 794 821 872 b 469 997 683 990 544 997 b 171 915 382 997 264 988 b 57 681 124 878 57 807 b 132 497 57 601 81 543 b 372 394 167 465 235 422 l 469 375 b 583 336 501 368 557 354 b 619 267 610 318 619 296 b 583 197 619 233 604 211 b 497 176 557 179 526 176 b 379 215 468 176 414 178 b 346 321 358 238 343 279 z m 375 -271 l 500 -271 l 500 -276 b 476 -353 500 -301 499 -329 b 375 -385 449 -382 403 -386 l 375 -489 b 544 -429 431 -487 500 -472 b 607 -231 603 -372 607 -292 l 607 -87 l 375 -87 z "},"ș":{"ha":818,"x_min":0,"x_max":0,"o":"m 35 232 b 103 61 36 151 71 94 b 411 -26 175 -14 283 -26 b 689 35 561 -26 642 1 b 783 224 736 68 783 132 b 724 374 783 293 756 343 b 540 446 671 424 589 439 l 443 460 b 356 482 414 464 388 465 b 325 525 340 489 325 499 b 350 572 325 543 335 561 b 413 589 356 576 375 589 b 485 567 436 589 468 583 b 506 504 500 551 507 524 l 754 504 b 658 679 749 601 693 656 b 418 732 611 711 538 732 b 158 672 338 732 235 724 b 61 486 113 642 61 585 b 119 349 61 414 93 372 b 313 281 168 306 246 290 l 385 269 b 478 249 424 264 454 260 b 513 197 501 238 513 221 b 482 149 513 172 499 158 b 411 133 458 135 436 133 b 340 157 379 133 354 143 b 319 232 322 175 315 207 z m 293 -257 l 418 -257 l 418 -262 b 394 -333 418 -287 411 -315 b 293 -365 367 -364 315 -367 l 293 -461 b 463 -404 388 -458 436 -428 b 525 -211 518 -353 525 -282 l 525 -87 l 293 -87 z "},"Ț":{"ha":881,"x_min":0,"x_max":0,"o":"m 289 706 l 289 0 l 592 0 l 592 706 l 867 706 l 867 972 l 14 972 l 14 706 z m 324 -271 l 449 -271 l 449 -276 b 425 -353 449 -301 447 -329 b 324 -385 397 -382 351 -386 l 324 -489 b 493 -429 379 -487 449 -472 b 556 -231 551 -372 556 -292 l 556 -87 l 324 -87 z "},"ț":{"ha":613,"x_min":0,"x_max":0,"o":"m 7 514 l 135 514 l 135 211 b 189 38 135 161 142 85 b 397 -21 242 -15 338 -21 b 576 -1 458 -21 514 -15 l 576 194 b 511 185 556 189 532 185 b 446 204 474 185 456 194 b 426 281 426 225 426 260 l 426 514 l 576 514 l 576 706 l 426 706 l 426 914 l 135 914 l 135 706 l 7 706 z m 278 -257 l 403 -257 l 403 -262 b 379 -333 403 -287 396 -315 b 278 -365 351 -364 300 -367 l 278 -461 b 447 -404 372 -458 421 -428 b 510 -211 503 -353 510 -282 l 510 -87 l 278 -87 z "},"Ȩ":{"ha":999,"x_min":0,"x_max":0,"o":"m 421 606 l 421 715 l 925 715 l 925 972 l 118 972 l 118 0 l 936 0 l 936 257 l 421 257 l 421 376 l 853 376 l 853 606 z m 374 -325 b 533 -347 406 -337 447 -347 b 675 -315 571 -347 631 -346 b 735 -197 699 -300 735 -264 b 676 -90 735 -151 717 -115 b 533 -62 660 -81 621 -62 b 463 -65 513 -62 489 -62 l 431 -158 l 450 -158 b 544 -164 517 -158 536 -162 b 576 -200 561 -168 576 -176 b 551 -235 576 -211 572 -226 b 494 -242 536 -242 506 -242 b 407 -228 467 -242 436 -236 z "},"ȩ":{"ha":900,"x_min":0,"x_max":0,"o":"m 561 204 b 525 161 557 190 547 174 b 456 147 506 150 476 147 b 367 188 413 147 385 164 b 340 294 349 213 339 257 l 858 294 l 858 311 b 761 626 858 394 857 528 b 453 731 707 682 614 731 b 147 617 344 731 233 707 b 42 332 81 547 42 444 b 138 72 42 214 83 126 b 450 -25 225 -15 340 -25 b 707 28 524 -25 618 -24 b 847 204 790 76 828 144 z m 342 433 b 376 526 343 463 354 503 b 456 557 397 550 426 557 b 528 528 479 557 507 551 b 558 433 547 507 558 464 z m 278 -325 b 438 -347 310 -337 351 -347 b 579 -315 475 -347 535 -346 b 639 -197 603 -300 639 -264 b 581 -90 639 -151 621 -115 b 438 -62 564 -81 525 -62 b 367 -65 417 -62 393 -62 l 335 -158 l 354 -158 b 449 -164 421 -158 440 -162 b 481 -200 465 -168 481 -176 b 456 -235 481 -211 476 -226 b 399 -242 440 -242 410 -242 b 311 -228 371 -242 340 -236 z "},"ȷ":{"ha":483,"x_min":0,"x_max":0,"o":"m 100 706 l 100 40 b 79 -36 100 14 99 -17 b 17 -54 61 -54 31 -54 b -28 -50 1 -54 -12 -53 l -28 -247 b 128 -261 6 -254 54 -261 b 332 -199 182 -261 274 -257 b 393 1 389 -142 393 -64 l 393 706 z "},"ɵ":{"ha":908,"x_min":0,"x_max":0,"o":"m 339 431 b 372 524 342 465 356 503 b 457 561 390 546 418 561 b 542 524 485 561 518 556 b 569 431 557 503 568 463 z m 572 288 b 536 182 571 256 558 208 b 449 144 518 161 485 144 b 367 182 414 144 385 160 b 336 288 346 208 336 256 z m 867 349 b 761 629 867 501 803 589 b 457 731 667 719 542 731 b 147 618 358 731 239 714 b 42 333 89 557 42 461 b 146 61 42 196 94 108 b 439 -25 229 -14 343 -25 b 760 76 543 -25 665 -14 b 867 349 811 126 867 211 z "},"ʼ":{"ha":421,"x_min":0,"x_max":0,"o":"m 189 767 l 308 767 l 308 761 b 283 685 308 736 301 703 b 189 657 263 663 222 658 l 189 556 b 361 619 233 557 313 568 b 415 804 411 674 415 751 l 415 972 l 189 972 z "},"ˆ":{"ha":797,"x_min":0,"x_max":0,"o":"m 399 911 l 506 789 l 728 789 l 554 972 l 243 972 l 69 789 l 292 789 z "},"ˇ":{"ha":797,"x_min":0,"x_max":0,"o":"m 399 850 l 292 972 l 69 972 l 243 789 l 554 789 l 728 972 l 506 972 z "},"˘":{"ha":689,"x_min":0,"x_max":0,"o":"m 450 975 b 425 914 451 944 436 924 b 344 890 400 892 364 890 b 264 914 329 890 289 892 b 239 975 249 928 238 949 l 69 975 b 125 851 74 917 100 876 b 344 781 190 786 289 781 b 564 851 400 781 499 786 b 619 975 589 876 615 917 z "},"˙":{"ha":378,"x_min":0,"x_max":0,"o":"m 69 807 l 308 807 l 308 986 l 69 986 z "},"˚":{"ha":433,"x_min":0,"x_max":0,"o":"m 69 931 b 217 783 69 849 135 783 b 364 931 299 783 364 849 b 217 1078 364 1013 299 1078 b 69 931 135 1078 69 1013 z m 156 931 b 217 992 156 964 183 992 b 278 931 250 992 278 964 b 217 869 278 897 250 869 b 156 931 183 869 156 897 z "},"˛":{"ha":567,"x_min":0,"x_max":0,"o":"m 215 0 b 104 -194 169 -36 104 -104 b 160 -319 104 -261 138 -300 b 317 -367 208 -361 274 -367 b 483 -304 364 -367 432 -362 b 533 -172 508 -275 532 -229 l 385 -172 b 376 -231 389 -192 386 -215 b 329 -257 368 -244 354 -257 b 282 -239 313 -257 293 -251 b 263 -181 268 -225 263 -199 b 361 0 263 -122 296 -51 z "},"˜":{"ha":744,"x_min":0,"x_max":0,"o":"m 528 976 b 511 932 526 964 521 943 b 474 918 503 922 488 918 b 389 946 449 918 422 931 l 353 963 b 247 989 324 976 292 989 b 126 933 197 989 160 974 b 69 804 96 897 76 846 l 218 804 b 235 844 219 819 226 835 b 275 860 247 857 263 860 b 353 838 304 860 328 850 l 394 818 b 506 789 425 804 453 789 b 611 831 547 789 581 799 b 675 976 643 864 668 924 z "},"˝":{"ha":789,"x_min":0,"x_max":0,"o":"m 169 986 l 90 803 l 294 803 l 429 986 z m 493 986 l 414 803 l 618 803 l 754 986 z "},"́":{"ha":3,"x_min":0,"x_max":0,"o":"m -442 972 l -533 789 l -335 789 l -179 972 z "},"̓":{"ha":421,"x_min":0,"x_max":0,"o":"m 189 767 l 308 767 l 308 761 b 283 685 308 736 301 703 b 189 657 263 663 222 658 l 189 556 b 361 619 233 557 313 568 b 415 804 411 674 415 751 l 415 972 l 189 972 z "},"̕":{"ha":421,"x_min":0,"x_max":0,"o":"m 189 767 l 308 767 l 308 761 b 283 685 308 736 301 703 b 189 657 263 663 222 658 l 189 556 b 361 619 233 557 313 568 b 415 804 411 674 415 751 l 415 972 l 189 972 z "},"̦":{"ha":426,"x_min":0,"x_max":0,"o":"m 97 -257 l 222 -257 l 222 -262 b 199 -333 222 -287 215 -315 b 97 -365 171 -364 119 -367 l 97 -461 b 267 -404 192 -458 240 -428 b 329 -211 322 -353 329 -282 l 329 -87 l 97 -87 z "},"·":{"ha":490,"x_min":0,"x_max":0,"o":"m 97 367 l 393 367 l 393 653 l 97 653 z "},"Δ":{"ha":1079,"x_min":0,"x_max":0,"o":"m 1093 0 l 629 972 l 446 972 l -14 0 z m 288 200 l 494 651 l 700 200 z "},"∆":{"ha":1079,"x_min":0,"x_max":0,"o":"m 1093 0 l 629 972 l 446 972 l -14 0 z m 288 200 l 494 651 l 700 200 z "},"Ω":{"ha":1058,"x_min":0,"x_max":0,"o":"m 610 0 l 1026 0 l 1026 231 l 799 231 l 799 263 b 947 339 849 274 907 300 b 1038 582 1001 392 1038 479 b 914 878 1038 726 975 822 b 528 1001 794 988 629 1001 b 146 876 401 1001 256 978 b 21 572 71 807 21 707 b 100 347 21 493 38 414 b 260 263 151 292 210 269 l 260 231 l 32 231 l 32 0 l 449 0 l 449 394 b 350 450 389 407 357 442 b 310 572 325 479 310 522 b 371 722 310 628 333 686 b 533 779 406 756 463 779 b 693 724 594 779 654 761 b 749 578 739 679 749 621 b 706 451 749 538 742 493 b 610 394 685 428 653 404 z "},"Ω":{"ha":1058,"x_min":0,"x_max":0,"o":"m 610 0 l 1026 0 l 1026 231 l 799 231 l 799 263 b 947 339 849 274 907 300 b 1038 582 1001 392 1038 479 b 914 878 1038 726 975 822 b 528 1001 794 988 629 1001 b 146 876 401 1001 256 978 b 21 572 71 807 21 707 b 100 347 21 493 38 414 b 260 263 151 292 210 269 l 260 231 l 32 231 l 32 0 l 449 0 l 449 394 b 350 450 389 407 357 442 b 310 572 325 479 310 522 b 371 722 310 628 333 686 b 533 779 406 756 463 779 b 693 724 594 779 654 761 b 749 578 739 679 749 621 b 706 451 749 538 742 493 b 610 394 685 428 653 404 z "},"π":{"ha":979,"x_min":0,"x_max":0,"o":"m 131 0 l 408 0 l 408 522 l 583 522 l 583 189 b 631 43 583 150 585 89 b 810 -6 678 -3 746 -6 b 939 3 854 -6 886 -6 l 939 169 l 925 169 b 876 182 911 169 889 169 b 861 236 863 196 861 219 l 861 522 l 958 522 l 958 706 l 164 706 b 76 699 135 706 106 704 b 14 674 53 693 33 686 l 14 496 b 63 514 29 503 47 510 b 131 522 85 521 107 524 z "},"Ё":{"ha":1019,"x_min":0,"x_max":0,"o":"m 422 607 l 422 715 l 944 715 l 944 972 l 118 972 l 118 0 l 957 0 l 957 257 l 422 257 l 422 378 l 874 378 l 874 607 z m 243 1074 l 474 1074 l 474 1238 l 243 1238 z m 601 1074 l 833 1074 l 833 1238 l 601 1238 z "},"Ђ":{"ha":1200,"x_min":0,"x_max":0,"o":"m 7 972 l 7 711 l 282 711 l 282 0 l 585 0 l 585 353 b 717 364 676 363 701 364 b 821 346 744 364 794 361 b 863 271 857 326 863 296 b 835 207 863 253 860 228 b 753 183 808 185 772 183 b 668 194 725 183 693 189 l 668 -1 b 833 -28 731 -25 775 -28 b 1094 58 913 -28 1014 -25 b 1172 275 1158 124 1172 204 b 1046 525 1172 361 1150 458 b 779 585 1001 553 924 585 b 585 569 715 585 644 578 l 585 711 l 860 711 l 860 972 z "},"Ѓ":{"ha":829,"x_min":0,"x_max":0,"o":"m 421 706 l 808 706 l 808 972 l 118 972 l 118 0 l 421 0 z m 433 1261 l 342 1064 l 554 1064 l 710 1261 z "},"Є":{"ha":1089,"x_min":0,"x_max":0,"o":"m 1056 640 b 924 901 1046 757 990 849 b 585 993 818 986 660 993 b 199 857 469 993 314 972 b 56 453 129 789 56 664 b 183 90 56 260 119 151 b 549 -28 286 -10 422 -28 b 911 60 656 -28 803 -19 b 1061 311 958 94 1039 172 l 757 311 b 707 229 754 301 742 260 b 572 188 665 193 610 188 b 429 236 539 188 474 190 b 379 389 393 274 376 338 l 683 389 l 683 585 l 379 585 b 433 714 383 629 403 682 b 574 765 474 756 529 765 b 697 731 610 765 658 761 b 750 640 721 713 743 682 z "},"Ѕ":{"ha":950,"x_min":0,"x_max":0,"o":"m 42 321 b 133 79 43 219 83 131 b 474 -31 229 -21 378 -31 b 817 76 563 -31 719 -22 b 908 313 868 129 908 222 b 833 501 908 407 867 468 b 607 604 768 567 672 590 l 513 625 b 372 671 440 640 396 647 b 353 718 356 686 353 704 b 386 775 353 742 368 764 b 469 792 407 788 444 792 b 564 761 522 792 550 776 b 586 694 579 744 586 718 l 872 694 b 772 914 868 794 821 872 b 469 997 683 990 544 997 b 171 915 382 997 264 988 b 57 681 124 878 57 807 b 132 497 57 601 81 543 b 372 394 167 465 235 422 l 469 375 b 583 336 501 368 557 354 b 619 267 610 318 619 296 b 583 197 619 233 604 211 b 497 176 557 179 526 176 b 379 215 468 176 414 178 b 346 321 358 238 343 279 z "},"І":{"ha":539,"x_min":0,"x_max":0,"o":"m 118 972 l 118 0 l 421 0 l 421 972 z "},"Ї":{"ha":539,"x_min":0,"x_max":0,"o":"m 118 972 l 118 0 l 421 0 l 421 972 z m 18 1082 l 231 1082 l 231 1247 l 18 1247 z m 310 1082 l 521 1082 l 521 1247 l 310 1247 z "},"Ј":{"ha":900,"x_min":0,"x_max":0,"o":"m 28 383 l 28 364 b 121 65 28 279 31 156 b 408 -28 201 -17 314 -28 b 685 60 490 -28 603 -19 b 782 361 772 144 782 261 l 782 972 l 479 972 l 479 317 b 461 242 479 292 478 264 b 406 215 447 222 429 215 b 344 243 376 215 357 228 b 325 326 326 267 325 297 l 325 383 z "},"Љ":{"ha":1594,"x_min":0,"x_max":0,"o":"m 1003 972 l 211 972 l 204 476 b 160 272 203 393 201 310 b 63 244 133 247 93 244 b 0 251 38 244 18 247 l 0 1 b 151 -14 56 -10 100 -14 b 404 69 224 -14 329 -10 b 488 385 488 158 486 299 l 494 706 l 708 706 l 708 0 l 1213 0 b 1503 83 1285 0 1419 3 b 1588 319 1553 132 1588 217 b 1504 546 1588 438 1543 507 b 1211 643 1421 629 1299 643 l 1003 643 z m 1003 413 l 1161 413 b 1239 392 1185 413 1217 408 b 1268 328 1263 374 1268 351 b 1246 264 1268 308 1265 282 b 1161 239 1226 246 1192 239 l 1003 239 z "},"Њ":{"ha":1576,"x_min":0,"x_max":0,"o":"m 992 972 l 692 972 l 692 643 l 421 643 l 421 972 l 118 972 l 118 0 l 421 0 l 421 413 l 692 413 l 692 0 l 1194 0 b 1485 83 1267 0 1401 3 b 1569 319 1535 132 1569 217 b 1486 546 1569 438 1525 507 b 1193 643 1403 629 1281 643 l 992 643 z m 992 413 l 1150 413 b 1228 392 1174 413 1206 408 b 1257 325 1254 372 1257 346 b 1231 256 1257 306 1253 276 b 1150 231 1204 232 1165 231 l 992 231 z "},"Ћ":{"ha":1249,"x_min":0,"x_max":0,"o":"m 1165 0 l 1165 268 b 1031 538 1165 367 1157 478 b 796 581 960 572 878 581 b 592 567 729 581 649 574 l 592 711 l 867 711 l 867 972 l 14 972 l 14 711 l 289 711 l 289 0 l 592 0 l 592 339 b 700 347 628 344 669 347 b 831 311 731 347 799 344 b 861 186 863 278 861 217 l 861 0 z "},"Ќ":{"ha":1042,"x_min":0,"x_max":0,"o":"m 428 571 l 421 571 l 421 972 l 118 972 l 118 0 l 421 0 l 421 469 l 428 469 l 703 0 l 1063 0 l 689 519 l 1033 972 l 688 972 z m 510 1261 l 418 1064 l 631 1064 l 786 1261 z "},"Ў":{"ha":918,"x_min":0,"x_max":0,"o":"m 489 544 l 332 972 l 0 972 l 326 301 b 215 233 303 239 242 233 b 113 257 174 233 139 243 l 113 15 b 301 -12 185 -11 235 -12 b 503 44 360 -12 429 -12 b 629 229 567 94 603 165 l 936 972 l 621 972 z m 582 1250 b 557 1189 583 1219 568 1199 b 476 1165 532 1167 496 1165 b 396 1189 461 1165 421 1167 b 371 1250 381 1203 369 1224 l 201 1250 b 257 1126 206 1192 232 1151 b 476 1056 322 1061 421 1056 b 696 1126 532 1056 631 1061 b 751 1250 721 1151 747 1192 z "},"Џ":{"ha":1115,"x_min":0,"x_max":0,"o":"m 421 267 l 421 972 l 118 972 l 118 0 l 432 0 l 432 -311 l 683 -311 l 683 0 l 997 0 l 997 972 l 694 972 l 694 267 z "},"А":{"ha":986,"x_min":0,"x_max":0,"o":"m 340 138 l 642 138 l 686 0 l 1000 0 l 640 972 l 342 972 l -18 0 l 296 0 z m 400 338 l 490 629 l 582 338 z "},"Б":{"ha":1064,"x_min":0,"x_max":0,"o":"m 421 733 l 938 733 l 938 972 l 118 972 l 118 0 l 660 0 b 924 85 743 0 847 11 b 1008 308 972 131 1008 201 b 928 529 1008 424 967 492 b 646 613 850 604 738 613 l 421 613 z m 421 404 l 569 404 b 663 381 600 404 639 403 b 688 315 678 367 688 342 b 664 251 688 292 681 267 b 567 229 644 233 606 229 l 421 229 z "},"В":{"ha":1081,"x_min":0,"x_max":0,"o":"m 118 972 l 118 0 l 664 0 b 933 67 736 0 857 8 b 1025 265 975 97 1025 157 b 956 447 1025 356 992 413 b 818 515 947 456 899 500 l 818 521 b 917 579 851 529 885 546 b 976 729 961 625 976 672 b 899 914 976 824 938 882 b 668 972 829 971 732 972 z m 421 753 l 572 753 b 649 735 588 753 626 751 b 674 675 661 725 674 707 b 651 617 674 642 661 625 b 576 597 632 599 601 597 l 421 597 z m 421 396 l 603 396 b 682 376 628 396 661 393 b 710 308 693 368 710 349 b 683 240 710 274 697 253 b 604 219 661 221 631 219 l 421 219 z "},"Г":{"ha":829,"x_min":0,"x_max":0,"o":"m 421 706 l 808 706 l 808 972 l 118 972 l 118 0 l 421 0 z "},"Д":{"ha":1147,"x_min":0,"x_max":0,"o":"m 990 267 l 990 972 l 221 972 l 221 729 b 200 469 221 581 210 510 b 119 269 185 400 153 326 l 0 269 l 10 -203 l 257 -203 l 257 0 l 869 0 l 869 -203 l 1114 -203 l 1126 267 z m 696 725 l 696 247 l 414 247 b 479 438 442 304 468 378 b 494 622 489 486 494 574 l 494 725 z "},"Е":{"ha":999,"x_min":0,"x_max":0,"o":"m 421 606 l 421 715 l 925 715 l 925 972 l 118 972 l 118 0 l 936 0 l 936 257 l 421 257 l 421 376 l 853 376 l 853 606 z "},"Ж":{"ha":1422,"x_min":0,"x_max":0,"o":"m 575 0 l 847 0 l 847 414 l 1088 0 l 1436 0 l 1085 526 l 1419 972 l 1079 972 l 847 608 l 847 972 l 575 972 l 575 608 l 343 972 l 3 972 l 339 526 l -14 0 l 335 0 l 575 414 z "},"З":{"ha":1057,"x_min":0,"x_max":0,"o":"m 49 346 b 181 60 51 254 83 135 b 529 -25 282 -19 419 -25 b 894 58 647 -25 786 -19 b 1008 286 978 117 1008 194 b 950 439 1008 340 994 394 b 821 506 921 469 875 496 l 821 514 b 935 571 869 519 910 543 b 985 714 964 603 985 654 b 911 890 985 799 947 856 b 538 994 826 972 694 994 b 165 878 426 994 264 978 b 78 639 128 840 76 765 l 372 639 b 403 742 371 681 379 715 b 515 782 436 778 481 782 b 619 754 543 782 588 779 b 658 675 646 733 658 703 b 626 606 658 649 647 621 b 535 585 614 597 590 585 l 438 585 l 438 393 l 524 393 b 640 375 561 393 613 388 b 686 306 669 361 686 340 b 639 217 686 268 668 235 b 519 192 631 211 597 192 b 388 233 483 192 428 196 b 342 346 382 239 343 278 z "},"И":{"ha":1118,"x_min":0,"x_max":0,"o":"m 413 451 l 413 972 l 118 972 l 118 0 l 413 0 l 706 526 l 706 0 l 1000 0 l 1000 972 l 706 972 z "},"Й":{"ha":1118,"x_min":0,"x_max":0,"o":"m 413 451 l 413 972 l 118 972 l 118 0 l 413 0 l 706 526 l 706 0 l 1000 0 l 1000 972 l 706 972 z m 658 1260 b 638 1197 658 1238 651 1211 b 557 1174 617 1175 581 1174 b 476 1197 533 1174 497 1175 b 456 1260 463 1211 456 1238 l 260 1260 b 318 1117 263 1192 292 1144 b 557 1046 379 1054 475 1046 b 796 1117 639 1046 735 1054 b 854 1260 822 1144 851 1192 z "},"К":{"ha":1042,"x_min":0,"x_max":0,"o":"m 428 571 l 421 571 l 421 972 l 118 972 l 118 0 l 421 0 l 421 469 l 428 469 l 703 0 l 1063 0 l 689 519 l 1033 972 l 688 972 z "},"Л":{"ha":1132,"x_min":0,"x_max":0,"o":"m 0 1 b 151 -14 56 -10 100 -14 b 404 69 224 -14 329 -10 b 488 385 488 158 486 299 l 494 706 l 708 706 l 708 0 l 1014 0 l 1014 972 l 211 972 l 204 476 b 160 272 203 393 201 310 b 63 244 133 247 93 244 b 0 251 38 244 18 247 z "},"М":{"ha":1396,"x_min":0,"x_max":0,"o":"m 588 0 l 808 0 l 1003 646 l 1010 644 l 1003 571 l 1003 0 l 1278 0 l 1278 972 l 867 972 l 711 422 l 701 356 l 694 356 l 686 422 l 529 972 l 118 972 l 118 0 l 393 0 l 393 571 l 386 644 l 393 646 z "},"Н":{"ha":1113,"x_min":0,"x_max":0,"o":"m 421 382 l 692 382 l 692 0 l 994 0 l 994 972 l 692 972 l 692 638 l 421 638 l 421 972 l 118 972 l 118 0 l 421 0 z "},"О":{"ha":1136,"x_min":0,"x_max":0,"o":"m 56 483 b 181 115 56 276 136 163 b 572 -26 294 -7 444 -26 b 954 113 699 -26 842 -8 b 1081 492 1024 188 1081 307 b 951 861 1081 601 1060 749 b 564 999 839 976 693 999 b 193 863 451 999 310 983 b 56 483 121 788 56 663 z m 378 486 b 442 692 378 539 386 633 b 574 743 479 731 525 743 b 699 692 621 743 663 729 b 758 486 749 639 758 557 b 699 281 758 415 743 329 b 568 229 663 240 615 229 b 439 281 519 229 475 243 b 378 486 385 339 378 433 z "},"П":{"ha":1128,"x_min":0,"x_max":0,"o":"m 421 715 l 707 715 l 707 0 l 1010 0 l 1010 972 l 118 972 l 118 0 l 421 0 z "},"Р":{"ha":1028,"x_min":0,"x_max":0,"o":"m 118 972 l 118 0 l 421 0 l 421 281 l 613 281 b 901 368 688 281 810 279 b 993 629 986 450 993 565 b 900 881 993 697 983 801 b 613 972 817 960 701 972 z m 421 710 l 565 710 b 664 685 593 710 638 708 b 689 619 676 674 689 653 b 661 542 689 582 676 556 b 565 514 632 514 590 514 l 421 514 z "},"С":{"ha":1054,"x_min":0,"x_max":0,"o":"m 731 358 b 683 269 728 338 718 300 b 567 232 647 238 608 232 b 432 288 525 232 475 236 b 378 485 386 342 378 422 b 440 690 378 544 385 635 b 575 739 481 731 529 739 b 679 708 600 739 646 736 b 725 621 701 689 719 657 l 1018 621 b 906 879 1003 778 918 867 b 565 997 835 951 725 997 b 200 869 450 997 311 978 b 56 476 115 788 56 660 b 196 83 56 272 128 147 b 554 -28 304 -18 443 -28 b 906 85 674 -28 804 -17 b 1026 358 967 144 1017 246 z "},"Т":{"ha":881,"x_min":0,"x_max":0,"o":"m 289 706 l 289 0 l 592 0 l 592 706 l 867 706 l 867 972 l 14 972 l 14 706 z "},"У":{"ha":918,"x_min":0,"x_max":0,"o":"m 489 544 l 332 972 l 0 972 l 326 301 b 215 233 303 239 242 233 b 113 257 174 233 139 243 l 113 15 b 301 -12 185 -11 235 -12 b 503 44 360 -12 429 -12 b 629 229 567 94 603 165 l 936 972 l 621 972 z "},"Ф":{"ha":1425,"x_min":0,"x_max":0,"o":"m 561 -33 l 864 -33 l 864 96 l 888 96 b 1261 207 1040 96 1168 115 b 1369 496 1321 265 1369 364 b 1260 779 1369 603 1329 710 b 883 896 1172 867 1043 896 l 864 896 l 864 1019 l 561 1019 l 561 896 l 542 896 b 167 776 375 896 257 868 b 56 493 114 722 56 633 b 164 207 56 339 119 251 b 538 96 257 115 383 96 l 561 96 z m 585 322 l 557 322 b 418 353 510 322 456 328 b 353 492 397 367 353 406 b 415 635 353 582 399 622 b 560 669 461 668 526 669 l 585 669 z m 842 322 l 842 669 l 867 669 b 1011 635 900 669 965 668 b 1074 492 1028 622 1074 582 b 1008 353 1074 406 1029 367 b 869 322 971 328 917 322 z "},"Х":{"ha":1042,"x_min":0,"x_max":0,"o":"m 526 283 l 688 0 l 1056 0 l 706 508 l 1029 972 l 688 972 l 526 701 l 368 972 l 35 972 l 347 508 l -14 0 l 361 0 z "},"Ц":{"ha":1168,"x_min":0,"x_max":0,"o":"m 421 267 l 421 972 l 118 972 l 118 0 l 882 0 l 882 -203 l 1146 -203 l 1154 267 l 1017 267 l 1017 972 l 714 972 l 714 267 z "},"Ч":{"ha":1029,"x_min":0,"x_max":0,"o":"m 49 972 l 49 676 b 154 424 49 578 65 483 b 429 365 178 407 253 365 b 608 376 478 365 550 371 l 608 0 l 911 0 l 911 972 l 608 972 l 608 597 b 490 588 571 592 528 588 b 371 622 464 588 404 588 b 339 747 340 653 339 707 l 339 972 z "},"Ш":{"ha":1511,"x_min":0,"x_max":0,"o":"m 393 247 l 393 972 l 118 972 l 118 0 l 1393 0 l 1393 972 l 1118 972 l 1118 247 l 893 247 l 893 972 l 618 972 l 618 247 z "},"Щ":{"ha":1549,"x_min":0,"x_max":0,"o":"m 393 247 l 393 972 l 118 972 l 118 0 l 1264 0 l 1264 -203 l 1526 -203 l 1533 267 l 1399 267 l 1399 972 l 1124 972 l 1124 247 l 896 247 l 896 972 l 621 972 l 621 247 z "},"Ъ":{"ha":1150,"x_min":0,"x_max":0,"o":"m 546 972 l 21 972 l 21 706 l 246 706 l 246 0 l 754 0 b 1044 83 826 0 961 3 b 1129 319 1094 132 1129 217 b 1046 546 1129 438 1085 507 b 753 643 963 629 840 643 l 546 643 z m 546 413 l 704 413 b 782 392 728 413 760 408 b 811 328 806 374 811 351 b 789 264 811 308 808 282 b 704 239 769 246 735 239 l 546 239 z "},"Ы":{"ha":1475,"x_min":0,"x_max":0,"o":"m 1054 972 l 1054 0 l 1357 0 l 1357 972 z m 419 972 l 118 972 l 118 0 l 614 0 b 904 83 686 0 821 3 b 989 319 954 132 989 217 b 906 546 989 438 944 507 b 613 643 822 629 700 643 l 419 643 z m 419 413 l 578 413 b 656 392 601 413 633 408 b 685 328 679 374 685 351 b 663 264 685 308 682 282 b 578 239 643 246 608 239 l 419 239 z "},"Ь":{"ha":1024,"x_min":0,"x_max":0,"o":"m 419 972 l 118 972 l 118 0 l 628 0 b 918 83 700 0 835 3 b 1003 319 968 132 1003 217 b 919 546 1003 438 958 507 b 626 643 836 629 714 643 l 419 643 z m 419 413 l 578 413 b 656 392 601 413 633 408 b 685 328 679 374 685 351 b 663 264 685 308 682 282 b 578 239 643 246 608 239 l 419 239 z "},"Э":{"ha":1096,"x_min":0,"x_max":0,"o":"m 342 625 b 400 728 351 686 388 718 b 528 765 431 751 475 765 b 668 717 581 765 636 749 b 717 585 699 686 718 635 l 413 585 l 413 389 l 717 389 b 658 232 717 335 694 267 b 521 188 619 194 564 188 b 381 236 475 188 422 196 b 332 340 356 261 336 299 l 28 340 b 139 94 38 247 78 156 b 521 -28 246 -12 406 -28 b 910 106 619 -28 789 -19 b 1040 497 1029 229 1040 407 b 917 863 1040 608 1022 754 b 535 993 807 976 654 993 b 160 869 407 993 268 971 b 39 625 104 817 51 738 z "},"Ю":{"ha":1601,"x_min":0,"x_max":0,"o":"m 535 383 b 664 90 542 253 600 151 b 1025 -26 772 -14 910 -26 b 1404 107 1144 -26 1288 -11 b 1546 494 1481 185 1546 315 b 1417 858 1546 678 1481 792 b 1036 999 1304 975 1157 999 b 658 860 908 999 767 974 b 543 631 600 799 560 717 l 421 631 l 421 972 l 118 972 l 118 0 l 421 0 l 421 383 z m 843 486 b 907 692 843 539 851 633 b 1039 743 944 731 990 743 b 1164 692 1086 743 1128 729 b 1224 486 1214 639 1224 557 b 1164 281 1224 415 1208 329 b 1033 229 1128 240 1081 229 b 904 281 985 229 940 243 b 843 486 850 339 843 433 z "},"Я":{"ha":1029,"x_min":0,"x_max":0,"o":"m 635 319 l 635 0 l 938 0 l 938 972 l 417 972 b 132 872 271 972 183 925 b 46 636 97 836 46 763 b 126 422 46 567 60 486 b 288 344 165 385 222 356 l 36 0 l 386 0 l 579 319 z m 635 731 l 635 540 l 471 540 b 378 568 438 540 397 550 b 351 638 364 581 351 604 b 375 701 351 671 364 690 b 463 731 401 728 442 731 z "},"а":{"ha":881,"x_min":0,"x_max":0,"o":"m 346 465 b 368 532 344 492 354 518 b 433 554 381 544 401 554 b 494 535 442 554 475 553 b 513 489 503 528 513 513 b 492 436 513 463 501 446 b 363 406 472 418 442 415 l 279 396 b 89 319 222 389 144 375 b 36 182 50 281 36 235 b 96 29 36 103 68 56 b 274 -25 147 -18 218 -25 b 432 8 322 -25 381 -18 b 518 76 465 25 496 50 l 521 76 l 539 0 l 853 0 l 853 10 b 814 42 836 15 821 28 b 804 122 807 54 804 72 l 804 440 b 732 642 804 497 797 579 b 440 724 651 721 508 724 b 143 629 347 724 222 711 b 72 465 106 590 78 533 z m 513 301 b 475 179 513 264 510 215 b 396 147 453 156 428 147 b 347 165 381 147 363 150 b 329 211 338 175 329 190 b 346 256 329 228 333 242 b 429 289 369 281 406 285 b 513 319 458 293 482 297 z "},"б":{"ha":922,"x_min":0,"x_max":0,"o":"m 625 1051 b 582 1013 619 1026 604 1019 b 383 978 493 986 507 1008 b 181 876 319 963 242 936 b 56 465 65 763 56 574 b 172 79 56 369 63 189 b 479 -25 258 -8 374 -25 b 778 79 576 -25 686 -14 b 881 349 840 143 881 236 b 783 601 881 476 831 557 b 515 694 697 685 582 694 b 292 629 444 694 361 682 b 211 528 267 610 233 578 l 200 528 b 303 750 201 628 242 708 b 538 813 349 781 419 797 b 783 893 631 825 726 836 b 847 1051 818 928 846 988 z m 365 340 b 410 497 365 401 375 463 b 479 526 428 515 453 526 b 546 500 515 526 536 508 b 589 340 585 461 589 389 b 546 176 589 313 586 215 b 482 153 525 157 501 153 b 411 181 451 153 429 163 b 365 340 399 194 365 235 z "},"в":{"ha":886,"x_min":0,"x_max":0,"o":"m 90 706 l 90 0 l 601 0 b 806 63 664 0 750 1 b 850 189 840 100 850 146 b 803 313 850 228 842 275 b 669 364 768 346 715 363 l 669 372 b 774 422 704 378 747 396 b 815 533 794 443 815 478 b 765 657 815 596 789 636 b 581 706 717 700 636 706 z m 376 560 l 457 560 b 517 544 475 560 499 558 b 539 494 536 529 539 506 b 515 440 539 465 526 449 b 447 424 497 426 469 424 l 376 424 z m 376 293 l 471 293 b 544 272 496 293 526 289 b 565 219 556 263 565 244 b 543 165 565 193 556 175 b 479 147 524 149 494 147 l 376 147 z "},"г":{"ha":697,"x_min":0,"x_max":0,"o":"m 388 515 l 690 515 l 690 706 l 90 706 l 90 0 l 388 0 z "},"д":{"ha":994,"x_min":0,"x_max":0,"o":"m 0 183 l 14 -182 l 238 -182 l 238 0 l 739 0 l 739 -182 l 963 -182 l 976 183 l 864 183 l 864 706 l 197 706 l 196 567 b 174 358 196 506 194 435 b 93 183 150 272 108 206 z m 583 522 l 583 183 l 367 183 b 425 321 386 215 410 261 b 442 467 439 375 440 418 l 443 522 z "},"е":{"ha":900,"x_min":0,"x_max":0,"o":"m 561 204 b 525 161 557 190 547 174 b 456 147 506 150 476 147 b 367 188 413 147 385 164 b 340 294 349 213 339 257 l 858 294 l 858 311 b 761 626 858 394 857 528 b 453 731 707 682 614 731 b 147 617 344 731 233 707 b 42 332 81 547 42 444 b 138 72 42 214 83 126 b 450 -25 225 -15 340 -25 b 707 28 524 -25 618 -24 b 847 204 790 76 828 144 z m 342 433 b 376 526 343 463 354 503 b 456 557 397 550 426 557 b 528 528 479 557 507 551 b 558 433 547 507 558 464 z "},"ж":{"ha":1179,"x_min":0,"x_max":0,"o":"m 457 706 l 457 432 l 285 706 l 4 706 l 246 368 l -14 0 l 285 0 l 457 292 l 457 0 l 721 0 l 721 292 l 894 0 l 1193 0 l 929 371 l 1174 706 l 894 706 l 721 432 l 721 706 z "},"з":{"ha":853,"x_min":0,"x_max":0,"o":"m 35 251 b 106 67 33 164 71 103 b 443 -25 190 -19 332 -25 b 710 26 600 -25 674 6 b 818 208 785 71 818 143 b 774 319 818 257 799 296 b 663 369 749 344 704 364 l 663 378 b 750 419 694 382 728 397 b 789 524 776 446 789 485 b 729 656 789 572 768 621 b 429 732 667 713 553 732 b 124 636 300 732 193 708 b 50 457 90 601 54 540 l 304 457 b 329 538 303 501 318 525 b 410 565 347 556 378 565 b 482 547 432 565 464 560 b 508 496 497 536 508 518 b 488 447 508 468 494 453 b 411 431 468 432 438 431 l 365 431 l 365 288 l 429 288 b 503 271 449 288 481 288 b 529 219 517 261 529 242 b 507 168 529 200 521 182 b 421 144 483 146 450 144 b 325 176 394 144 353 146 b 299 251 308 194 299 222 z "},"и":{"ha":996,"x_min":0,"x_max":0,"o":"m 368 308 l 363 308 l 368 344 l 368 706 l 90 706 l 90 0 l 379 0 l 628 399 l 633 399 l 628 361 l 628 0 l 906 0 l 906 706 l 617 706 z "},"й":{"ha":996,"x_min":0,"x_max":0,"o":"m 592 1015 b 563 929 593 992 589 951 b 499 911 547 917 522 911 b 435 929 475 911 450 917 b 406 1015 408 951 404 992 l 204 1015 b 265 861 204 943 235 892 b 500 786 336 790 449 786 b 731 861 574 786 667 797 b 793 1015 760 890 793 942 z m 368 308 l 363 308 l 368 344 l 368 706 l 90 706 l 90 0 l 379 0 l 628 399 l 633 399 l 628 361 l 628 0 l 906 0 l 906 706 l 617 706 z "},"к":{"ha":885,"x_min":0,"x_max":0,"o":"m 382 414 l 382 706 l 90 706 l 90 0 l 382 0 l 382 307 l 385 307 l 568 0 l 899 0 l 626 371 l 878 706 l 579 706 l 385 414 z "},"л":{"ha":949,"x_min":0,"x_max":0,"o":"m 0 0 b 132 -12 40 -8 83 -12 b 340 56 196 -12 278 -4 b 424 382 419 132 424 254 l 424 514 l 567 514 l 567 0 l 858 0 l 858 706 l 154 706 l 154 406 b 119 213 154 324 153 244 b 43 189 108 201 85 189 b 0 193 29 189 14 190 z "},"м":{"ha":1190,"x_min":0,"x_max":0,"o":"m 504 0 l 688 0 l 833 417 l 839 417 l 833 381 l 833 0 l 1100 0 l 1100 706 l 735 706 l 597 263 l 593 263 l 456 706 l 90 706 l 90 0 l 357 0 l 357 381 l 351 417 l 357 417 z "},"н":{"ha":949,"x_min":0,"x_max":0,"o":"m 382 276 l 567 276 l 567 0 l 858 0 l 858 706 l 567 706 l 567 460 l 382 460 l 382 706 l 90 706 l 90 0 l 382 0 z "},"о":{"ha":908,"x_min":0,"x_max":0,"o":"m 454 547 b 521 519 483 547 503 538 b 567 353 551 488 567 436 b 521 186 567 269 551 218 b 454 158 503 168 483 158 b 389 185 429 158 408 165 b 342 353 356 218 342 272 b 388 519 342 436 357 488 b 454 547 406 538 425 547 z m 867 354 b 763 628 867 482 824 569 b 456 731 663 724 528 731 b 149 628 371 731 242 718 b 42 354 92 574 42 482 b 147 78 42 204 106 118 b 454 -25 240 -11 367 -25 b 761 78 539 -25 667 -12 b 867 354 819 133 867 222 z "},"п":{"ha":958,"x_min":0,"x_max":0,"o":"m 382 514 l 576 514 l 576 0 l 868 0 l 868 706 l 90 706 l 90 0 l 382 0 z "},"р":{"ha":965,"x_min":0,"x_max":0,"o":"m 90 706 l 90 -257 l 382 -257 l 382 51 b 588 -25 444 -15 525 -25 b 819 61 667 -25 750 -11 b 924 365 893 136 924 254 b 824 654 924 549 846 633 b 601 731 751 724 661 731 b 374 628 533 731 439 719 l 368 628 l 368 706 z m 369 344 b 413 497 369 393 374 456 b 496 533 436 524 467 533 b 581 497 538 533 565 515 b 624 344 619 454 624 386 b 581 194 624 307 621 239 b 496 158 560 172 533 158 b 406 203 463 158 431 171 b 369 344 372 246 369 306 z "},"с":{"ha":869,"x_min":0,"x_max":0,"o":"m 556 278 b 522 182 556 249 544 206 b 456 158 501 161 476 158 b 385 188 429 158 406 164 b 342 360 343 232 342 321 b 383 522 342 415 347 483 b 454 551 403 543 425 551 b 521 526 479 551 503 544 b 554 432 547 500 554 460 l 822 432 b 736 635 817 521 779 590 b 451 735 686 685 600 735 b 156 629 356 735 243 714 b 42 336 94 568 42 468 b 143 68 42 199 94 114 b 432 -25 229 -14 342 -25 b 733 75 522 -25 642 -17 b 828 278 776 118 818 186 z "},"т":{"ha":767,"x_min":0,"x_max":0,"o":"m 235 515 l 235 0 l 532 0 l 532 513 l 760 513 l 760 706 l 7 706 l 7 515 z "},"у":{"ha":817,"x_min":0,"x_max":0,"o":"m 86 -240 b 246 -258 154 -256 211 -258 b 463 -189 360 -258 425 -224 b 568 11 518 -137 546 -51 l 817 706 l 546 706 l 435 265 l 294 706 l 0 706 l 276 42 l 269 11 b 233 -49 265 -8 257 -32 b 164 -67 210 -67 185 -67 b 86 -53 138 -67 115 -64 z "},"ф":{"ha":1225,"x_min":0,"x_max":0,"o":"m 467 -257 l 758 -257 l 758 -19 l 769 -19 b 1079 75 850 -19 981 -17 b 1183 350 1126 119 1183 203 b 1082 618 1183 436 1164 539 b 767 721 988 708 857 721 l 758 721 l 758 972 l 467 972 l 467 721 l 460 721 b 143 617 363 721 238 708 b 42 350 60 538 42 436 b 146 75 42 285 51 163 b 456 -19 244 -17 374 -19 l 467 -19 z m 732 538 l 742 538 b 868 497 803 538 843 518 b 922 357 913 458 922 400 b 872 211 922 322 919 257 b 746 164 847 186 803 164 l 732 164 z m 493 538 l 493 164 l 479 164 b 353 211 422 164 378 186 b 303 357 306 257 303 322 b 357 496 303 400 313 456 b 483 538 397 532 449 538 z "},"х":{"ha":807,"x_min":0,"x_max":0,"o":"m 407 513 l 300 706 l 14 706 l 260 365 l 0 0 l 289 0 l 406 193 l 525 0 l 807 0 l 554 365 l 807 707 l 515 707 z "},"ц":{"ha":996,"x_min":0,"x_max":0,"o":"m 382 193 l 382 706 l 90 706 l 90 0 l 743 0 l 743 -179 l 967 -179 l 975 193 l 861 193 l 861 706 l 569 706 l 569 193 z "},"ч":{"ha":861,"x_min":0,"x_max":0,"o":"m 36 706 l 36 506 b 94 313 36 424 44 360 b 346 244 157 253 264 244 b 479 254 389 244 432 247 l 479 0 l 771 0 l 771 706 l 479 706 l 479 422 b 417 417 457 418 438 417 b 329 443 396 417 351 418 b 311 521 311 464 311 497 l 311 706 z "},"ш":{"ha":1361,"x_min":0,"x_max":0,"o":"m 365 193 l 365 706 l 90 706 l 90 0 l 1271 0 l 1271 706 l 996 706 l 996 190 l 818 190 l 818 706 l 543 706 l 543 193 z "},"щ":{"ha":1401,"x_min":0,"x_max":0,"o":"m 365 193 l 365 706 l 90 706 l 90 0 l 1146 0 l 1146 -179 l 1369 -179 l 1381 193 l 1271 193 l 1271 706 l 996 706 l 996 193 l 818 193 l 818 706 l 543 706 l 543 193 z "},"ъ":{"ha":953,"x_min":0,"x_max":0,"o":"m 0 514 l 196 514 l 196 0 l 672 0 b 876 63 719 0 815 4 b 939 233 911 96 939 153 b 876 399 939 317 907 369 b 644 464 810 461 694 464 l 488 464 l 488 706 l 0 706 z m 488 311 l 558 311 b 628 293 583 311 611 306 b 656 233 640 283 656 265 b 631 168 656 211 649 183 b 560 149 614 154 583 149 l 488 149 z "},"ы":{"ha":1261,"x_min":0,"x_max":0,"o":"m 882 706 l 882 0 l 1171 0 l 1171 706 z m 382 706 l 90 706 l 90 0 l 551 0 b 756 63 599 0 694 4 b 818 233 790 96 818 153 b 756 399 818 317 786 369 b 524 464 689 461 574 464 l 382 464 z m 382 311 l 453 311 b 522 293 478 311 506 306 b 550 233 535 283 550 265 b 525 168 550 211 543 183 b 454 149 508 154 478 149 l 382 149 z "},"ь":{"ha":847,"x_min":0,"x_max":0,"o":"m 382 706 l 90 706 l 90 0 l 567 0 b 771 63 614 0 710 4 b 833 233 806 96 833 153 b 771 399 833 317 801 369 b 539 464 704 461 589 464 l 382 464 z m 382 311 l 453 311 b 522 293 478 311 506 306 b 550 233 535 283 550 265 b 525 168 550 211 543 183 b 454 149 508 154 478 149 l 382 149 z "},"э":{"ha":897,"x_min":0,"x_max":0,"o":"m 364 283 l 564 283 b 525 188 563 247 549 210 b 432 156 497 161 461 156 b 328 192 404 156 360 158 b 293 269 308 213 296 243 l 42 269 b 144 54 49 169 97 94 b 439 -26 226 -15 347 -26 b 753 72 539 -26 663 -15 b 856 357 797 117 856 201 b 767 617 856 435 840 538 b 438 729 669 719 521 729 b 135 629 361 729 225 721 b 44 433 93 588 54 518 l 293 433 b 329 514 296 461 308 492 b 431 550 360 546 396 550 b 528 515 460 550 497 546 b 564 426 547 496 563 464 l 364 426 z "},"ю":{"ha":1310,"x_min":0,"x_max":0,"o":"m 856 547 b 922 519 885 547 904 538 b 968 353 953 488 968 436 b 922 186 968 269 953 218 b 856 158 904 168 885 158 b 790 185 831 158 810 165 b 743 353 757 218 743 272 b 789 519 743 436 758 488 b 856 547 807 538 826 547 z m 379 460 l 379 706 l 90 706 l 90 0 l 379 0 l 379 276 l 464 276 b 561 67 472 193 508 115 b 854 -25 643 -10 764 -25 b 1168 83 936 -25 1071 -17 b 1268 356 1199 115 1268 200 b 1164 628 1268 499 1210 583 b 851 731 1064 724 931 731 b 568 639 753 731 650 715 b 471 460 543 617 489 558 z "},"я":{"ha":876,"x_min":0,"x_max":0,"o":"m 469 231 l 494 231 l 494 0 l 786 0 l 786 706 l 335 706 b 113 636 283 706 181 701 b 44 453 75 600 44 539 b 104 300 44 406 56 346 b 217 243 133 272 179 251 l 35 0 l 333 0 z m 494 550 l 494 378 l 442 378 b 347 401 411 378 374 379 b 322 461 326 419 322 442 b 351 529 322 485 328 510 b 433 550 376 549 404 550 z "},"ё":{"ha":900,"x_min":0,"x_max":0,"o":"m 115 807 l 386 807 l 386 981 l 115 981 z m 506 807 l 776 807 l 776 981 l 506 981 z m 561 204 b 525 161 557 190 547 174 b 456 147 506 150 476 147 b 367 188 413 147 385 164 b 340 294 349 213 339 257 l 858 294 l 858 311 b 761 626 858 396 857 528 b 454 731 674 715 547 731 b 147 617 344 731 233 707 b 42 332 81 547 42 444 b 138 72 42 214 83 126 b 450 -25 225 -15 340 -25 b 706 26 524 -25 619 -24 b 847 204 799 81 833 160 z m 342 433 b 376 526 343 463 354 503 b 456 557 397 550 426 557 b 528 528 479 557 507 551 b 558 433 547 507 558 464 z "},"ђ":{"ha":971,"x_min":0,"x_max":0,"o":"m 394 972 l 103 972 l 103 885 l -28 885 l -28 746 l 103 746 l 103 0 l 394 0 l 394 356 b 425 464 394 404 407 440 b 508 504 446 490 478 504 b 567 472 536 504 553 493 b 592 228 589 439 592 379 b 544 -61 592 100 593 -19 b 474 -85 529 -75 503 -85 l 463 -85 l 463 -264 l 515 -264 b 779 -181 581 -264 699 -257 b 888 258 883 -82 888 103 b 806 626 888 400 882 547 b 618 692 749 685 671 692 b 481 665 569 692 524 685 b 394 607 451 651 421 632 l 394 746 l 701 746 l 701 885 l 394 885 z "},"ѓ":{"ha":697,"x_min":0,"x_max":0,"o":"m 388 515 l 690 515 l 690 706 l 90 706 l 90 0 l 388 0 z m 343 972 l 251 789 l 450 789 l 606 972 z "},"є":{"ha":889,"x_min":0,"x_max":0,"o":"m 518 283 l 518 426 l 318 426 b 356 518 321 463 336 497 b 453 556 382 546 415 556 b 546 531 486 556 522 549 b 589 458 564 518 583 494 l 840 458 b 729 656 826 561 771 624 b 457 729 692 683 611 729 b 147 624 386 729 247 719 b 42 350 101 579 42 496 b 142 72 42 189 108 106 b 446 -26 231 -15 356 -26 b 729 53 535 -26 646 -14 b 847 254 785 97 831 169 l 589 254 b 549 183 583 228 569 201 b 453 153 531 168 501 153 b 353 189 428 153 383 156 b 318 283 332 213 319 251 z "},"ѕ":{"ha":818,"x_min":0,"x_max":0,"o":"m 35 232 b 103 61 36 151 71 94 b 411 -26 175 -14 283 -26 b 689 35 561 -26 642 1 b 783 224 736 68 783 132 b 724 374 783 293 756 343 b 540 446 671 424 589 439 l 443 460 b 356 482 414 464 388 465 b 325 525 340 489 325 499 b 350 572 325 543 335 561 b 413 589 356 576 375 589 b 485 567 436 589 468 583 b 506 504 500 551 507 524 l 754 504 b 658 679 749 601 693 656 b 418 732 611 711 538 732 b 158 672 338 732 235 724 b 61 486 113 642 61 585 b 119 349 61 414 93 372 b 313 281 168 306 246 290 l 385 269 b 478 249 424 264 454 260 b 513 197 501 238 513 221 b 482 149 513 172 499 158 b 411 133 458 135 436 133 b 340 157 379 133 354 143 b 319 232 322 175 315 207 z "},"і":{"ha":472,"x_min":0,"x_max":0,"o":"m 90 706 l 90 0 l 382 0 l 382 706 z m 90 789 l 382 789 l 382 972 l 90 972 z "},"ї":{"ha":472,"x_min":0,"x_max":0,"o":"m 90 706 l 90 0 l 382 0 l 382 706 z m 13 807 l 211 807 l 211 972 l 13 972 z m 263 807 l 460 807 l 460 972 l 263 972 z "},"ј":{"ha":485,"x_min":0,"x_max":0,"o":"m 100 779 l 394 779 l 394 972 l 100 972 z m 100 706 l 100 40 b 79 -36 100 14 99 -17 b 17 -54 61 -54 31 -54 b -28 -50 1 -54 -12 -53 l -28 -247 b 128 -261 6 -254 54 -261 b 332 -199 182 -261 274 -257 b 393 1 389 -142 393 -64 l 393 706 z "},"љ":{"ha":1297,"x_min":0,"x_max":0,"o":"m 850 464 l 850 706 l 154 706 l 154 406 b 119 213 154 324 153 244 b 43 189 108 201 85 189 b 0 193 29 189 14 190 l 0 0 b 132 -12 40 -8 83 -12 b 340 56 196 -12 278 -4 b 424 382 419 132 424 254 l 424 514 l 567 514 l 567 0 l 1024 0 b 1228 61 1093 0 1171 7 b 1290 229 1281 111 1290 179 b 1231 394 1290 275 1282 343 b 1000 464 1167 460 1078 464 z m 850 313 l 928 313 b 993 292 946 313 974 313 b 1014 229 997 288 1014 269 b 990 167 1014 196 1001 176 b 922 146 969 149 944 146 l 850 146 z "},"њ":{"ha":1306,"x_min":0,"x_max":0,"o":"m 567 706 l 567 464 l 382 464 l 382 706 l 90 706 l 90 0 l 382 0 l 382 306 l 567 306 l 567 0 l 1032 0 b 1236 64 1081 0 1174 3 b 1299 235 1267 93 1299 146 b 1239 400 1299 317 1269 369 b 1008 464 1174 463 1060 464 l 858 464 l 858 706 z m 858 306 l 936 306 b 1003 286 950 306 983 304 b 1022 228 1013 276 1022 260 b 1000 167 1022 211 1019 185 b 931 146 981 149 951 146 l 858 146 z "},"ћ":{"ha":964,"x_min":0,"x_max":0,"o":"m 394 972 l 103 972 l 103 882 l -28 882 l -28 750 l 103 750 l 103 0 l 394 0 l 394 361 b 422 464 394 399 404 438 b 499 504 442 492 467 504 b 567 468 532 504 553 489 b 589 364 588 438 589 386 l 589 0 l 881 0 l 881 389 b 806 626 881 478 871 565 b 617 692 771 660 711 692 b 394 611 503 692 433 646 l 394 750 l 722 750 l 722 882 l 394 882 z "},"ќ":{"ha":885,"x_min":0,"x_max":0,"o":"m 382 414 l 382 706 l 90 706 l 90 0 l 382 0 l 382 307 l 385 307 l 568 0 l 899 0 l 626 371 l 878 706 l 579 706 l 385 414 z m 447 972 l 356 789 l 554 789 l 710 972 z "},"ў":{"ha":817,"x_min":0,"x_max":0,"o":"m 86 -240 b 246 -258 154 -256 211 -258 b 463 -189 360 -258 425 -224 b 568 11 518 -137 546 -51 l 817 706 l 546 706 l 435 265 l 294 706 l 0 706 l 276 42 l 269 11 b 233 -49 265 -8 257 -32 b 164 -67 210 -67 185 -67 b 86 -53 138 -67 115 -64 z m 513 975 b 488 914 514 944 499 924 b 407 890 463 892 426 890 b 326 914 392 890 351 892 b 301 975 311 928 300 949 l 132 975 b 188 851 136 917 163 876 b 407 781 253 786 351 781 b 626 851 463 781 561 786 b 682 975 651 876 678 917 z "},"џ":{"ha":951,"x_min":0,"x_max":0,"o":"m 382 193 l 382 706 l 90 706 l 90 0 l 375 0 l 375 -236 l 590 -236 l 590 0 l 861 0 l 861 706 l 569 706 l 569 193 z "},"Ѣ":{"ha":1076,"x_min":0,"x_max":0,"o":"m 183 722 l 183 0 l 690 0 b 963 63 764 0 885 4 b 1063 300 1007 97 1063 169 b 978 521 1063 403 1026 474 b 688 613 893 603 769 613 l 483 613 l 483 722 l 733 722 l 733 903 l 483 903 l 483 972 l 183 972 l 183 903 l 0 903 l 0 722 z m 483 399 l 642 399 b 726 375 668 399 704 397 b 749 314 742 360 749 336 b 728 249 749 293 743 264 b 653 225 713 233 678 225 l 483 225 z "},"ѣ":{"ha":929,"x_min":0,"x_max":0,"o":"m 183 706 l 0 706 l 0 544 l 183 544 l 183 0 l 656 0 b 854 54 724 0 799 6 b 922 231 888 83 922 138 b 847 403 922 282 913 351 b 632 457 783 453 701 457 l 475 457 l 475 544 l 683 544 l 683 706 l 475 706 l 475 972 l 183 972 z m 475 304 l 553 304 b 618 286 568 304 599 303 b 639 228 636 269 639 246 b 617 169 639 208 636 186 b 547 150 594 151 560 150 l 475 150 z "},"Ѳ":{"ha":1136,"x_min":0,"x_max":0,"o":"m 390 590 b 444 715 396 636 415 685 b 569 764 479 751 522 764 b 694 714 614 764 658 753 b 744 590 721 685 742 640 z m 746 390 b 690 257 742 347 722 290 b 563 208 668 233 629 208 b 431 261 522 208 469 217 b 385 390 401 294 386 344 z m 56 483 b 181 115 56 276 136 163 b 572 -26 294 -7 444 -26 b 954 113 699 -26 842 -8 b 1081 492 1024 188 1081 307 b 951 861 1081 601 1060 749 b 565 999 839 978 693 999 b 193 863 451 999 310 983 b 56 483 121 788 56 663 z "},"ѳ":{"ha":908,"x_min":0,"x_max":0,"o":"m 339 431 b 372 524 342 465 356 503 b 457 561 390 546 418 561 b 542 524 485 561 518 556 b 569 431 557 503 568 463 z m 572 288 b 536 182 571 256 558 208 b 449 144 518 161 485 144 b 367 182 414 144 385 160 b 336 288 346 208 336 256 z m 867 349 b 761 629 867 501 803 589 b 457 731 667 719 542 731 b 147 618 358 731 239 714 b 42 333 89 557 42 461 b 146 61 42 196 94 108 b 439 -25 229 -14 343 -25 b 760 76 543 -25 665 -14 b 867 349 811 126 867 211 z "},"Ѵ":{"ha":1036,"x_min":0,"x_max":0,"o":"m 486 356 l 479 356 l 467 428 l 326 972 l 0 972 l 326 0 l 650 0 l 846 646 b 896 735 853 671 868 711 b 986 763 913 750 940 763 b 1064 749 1006 763 1032 760 l 1064 972 b 899 990 1011 985 958 990 b 668 914 825 990 736 979 b 571 714 610 857 586 775 l 497 428 z "},"ѵ":{"ha":817,"x_min":0,"x_max":0,"o":"m -14 706 l 236 0 l 514 0 l 663 431 b 707 511 674 463 686 492 b 783 536 719 522 743 536 b 838 529 799 536 821 533 l 838 706 b 710 718 783 715 738 718 b 515 651 653 718 575 711 b 438 493 471 607 454 553 l 378 276 l 261 706 z "},"Ґ":{"ha":865,"x_min":0,"x_max":0,"o":"m 421 706 l 851 706 l 835 1192 l 613 1192 l 611 972 l 118 972 l 118 0 l 421 0 z "},"ґ":{"ha":725,"x_min":0,"x_max":0,"o":"m 388 515 l 718 515 l 699 890 l 511 890 l 511 706 l 90 706 l 90 0 l 388 0 z "},"Ң":{"ha":1129,"x_min":0,"x_max":0,"o":"m 421 382 l 692 382 l 692 0 l 860 0 l 860 -203 l 1115 -203 l 1129 267 l 994 267 l 994 972 l 692 972 l 692 638 l 421 638 l 421 972 l 118 972 l 118 0 l 421 0 z "},"ң":{"ha":972,"x_min":0,"x_max":0,"o":"m 382 276 l 567 276 l 567 0 l 740 0 l 740 -179 l 956 -179 l 972 193 l 858 193 l 858 706 l 567 706 l 567 460 l 382 460 l 382 706 l 90 706 l 90 0 l 382 0 z "},"Ү":{"ha":951,"x_min":0,"x_max":0,"o":"m 475 578 l 313 972 l -14 972 l 324 340 l 324 0 l 626 0 l 626 340 l 965 972 l 639 972 z "},"ү":{"ha":778,"x_min":0,"x_max":0,"o":"m 514 706 l 389 229 l 264 706 l -7 706 l 243 29 l 243 -296 l 535 -296 l 535 29 l 785 706 z "},"Һ":{"ha":1078,"x_min":0,"x_max":0,"o":"m 994 0 l 994 289 b 860 558 994 401 982 500 b 619 601 789 592 708 601 b 421 588 557 601 479 594 l 421 972 l 118 972 l 118 0 l 421 0 l 421 365 b 536 374 438 367 500 374 b 660 338 579 374 632 367 b 690 213 692 304 690 243 l 690 0 z "},"һ":{"ha":958,"x_min":0,"x_max":0,"o":"m 382 972 l 90 972 l 90 0 l 382 0 l 382 375 b 410 478 382 413 392 451 b 486 518 429 506 454 518 b 554 482 519 518 540 503 b 576 378 575 451 576 400 l 576 0 l 868 0 l 868 424 b 793 661 868 513 858 600 b 604 726 758 694 699 726 b 382 646 490 726 421 681 z "},"Ӂ":{"ha":1422,"x_min":0,"x_max":0,"o":"m 575 0 l 847 0 l 847 414 l 1088 0 l 1436 0 l 1085 526 l 1419 972 l 1079 972 l 847 608 l 847 972 l 575 972 l 575 608 l 343 972 l 3 972 l 339 526 l -14 0 l 335 0 l 575 414 z m 813 1260 b 792 1197 813 1238 806 1211 b 711 1174 771 1175 735 1174 b 631 1197 688 1174 651 1175 b 610 1260 617 1211 610 1238 l 414 1260 b 472 1117 417 1192 446 1144 b 711 1046 533 1054 629 1046 b 950 1117 793 1046 889 1054 b 1008 1260 976 1144 1006 1192 z "},"ӂ":{"ha":1179,"x_min":0,"x_max":0,"o":"m 457 706 l 457 432 l 285 706 l 4 706 l 246 368 l -14 0 l 285 0 l 457 292 l 457 0 l 721 0 l 721 292 l 894 0 l 1193 0 l 929 371 l 1174 706 l 894 706 l 721 432 l 721 706 z m 682 1015 b 653 929 683 992 679 951 b 589 911 638 917 613 911 b 525 929 565 911 540 917 b 496 1015 499 951 494 992 l 294 1015 b 356 861 294 943 325 892 b 590 786 426 790 539 786 b 821 861 664 786 757 797 b 883 1015 850 890 883 942 z "},"Ӑ":{"ha":986,"x_min":0,"x_max":0,"o":"m 340 138 l 642 138 l 686 0 l 1000 0 l 640 972 l 342 972 l -18 0 l 296 0 z m 400 338 l 490 629 l 582 338 z m 599 1250 b 574 1189 600 1219 585 1199 b 493 1165 549 1167 513 1165 b 413 1189 478 1165 438 1167 b 388 1250 397 1203 386 1224 l 218 1250 b 274 1126 222 1192 249 1151 b 493 1056 339 1061 438 1056 b 713 1126 549 1056 647 1061 b 768 1250 738 1151 764 1192 z "},"ӑ":{"ha":881,"x_min":0,"x_max":0,"o":"m 346 465 b 368 532 344 492 354 518 b 433 554 381 544 401 554 b 494 535 442 554 475 553 b 513 489 503 528 513 513 b 492 436 513 463 501 446 b 363 406 472 418 442 415 l 279 396 b 89 319 222 389 144 375 b 36 182 50 281 36 235 b 96 29 36 103 68 56 b 274 -25 147 -18 218 -25 b 432 8 322 -25 381 -18 b 518 76 465 25 496 50 l 521 76 l 539 0 l 853 0 l 853 10 b 814 42 836 15 821 28 b 804 122 807 54 804 72 l 804 440 b 732 642 804 497 797 579 b 440 724 651 721 508 724 b 143 629 347 724 222 711 b 72 465 106 590 78 533 z m 513 301 b 475 179 513 264 510 215 b 396 147 453 156 428 147 b 347 165 381 147 363 150 b 329 211 338 175 329 190 b 346 256 329 228 333 242 b 429 289 369 281 406 285 b 513 319 458 293 482 297 z m 546 975 b 521 914 547 944 532 924 b 440 890 496 892 460 890 b 360 914 425 890 385 892 b 335 975 344 928 333 949 l 165 975 b 221 851 169 917 196 876 b 440 781 286 786 385 781 b 660 851 496 781 594 786 b 715 975 685 876 711 917 z "},"Ӓ":{"ha":986,"x_min":0,"x_max":0,"o":"m 340 138 l 642 138 l 686 0 l 1000 0 l 640 972 l 342 972 l -18 0 l 296 0 z m 400 338 l 490 629 l 582 338 z m 186 1082 l 425 1082 l 425 1261 l 186 1261 z m 560 1082 l 799 1082 l 799 1261 l 560 1261 z "},"ӓ":{"ha":881,"x_min":0,"x_max":0,"o":"m 346 465 b 368 532 344 492 354 518 b 433 554 381 544 401 554 b 494 535 442 554 475 553 b 513 489 503 528 513 513 b 492 436 513 463 501 446 b 363 406 472 418 442 415 l 279 396 b 89 319 222 389 144 375 b 36 182 50 281 36 235 b 96 29 36 103 68 56 b 274 -25 147 -18 218 -25 b 432 8 322 -25 381 -18 b 518 76 465 25 496 50 l 521 76 l 539 0 l 853 0 l 853 10 b 814 42 836 15 821 28 b 804 122 807 54 804 72 l 804 440 b 732 642 804 497 797 579 b 440 724 651 721 508 724 b 143 629 347 724 222 711 b 72 465 106 590 78 533 z m 513 301 b 475 179 513 264 510 215 b 396 147 453 156 428 147 b 347 165 381 147 363 150 b 329 211 338 175 329 190 b 346 256 329 228 333 242 b 429 289 369 281 406 285 b 513 319 458 293 482 297 z m 133 807 l 372 807 l 372 986 l 133 986 z m 507 807 l 746 807 l 746 986 l 507 986 z "},"Ӕ":{"ha":1576,"x_min":0,"x_max":0,"o":"m 368 138 l 701 138 l 701 0 l 1514 0 l 1514 257 l 999 257 l 999 376 l 1431 376 l 1431 606 l 999 606 l 999 715 l 1503 715 l 1503 972 l 557 972 l -35 0 l 285 0 z m 479 338 l 667 660 l 701 660 l 701 338 z "},"ӕ":{"ha":1364,"x_min":0,"x_max":0,"o":"m 1025 204 b 993 163 1021 186 1011 174 b 926 147 974 151 950 147 b 840 181 906 147 868 151 b 804 294 814 210 804 260 l 1322 294 l 1322 311 b 1211 632 1322 390 1313 533 b 928 731 1154 688 1061 731 b 669 631 772 731 706 672 b 410 724 617 689 549 724 b 149 638 324 724 224 713 b 72 465 119 608 78 553 l 335 465 b 360 532 336 488 344 517 b 426 554 368 540 388 554 b 489 538 444 554 472 550 b 513 486 503 526 513 506 b 488 435 513 464 503 446 b 389 408 478 428 454 415 l 279 396 b 104 336 228 390 156 379 b 36 183 69 307 36 256 b 103 31 36 117 64 63 b 332 -25 140 0 207 -25 b 526 8 436 -25 492 -10 b 636 111 571 31 610 69 b 739 11 653 81 682 39 b 940 -25 783 -11 846 -25 b 1172 22 1001 -25 1094 -22 b 1311 204 1226 53 1286 107 z m 507 308 b 472 169 507 267 500 201 b 400 139 450 144 422 139 b 340 156 382 139 358 140 b 319 203 332 163 319 178 b 347 260 319 236 338 253 b 432 281 368 274 397 275 b 507 308 461 285 481 290 z m 806 433 b 839 528 807 468 819 507 b 918 557 863 554 896 557 b 990 529 942 557 969 551 b 1022 433 1010 508 1022 467 z "},"Ӗ":{"ha":999,"x_min":0,"x_max":0,"o":"m 421 606 l 421 715 l 925 715 l 925 972 l 118 972 l 118 0 l 936 0 l 936 257 l 421 257 l 421 376 l 853 376 l 853 606 z m 638 1250 b 613 1189 639 1219 624 1199 b 532 1165 588 1167 551 1165 b 451 1189 517 1165 476 1167 b 426 1250 436 1203 425 1224 l 257 1250 b 313 1126 261 1192 288 1151 b 532 1056 378 1061 476 1056 b 751 1126 588 1056 686 1061 b 807 1250 776 1151 803 1192 z "},"ӗ":{"ha":900,"x_min":0,"x_max":0,"o":"m 561 204 b 525 161 557 190 547 174 b 456 147 506 150 476 147 b 367 188 413 147 385 164 b 340 294 349 213 339 257 l 858 294 l 858 311 b 761 626 858 394 857 528 b 453 731 707 682 614 731 b 147 617 344 731 233 707 b 42 332 81 547 42 444 b 138 72 42 214 83 126 b 450 -25 225 -15 340 -25 b 707 28 524 -25 618 -24 b 847 204 790 76 828 144 z m 342 433 b 376 526 343 463 354 503 b 456 557 397 550 426 557 b 528 528 479 557 507 551 b 558 433 547 507 558 464 z m 556 975 b 531 914 557 944 542 924 b 450 890 506 892 469 890 b 369 914 435 890 394 892 b 344 975 354 928 343 949 l 175 975 b 231 851 179 917 206 876 b 450 781 296 786 394 781 b 669 851 506 781 604 786 b 725 975 694 876 721 917 z "},"Ӝ":{"ha":1422,"x_min":0,"x_max":0,"o":"m 575 0 l 847 0 l 847 414 l 1088 0 l 1436 0 l 1085 526 l 1419 972 l 1079 972 l 847 608 l 847 972 l 575 972 l 575 608 l 343 972 l 3 972 l 339 526 l -14 0 l 335 0 l 575 414 z m 404 1082 l 643 1082 l 643 1261 l 404 1261 z m 778 1082 l 1017 1082 l 1017 1261 l 778 1261 z "},"ӝ":{"ha":1179,"x_min":0,"x_max":0,"o":"m 457 706 l 457 432 l 285 706 l 4 706 l 246 368 l -14 0 l 285 0 l 457 292 l 457 0 l 721 0 l 721 292 l 894 0 l 1193 0 l 929 371 l 1174 706 l 894 706 l 721 432 l 721 706 z m 278 807 l 517 807 l 517 986 l 278 986 z m 651 807 l 890 807 l 890 986 l 651 986 z "},"Ӟ":{"ha":1057,"x_min":0,"x_max":0,"o":"m 49 346 b 181 60 51 254 83 135 b 529 -25 282 -19 419 -25 b 894 58 647 -25 786 -19 b 1008 286 978 117 1008 194 b 950 439 1008 340 994 394 b 821 506 921 469 875 496 l 821 514 b 935 571 869 519 910 543 b 985 714 964 603 985 654 b 911 890 985 799 947 856 b 538 994 826 972 694 994 b 165 878 426 994 264 978 b 78 639 128 840 76 765 l 372 639 b 403 742 371 681 379 715 b 515 782 436 778 481 782 b 619 754 543 782 588 779 b 658 675 646 733 658 703 b 626 606 658 649 647 621 b 535 585 614 597 590 585 l 438 585 l 438 393 l 524 393 b 640 375 561 393 613 388 b 686 306 669 361 686 340 b 639 217 686 268 668 235 b 519 192 631 211 597 192 b 388 233 483 192 428 196 b 342 346 382 239 343 278 z m 225 1082 l 464 1082 l 464 1261 l 225 1261 z m 599 1082 l 838 1082 l 838 1261 l 599 1261 z "},"ӟ":{"ha":853,"x_min":0,"x_max":0,"o":"m 35 251 b 106 67 33 164 71 103 b 443 -25 190 -19 332 -25 b 710 26 600 -25 674 6 b 818 208 785 71 818 143 b 774 319 818 257 799 296 b 663 369 749 344 704 364 l 663 378 b 750 419 694 382 728 397 b 789 524 776 446 789 485 b 729 656 789 572 768 621 b 429 732 667 713 553 732 b 124 636 300 732 193 708 b 50 457 90 601 54 540 l 304 457 b 329 538 303 501 318 525 b 410 565 347 556 378 565 b 482 547 432 565 464 560 b 508 496 497 536 508 518 b 488 447 508 468 494 453 b 411 431 468 432 438 431 l 365 431 l 365 288 l 429 288 b 503 271 449 288 481 288 b 529 219 517 261 529 242 b 507 168 529 200 521 182 b 421 144 483 146 450 144 b 325 176 394 144 353 146 b 299 251 308 194 299 222 z m 119 807 l 358 807 l 358 986 l 119 986 z m 493 807 l 732 807 l 732 986 l 493 986 z "},"Ӣ":{"ha":1118,"x_min":0,"x_max":0,"o":"m 413 451 l 413 972 l 118 972 l 118 0 l 413 0 l 706 526 l 706 0 l 1000 0 l 1000 972 l 706 972 z m 276 1082 l 840 1082 l 840 1215 l 276 1215 z "},"ӣ":{"ha":996,"x_min":0,"x_max":0,"o":"m 368 308 l 363 308 l 368 344 l 368 706 l 90 706 l 90 0 l 379 0 l 628 399 l 633 399 l 628 361 l 628 0 l 906 0 l 906 706 l 617 706 z m 215 819 l 779 819 l 779 953 l 215 953 z "},"Ӥ":{"ha":1118,"x_min":0,"x_max":0,"o":"m 413 451 l 413 972 l 118 972 l 118 0 l 413 0 l 706 526 l 706 0 l 1000 0 l 1000 972 l 706 972 z m 253 1082 l 492 1082 l 492 1261 l 253 1261 z m 626 1082 l 865 1082 l 865 1261 l 626 1261 z "},"ӥ":{"ha":996,"x_min":0,"x_max":0,"o":"m 368 308 l 363 308 l 368 344 l 368 706 l 90 706 l 90 0 l 379 0 l 628 399 l 633 399 l 628 361 l 628 0 l 906 0 l 906 706 l 617 706 z m 192 807 l 431 807 l 431 986 l 192 986 z m 565 807 l 804 807 l 804 986 l 565 986 z "},"Ӧ":{"ha":1136,"x_min":0,"x_max":0,"o":"m 56 483 b 181 115 56 276 136 163 b 572 -26 294 -7 444 -26 b 954 113 699 -26 842 -8 b 1081 492 1024 188 1081 307 b 951 861 1081 601 1060 749 b 564 999 839 976 693 999 b 193 863 451 999 310 983 b 56 483 121 788 56 663 z m 378 486 b 442 692 378 539 386 633 b 574 743 479 731 525 743 b 699 692 621 743 663 729 b 758 486 749 639 758 557 b 699 281 758 415 743 329 b 568 229 663 240 615 229 b 439 281 519 229 475 243 b 378 486 385 339 378 433 z m 261 1082 l 500 1082 l 500 1261 l 261 1261 z m 635 1082 l 874 1082 l 874 1261 l 635 1261 z "},"ӧ":{"ha":908,"x_min":0,"x_max":0,"o":"m 454 547 b 521 519 483 547 503 538 b 567 353 551 488 567 436 b 521 186 567 269 551 218 b 454 158 503 168 483 158 b 389 185 429 158 408 165 b 342 353 356 218 342 272 b 388 519 342 436 357 488 b 454 547 406 538 425 547 z m 867 354 b 763 628 867 482 824 569 b 456 731 663 724 528 731 b 149 628 371 731 242 718 b 42 354 92 574 42 482 b 147 78 42 204 106 118 b 454 -25 240 -11 367 -25 b 761 78 539 -25 667 -12 b 867 354 819 133 867 222 z m 147 807 l 386 807 l 386 986 l 147 986 z m 521 807 l 760 807 l 760 986 l 521 986 z "},"Ө":{"ha":1136,"x_min":0,"x_max":0,"o":"m 390 590 b 444 715 396 636 415 685 b 569 764 479 751 522 764 b 694 714 614 764 658 753 b 744 590 721 685 742 640 z m 746 390 b 690 257 742 347 722 290 b 563 208 668 233 629 208 b 431 261 522 208 469 217 b 385 390 401 294 386 344 z m 56 483 b 181 115 56 276 136 163 b 572 -26 294 -7 444 -26 b 954 113 699 -26 842 -8 b 1081 492 1024 188 1081 307 b 951 861 1081 601 1060 749 b 565 999 839 978 693 999 b 193 863 451 999 310 983 b 56 483 121 788 56 663 z "},"ө":{"ha":908,"x_min":0,"x_max":0,"o":"m 339 431 b 372 524 342 465 356 503 b 457 561 390 546 418 561 b 542 524 485 561 518 556 b 569 431 557 503 568 463 z m 572 288 b 536 182 571 256 558 208 b 449 144 518 161 485 144 b 367 182 414 144 385 160 b 336 288 346 208 336 256 z m 867 349 b 761 629 867 501 803 589 b 457 731 667 719 542 731 b 147 618 358 731 239 714 b 42 333 89 557 42 461 b 146 61 42 196 94 108 b 439 -25 229 -14 343 -25 b 760 76 543 -25 665 -14 b 867 349 811 126 867 211 z "},"Ӫ":{"ha":1136,"x_min":0,"x_max":0,"o":"m 390 590 b 444 715 396 636 415 685 b 569 764 479 751 522 764 b 694 714 614 764 658 753 b 744 590 721 685 742 640 z m 746 390 b 690 257 742 347 722 290 b 563 208 668 233 629 208 b 431 261 522 208 469 217 b 385 390 401 294 386 344 z m 56 483 b 181 115 56 276 136 163 b 572 -26 294 -7 444 -26 b 954 113 699 -26 842 -8 b 1081 492 1024 188 1081 307 b 951 861 1081 601 1060 749 b 565 999 839 978 693 999 b 193 863 451 999 310 983 b 56 483 121 788 56 663 z m 261 1082 l 500 1082 l 500 1261 l 261 1261 z m 635 1082 l 874 1082 l 874 1261 l 635 1261 z "},"ӫ":{"ha":908,"x_min":0,"x_max":0,"o":"m 339 431 b 372 524 342 465 356 503 b 457 561 390 546 418 561 b 542 524 485 561 518 556 b 569 431 557 503 568 463 z m 572 288 b 536 182 571 256 558 208 b 449 144 518 161 485 144 b 367 182 414 144 385 160 b 336 288 346 208 336 256 z m 867 349 b 761 629 867 501 803 589 b 457 731 667 719 542 731 b 147 618 358 731 239 714 b 42 333 89 557 42 461 b 146 61 42 196 94 108 b 439 -25 229 -14 343 -25 b 760 76 543 -25 665 -14 b 867 349 811 126 867 211 z m 147 807 l 386 807 l 386 986 l 147 986 z m 521 807 l 760 807 l 760 986 l 521 986 z "},"Ӯ":{"ha":918,"x_min":0,"x_max":0,"o":"m 489 544 l 332 972 l 0 972 l 326 301 b 215 233 303 239 242 233 b 113 257 174 233 139 243 l 113 15 b 301 -12 185 -11 235 -12 b 503 44 360 -12 429 -12 b 629 229 567 94 603 165 l 936 972 l 621 972 z m 194 1082 l 758 1082 l 758 1215 l 194 1215 z "},"ӯ":{"ha":817,"x_min":0,"x_max":0,"o":"m 86 -240 b 246 -258 154 -256 211 -258 b 463 -189 360 -258 425 -224 b 568 11 518 -137 546 -51 l 817 706 l 546 706 l 435 265 l 294 706 l 0 706 l 276 42 l 269 11 b 233 -49 265 -8 257 -32 b 164 -67 210 -67 185 -67 b 86 -53 138 -67 115 -64 z m 125 819 l 689 819 l 689 953 l 125 953 z "},"Ӱ":{"ha":918,"x_min":0,"x_max":0,"o":"m 489 544 l 332 972 l 0 972 l 326 301 b 215 233 303 239 242 233 b 113 257 174 233 139 243 l 113 15 b 301 -12 185 -11 235 -12 b 503 44 360 -12 429 -12 b 629 229 567 94 603 165 l 936 972 l 621 972 z m 156 1082 l 394 1082 l 394 1261 l 156 1261 z m 529 1082 l 768 1082 l 768 1261 l 529 1261 z "},"ӱ":{"ha":817,"x_min":0,"x_max":0,"o":"m 86 -240 b 246 -258 154 -256 211 -258 b 463 -189 360 -258 425 -224 b 568 11 518 -137 546 -51 l 817 706 l 546 706 l 435 265 l 294 706 l 0 706 l 276 42 l 269 11 b 233 -49 265 -8 257 -32 b 164 -67 210 -67 185 -67 b 86 -53 138 -67 115 -64 z m 100 807 l 339 807 l 339 986 l 100 986 z m 474 807 l 713 807 l 713 986 l 474 986 z "},"Ӳ":{"ha":918,"x_min":0,"x_max":0,"o":"m 489 544 l 332 972 l 0 972 l 326 301 b 215 233 303 239 242 233 b 113 257 174 233 139 243 l 113 15 b 301 -12 185 -11 235 -12 b 503 44 360 -12 429 -12 b 629 229 567 94 603 165 l 936 972 l 621 972 z m 267 1261 l 188 1078 l 392 1078 l 526 1261 z m 590 1261 l 511 1078 l 715 1078 l 851 1261 z "},"ӳ":{"ha":817,"x_min":0,"x_max":0,"o":"m 86 -240 b 246 -258 154 -256 211 -258 b 463 -189 360 -258 425 -224 b 568 11 518 -137 546 -51 l 817 706 l 546 706 l 435 265 l 294 706 l 0 706 l 276 42 l 269 11 b 233 -49 265 -8 257 -32 b 164 -67 210 -67 185 -67 b 86 -53 138 -67 115 -64 z m 182 986 l 103 803 l 307 803 l 442 986 z m 506 986 l 426 803 l 631 803 l 767 986 z "},"Ӵ":{"ha":1029,"x_min":0,"x_max":0,"o":"m 49 972 l 49 676 b 154 424 49 578 65 483 b 429 365 178 407 253 365 b 608 376 478 365 550 371 l 608 0 l 911 0 l 911 972 l 608 972 l 608 597 b 490 588 571 592 528 588 b 371 622 464 588 404 588 b 339 747 340 653 339 707 l 339 972 z m 174 1082 l 413 1082 l 413 1261 l 174 1261 z m 547 1082 l 786 1082 l 786 1261 l 547 1261 z "},"ӵ":{"ha":861,"x_min":0,"x_max":0,"o":"m 36 706 l 36 506 b 94 313 36 424 44 360 b 346 244 157 253 264 244 b 479 254 389 244 432 247 l 479 0 l 771 0 l 771 706 l 479 706 l 479 422 b 417 417 457 418 438 417 b 329 443 396 417 351 418 b 311 521 311 464 311 497 l 311 706 z m 104 807 l 343 807 l 343 986 l 104 986 z m 478 807 l 717 807 l 717 986 l 478 986 z "},"Ӹ":{"ha":1475,"x_min":0,"x_max":0,"o":"m 1054 972 l 1054 0 l 1357 0 l 1357 972 z m 419 972 l 118 972 l 118 0 l 614 0 b 904 83 686 0 821 3 b 989 319 954 132 989 217 b 906 546 989 438 944 507 b 613 643 822 629 700 643 l 419 643 z m 419 413 l 578 413 b 656 392 601 413 633 408 b 685 328 679 374 685 351 b 663 264 685 308 682 282 b 578 239 643 246 608 239 l 419 239 z m 431 1082 l 669 1082 l 669 1261 l 431 1261 z m 804 1082 l 1043 1082 l 1043 1261 l 804 1261 z "},"ӹ":{"ha":1261,"x_min":0,"x_max":0,"o":"m 882 706 l 882 0 l 1171 0 l 1171 706 z m 382 706 l 90 706 l 90 0 l 551 0 b 756 63 599 0 694 4 b 818 233 790 96 818 153 b 756 399 818 317 786 369 b 524 464 689 461 574 464 l 382 464 z m 382 311 l 453 311 b 522 293 478 311 506 306 b 550 233 535 283 550 265 b 525 168 550 211 543 183 b 454 149 508 154 478 149 l 382 149 z m 324 807 l 563 807 l 563 986 l 324 986 z m 697 807 l 936 807 l 936 986 l 697 986 z "},"ẞ":{"ha":1881,"x_min":0,"x_max":0,"o":"m 976 321 b 1068 79 978 219 1018 131 b 1408 -31 1164 -21 1313 -31 b 1751 76 1497 -31 1654 -22 b 1843 313 1803 129 1843 222 b 1768 501 1843 407 1801 468 b 1542 604 1703 567 1607 590 l 1447 625 b 1307 671 1375 640 1331 647 b 1288 718 1290 686 1288 704 b 1321 775 1288 742 1303 764 b 1404 792 1342 788 1379 792 b 1499 761 1457 792 1485 776 b 1521 694 1514 744 1521 718 l 1807 694 b 1707 914 1803 794 1756 872 b 1404 997 1618 990 1479 997 b 1106 915 1317 997 1199 988 b 992 681 1058 878 992 807 b 1067 497 992 601 1015 543 b 1307 394 1101 465 1169 422 l 1404 375 b 1518 336 1436 368 1492 354 b 1554 267 1544 318 1554 296 b 1518 197 1554 233 1539 211 b 1432 176 1492 179 1461 176 b 1314 215 1403 176 1349 178 b 1281 321 1293 238 1278 279 z m 42 321 b 133 79 43 219 83 131 b 474 -31 229 -21 378 -31 b 817 76 563 -31 719 -22 b 908 313 868 129 908 222 b 833 501 908 407 867 468 b 607 604 768 567 672 590 l 513 625 b 372 671 440 640 396 647 b 353 718 356 686 353 704 b 386 775 353 742 368 764 b 469 792 407 788 444 792 b 564 761 522 792 550 776 b 586 694 579 744 586 718 l 872 694 b 772 914 868 794 821 872 b 469 997 683 990 544 997 b 171 915 382 997 264 988 b 57 681 124 878 57 807 b 132 497 57 601 81 543 b 372 394 167 465 235 422 l 469 375 b 583 336 501 368 557 354 b 619 267 610 318 619 296 b 583 197 619 233 604 211 b 497 176 557 179 526 176 b 379 215 468 176 414 178 b 346 321 358 238 343 279 z "},"‐":{"ha":701,"x_min":0,"x_max":0,"o":"m 74 285 l 628 285 l 628 542 l 74 542 z "},"‑":{"ha":701,"x_min":0,"x_max":0,"o":"m 74 285 l 628 285 l 628 542 l 74 542 z "},"‒":{"ha":933,"x_min":0,"x_max":0,"o":"m 74 554 l 74 436 l 860 436 l 860 554 z "},"–":{"ha":933,"x_min":0,"x_max":0,"o":"m 74 431 l 74 313 l 860 313 l 860 431 z "},"—":{"ha":1064,"x_min":0,"x_max":0,"o":"m 74 358 l 990 358 l 990 476 l 74 476 z "},"―":{"ha":1064,"x_min":0,"x_max":0,"o":"m 74 358 l 990 358 l 990 476 l 74 476 z "},"‘":{"ha":461,"x_min":0,"x_max":0,"o":"m 364 947 l 224 947 b 256 1033 224 981 236 1013 b 358 1065 285 1064 322 1065 l 364 1065 l 364 1192 l 357 1192 b 174 1129 313 1192 235 1188 b 97 913 107 1067 97 976 l 97 697 l 364 697 z "},"’":{"ha":468,"x_min":0,"x_max":0,"o":"m 128 942 l 268 942 b 236 856 268 908 256 876 b 133 824 207 825 169 824 l 128 824 l 128 697 l 135 697 b 318 760 179 697 257 701 b 394 976 385 822 394 913 l 394 1192 l 128 1192 z "},"‚":{"ha":461,"x_min":0,"x_max":0,"o":"m 97 19 l 238 19 b 206 -67 238 -14 225 -46 b 103 -99 176 -97 139 -99 l 97 -99 l 97 -225 l 104 -225 b 288 -162 149 -225 226 -221 b 364 54 354 -100 364 -10 l 364 269 l 97 269 z "},"“":{"ha":794,"x_min":0,"x_max":0,"o":"m 697 947 l 556 947 b 588 1033 556 981 568 1013 b 692 1065 621 1067 664 1065 l 697 1065 l 697 1192 l 689 1192 b 506 1129 644 1192 567 1188 b 431 915 442 1068 431 982 l 431 697 l 697 697 z m 364 947 l 224 947 b 256 1033 224 981 236 1013 b 358 1065 285 1064 322 1065 l 364 1065 l 364 1192 l 357 1192 b 174 1129 313 1192 235 1188 b 97 913 107 1067 97 976 l 97 697 l 364 697 z "},"”":{"ha":794,"x_min":0,"x_max":0,"o":"m 97 942 l 239 942 b 207 856 239 908 226 876 b 103 824 174 822 131 824 l 97 824 l 97 697 l 106 697 b 289 760 150 697 228 701 b 364 974 353 821 364 907 l 364 1192 l 97 1192 z m 431 942 l 571 942 b 539 856 571 908 558 876 b 436 824 510 825 472 824 l 431 824 l 431 697 l 438 697 b 621 760 482 697 560 701 b 697 976 688 822 697 913 l 697 1192 l 431 1192 z "},"„":{"ha":794,"x_min":0,"x_max":0,"o":"m 97 0 l 239 0 b 207 -86 239 -33 226 -65 b 103 -118 174 -119 131 -118 l 97 -118 l 97 -244 l 106 -244 b 289 -182 150 -244 228 -240 b 364 32 353 -121 364 -35 l 364 250 l 97 250 z m 431 0 l 571 0 b 539 -86 571 -33 558 -65 b 436 -118 510 -117 472 -118 l 431 -118 l 431 -244 l 438 -244 b 621 -182 482 -244 560 -240 b 697 35 688 -119 697 -29 l 697 250 l 431 250 z "},"†":{"ha":918,"x_min":0,"x_max":0,"o":"m 322 972 l 322 719 l 35 719 l 35 461 l 322 461 l 322 -257 l 597 -257 l 597 461 l 883 461 l 883 719 l 597 719 l 597 972 z "},"‡":{"ha":918,"x_min":0,"x_max":0,"o":"m 322 972 l 322 719 l 35 719 l 35 467 l 322 467 l 322 268 l 35 268 l 35 15 l 322 15 l 322 -257 l 597 -257 l 597 15 l 883 15 l 883 268 l 597 268 l 597 467 l 883 467 l 883 719 l 597 719 l 597 972 z "},"•":{"ha":988,"x_min":0,"x_max":0,"o":"m 215 507 b 490 232 215 357 336 232 b 765 507 646 232 765 358 b 490 785 765 660 644 785 b 215 507 338 785 215 660 z "},"…":{"ha":1554,"x_min":0,"x_max":0,"o":"m 97 0 l 393 0 l 393 286 l 97 286 z m 629 0 l 925 0 l 925 286 l 629 286 z m 1161 0 l 1457 0 l 1457 286 l 1161 286 z "},"‰":{"ha":1840,"x_min":0,"x_max":0,"o":"m 556 725 b 474 935 556 832 514 897 b 289 1003 440 967 381 1003 b 103 935 196 1003 136 965 b 21 725 64 897 21 832 b 103 514 21 619 63 551 b 289 447 144 475 208 447 b 474 515 381 447 440 483 b 556 725 514 553 556 618 z m 286 843 b 344 815 318 843 336 826 b 367 725 367 788 367 744 b 343 635 367 694 360 657 b 286 607 332 619 313 607 b 229 635 263 607 242 618 b 206 725 207 663 206 707 b 226 813 206 756 210 790 b 286 843 236 826 254 843 z m 224 0 l 371 0 l 1019 990 l 879 990 z m 1208 247 b 1126 457 1208 354 1167 419 b 942 525 1093 489 1033 525 b 756 457 849 525 789 488 b 674 247 717 419 674 354 b 756 36 674 142 715 74 b 942 -31 797 -3 861 -31 b 1126 38 1033 -31 1093 6 b 1208 247 1167 75 1208 140 z m 939 365 b 997 338 971 365 989 349 b 1019 247 1019 310 1019 267 b 996 157 1019 217 1013 179 b 939 129 985 142 965 129 b 882 157 915 129 894 140 b 858 247 860 185 858 229 b 879 335 858 278 863 313 b 939 365 889 349 907 365 z m 1819 247 b 1738 457 1819 354 1778 419 b 1553 525 1704 489 1644 525 b 1367 457 1460 525 1400 488 b 1285 247 1328 419 1285 354 b 1367 36 1285 142 1326 74 b 1553 -31 1408 -3 1472 -31 b 1738 38 1644 -31 1704 6 b 1819 247 1778 75 1819 140 z m 1550 365 b 1608 338 1582 365 1600 349 b 1631 247 1631 310 1631 267 b 1607 157 1631 217 1624 179 b 1550 129 1596 142 1576 129 b 1493 157 1526 129 1506 140 b 1469 247 1471 185 1469 229 b 1490 335 1469 278 1474 313 b 1550 365 1500 349 1518 365 z "},"‹":{"ha":375,"x_min":0,"x_max":0,"o":"m 56 494 l 56 238 l 264 43 l 264 292 l 174 368 l 264 442 l 264 688 z "},"›":{"ha":376,"x_min":0,"x_max":0,"o":"m 321 494 l 111 689 l 111 440 l 203 364 l 111 289 l 111 43 l 321 238 z "},"⁄":{"ha":1094,"x_min":0,"x_max":0,"o":"m 49 0 l 199 0 l 1032 972 l 882 972 z "},"€":{"ha":1000,"x_min":0,"x_max":0,"o":"m 903 308 b 785 240 869 283 832 260 b 635 207 732 218 688 207 b 490 247 568 207 522 225 b 422 353 457 271 432 306 l 661 353 l 717 461 l 411 461 b 411 525 407 482 407 504 l 742 525 l 797 633 l 432 633 b 486 724 442 678 465 707 b 622 767 528 760 579 767 b 828 682 669 767 754 758 l 958 889 b 631 999 860 972 749 999 b 257 885 458 999 338 954 b 113 633 197 833 138 749 l 32 633 l -24 525 l 103 525 b 103 461 99 501 100 481 l 28 461 l -28 353 l 110 353 b 240 85 122 258 167 153 b 594 -28 281 47 386 -28 b 786 0 653 -28 722 -19 b 903 50 819 10 860 25 z "},"№":{"ha":1756,"x_min":0,"x_max":0,"o":"m 1122 0 l 1664 0 l 1664 190 l 1122 190 z m 1397 844 b 1200 781 1338 844 1261 835 b 1113 560 1146 732 1113 651 b 1186 361 1113 461 1149 399 b 1388 288 1244 303 1321 288 b 1593 361 1450 288 1529 297 b 1672 571 1633 401 1672 468 b 1596 774 1672 685 1622 747 b 1397 844 1533 836 1456 844 z m 1396 703 b 1454 679 1418 703 1438 699 b 1485 571 1483 647 1485 589 b 1460 467 1485 511 1468 479 b 1394 429 1444 444 1425 429 b 1329 460 1365 429 1344 440 b 1300 569 1310 485 1300 529 b 1335 678 1300 613 1313 654 b 1396 703 1353 697 1372 703 z m 421 544 l 718 0 l 1021 0 l 1021 972 l 718 972 l 718 501 l 725 428 l 718 428 l 421 972 l 118 972 l 118 0 l 421 0 l 421 471 l 414 544 z "},"℗":{"ha":1000,"x_min":0,"x_max":0,"o":"m 14 486 b 157 143 14 414 31 269 b 500 0 283 17 428 0 b 843 142 625 0 750 49 b 986 486 938 236 986 363 b 843 831 986 610 938 736 b 500 972 740 932 610 972 b 157 831 390 972 260 932 b 14 486 63 736 14 610 z m 125 486 b 233 750 125 572 156 671 b 500 861 307 825 404 861 b 763 754 586 861 685 831 b 875 486 839 679 875 581 b 767 222 875 400 844 301 b 500 111 693 147 594 111 b 233 221 407 111 306 149 b 125 486 163 292 125 393 z m 317 725 l 317 253 l 463 253 l 463 390 l 556 390 b 696 432 597 390 651 389 b 740 556 733 468 740 517 b 697 679 740 592 736 642 b 556 725 654 721 596 725 z m 463 597 l 533 597 b 582 585 547 597 569 599 b 593 549 593 574 593 553 b 576 511 593 539 592 521 b 533 503 569 507 558 503 l 463 503 z "},"™":{"ha":1403,"x_min":0,"x_max":0,"o":"m 188 842 l 188 483 l 392 483 l 392 838 l 550 838 l 550 972 l 28 972 l 28 842 z m 914 483 l 1042 483 l 1142 785 l 1147 785 l 1142 754 l 1142 483 l 1326 483 l 1326 972 l 1074 972 l 979 665 l 975 665 l 881 972 l 628 972 l 628 483 l 813 483 l 813 754 l 807 785 l 813 785 z "},"∂":{"ha":922,"x_min":0,"x_max":0,"o":"m 326 944 b 649 813 419 933 560 903 b 740 550 735 725 740 640 l 740 540 l 729 540 b 640 651 711 594 675 629 b 449 697 574 693 483 697 b 146 585 335 697 231 668 b 28 293 79 519 28 421 b 119 58 28 176 71 103 b 388 -26 199 -15 297 -26 b 722 96 492 -26 613 -17 b 894 594 843 221 894 440 b 775 915 894 681 878 813 b 369 1069 664 1026 482 1063 z m 482 519 b 546 494 508 519 531 510 b 572 414 560 481 572 456 b 485 188 572 347 538 236 b 394 151 454 160 422 151 b 326 182 368 151 344 160 b 306 256 308 204 306 233 b 378 472 306 332 336 426 b 482 519 404 501 442 519 z "},"∏":{"ha":1072,"x_min":0,"x_max":0,"o":"m 415 717 l 657 717 l 657 -257 l 954 -257 l 954 717 l 1031 717 l 1031 972 l 42 972 l 42 717 l 118 717 l 118 -257 l 415 -257 z "},"∑":{"ha":839,"x_min":0,"x_max":0,"o":"m 14 972 l 14 743 l 339 368 l 14 -51 l 14 -287 l 832 -287 l 832 -31 l 303 -31 l 608 368 l 317 715 l 821 715 l 821 972 z "},"−":{"ha":938,"x_min":0,"x_max":0,"o":"m 74 542 l 74 424 l 860 424 l 860 542 z "},"∕":{"ha":628,"x_min":0,"x_max":0,"o":"m 0 -257 l 118 -257 l 628 972 l 510 972 z "},"∙":{"ha":490,"x_min":0,"x_max":0,"o":"m 97 367 l 393 367 l 393 653 l 97 653 z "},"√":{"ha":1063,"x_min":0,"x_max":0,"o":"m 397 715 l 28 715 l 28 589 l 217 589 l 450 -139 l 639 -139 l 850 1053 l 1035 1053 l 1035 1179 l 717 1179 l 556 183 z "},"∞":{"ha":1410,"x_min":0,"x_max":0,"o":"m 675 399 b 815 275 715 353 769 304 b 1018 218 876 236 938 218 b 1233 297 1100 218 1171 236 b 1313 499 1292 354 1313 422 b 1246 678 1313 589 1275 646 b 1046 758 1204 724 1136 758 b 858 699 983 758 915 738 b 731 571 815 668 761 611 b 594 701 692 628 644 671 b 392 758 532 740 472 758 b 176 679 310 758 239 740 b 97 478 118 622 97 554 b 164 299 97 388 135 331 b 364 218 206 253 274 218 b 551 278 426 218 494 239 b 675 399 594 307 649 365 z m 617 467 b 510 361 586 425 549 388 b 363 315 465 331 424 315 b 229 363 317 315 268 324 b 185 485 192 400 185 446 b 226 611 185 522 190 571 b 350 661 261 650 306 661 b 493 613 413 661 460 639 b 617 467 533 581 590 508 z m 786 508 b 894 615 797 524 836 576 b 1042 661 939 646 981 661 b 1175 614 1088 661 1136 653 b 1219 492 1213 576 1219 531 b 1178 365 1219 454 1214 406 b 1054 315 1143 326 1099 315 b 911 364 1000 315 953 332 b 786 508 872 393 818 460 z "},"∫":{"ha":576,"x_min":0,"x_max":0,"o":"m 239 181 b 303 22 288 63 299 32 b 333 -110 321 -26 333 -69 b 313 -172 333 -128 331 -153 b 269 -192 300 -186 286 -192 b 215 -147 236 -192 221 -169 b 194 -94 211 -129 213 -112 b 133 -74 176 -76 156 -74 b 78 -93 114 -74 96 -76 b 56 -146 63 -107 56 -122 b 117 -249 56 -176 69 -217 b 264 -286 164 -279 219 -286 b 463 -207 367 -286 429 -244 b 521 -26 493 -172 521 -114 b 456 247 521 78 475 199 l 338 535 b 274 693 289 653 278 683 b 243 825 256 742 243 785 b 264 888 243 843 246 868 b 307 907 276 901 290 907 b 361 863 340 907 356 885 b 382 810 365 844 364 828 b 443 789 400 792 421 789 b 499 808 463 789 481 792 b 521 861 514 822 521 838 b 460 964 521 892 507 932 b 313 1001 413 994 357 1001 b 114 922 210 1001 147 960 b 56 742 83 888 56 829 b 121 468 56 642 97 525 z "},"≈":{"ha":918,"x_min":0,"x_max":0,"o":"m 174 494 b 211 544 183 511 199 532 b 288 574 232 565 257 574 b 390 540 328 574 357 558 l 469 496 b 626 450 510 474 563 450 b 758 504 676 450 718 464 b 835 638 793 540 821 596 l 732 700 b 699 649 726 690 710 660 b 631 621 685 633 661 621 b 519 660 593 621 553 640 l 453 699 b 297 744 403 728 357 744 b 150 682 233 744 192 725 b 69 558 122 653 90 604 z m 188 201 b 225 253 197 221 213 240 b 300 281 244 271 269 281 b 394 253 338 281 367 268 l 496 196 b 638 157 539 172 578 157 b 767 206 682 157 725 165 b 849 344 800 239 835 306 l 746 407 b 706 351 736 389 719 364 b 639 328 694 342 672 328 b 547 358 604 328 569 346 l 458 408 b 315 451 422 428 376 451 b 163 386 253 451 203 428 b 83 265 135 357 103 304 z "},"≠":{"ha":925,"x_min":0,"x_max":0,"o":"m 69 642 l 69 524 l 431 524 l 375 392 l 69 392 l 69 274 l 326 274 l 263 121 l 381 121 l 444 274 l 856 274 l 856 392 l 493 392 l 549 524 l 856 524 l 856 642 l 597 642 l 661 794 l 543 794 l 479 642 z "},"≤":{"ha":914,"x_min":0,"x_max":0,"o":"m 57 247 l 760 -160 l 817 -56 l 114 351 z m 197 574 l 831 928 l 774 1039 l 71 646 l 71 501 l 774 108 l 831 219 z "},"≥":{"ha":914,"x_min":0,"x_max":0,"o":"m 857 247 l 800 351 l 97 -56 l 154 -160 z m 717 574 l 83 219 l 140 108 l 843 501 l 843 646 l 140 1039 l 83 928 z "},"⋅":{"ha":490,"x_min":0,"x_max":0,"o":"m 97 367 l 393 367 l 393 653 l 97 653 z "},"◊":{"ha":668,"x_min":0,"x_max":0,"o":"m 599 486 l 335 972 l 69 486 l 335 0 z m 446 486 l 338 257 l 224 486 l 335 715 z "},"◦":{"ha":456,"x_min":0,"x_max":0,"o":"m 56 840 b 228 668 56 746 133 668 b 400 840 322 668 400 746 b 228 1013 400 935 322 1013 b 56 840 133 1013 56 935 z m 153 840 b 228 915 153 882 186 915 b 303 840 269 915 303 882 b 228 765 303 799 269 765 b 153 840 186 765 153 799 z "},"☆":{"ha":1517,"x_min":0,"x_max":0,"o":"m 443 778 b 758 878 456 829 486 878 b 1074 778 1031 878 1061 829 l 1074 764 b 1279 703 1172 707 1243 703 b 1400 724 1344 703 1382 717 b 1324 933 1383 818 1351 886 b 750 1029 1136 1003 951 1029 b 193 933 549 1029 375 1001 b 117 724 165 886 133 818 b 238 703 135 717 172 703 b 443 764 274 703 344 707 z m 443 724 b 242 669 410 704 343 669 b 117 692 214 669 185 671 l 117 663 b 246 544 117 592 122 544 b 443 699 417 544 443 621 z m 1074 699 b 1271 544 1074 621 1100 544 b 1400 663 1394 544 1400 592 l 1400 692 b 1275 669 1332 671 1303 669 b 1074 724 1174 669 1107 704 z m 657 686 l 657 778 l 507 778 l 507 651 l 332 368 b 264 158 275 276 264 210 l 264 0 l 1253 0 l 1253 158 b 1185 368 1253 210 1242 276 l 1010 651 l 1010 778 l 860 778 l 860 686 z "},"":{"ha":3,"x_min":0,"x_max":0,"o":"m -442 972 l -533 789 l -335 789 l -179 972 z "},"":{"ha":3,"x_min":0,"x_max":0,"o":"m -525 1261 l -617 1064 l -404 1064 l -249 1261 z "},"":{"ha":689,"x_min":0,"x_max":0,"o":"m 450 1250 b 425 1189 451 1219 436 1199 b 344 1165 400 1167 364 1165 b 264 1189 329 1165 289 1167 b 239 1250 249 1203 238 1224 l 69 1250 b 125 1126 74 1192 100 1151 b 344 1056 190 1061 289 1056 b 564 1126 400 1056 499 1061 b 619 1250 589 1151 615 1192 z "},"":{"ha":463,"x_min":0,"x_max":0,"o":"m 51 -325 b 211 -347 83 -337 125 -347 b 353 -315 249 -347 308 -346 b 413 -197 376 -300 413 -264 b 354 -90 413 -151 394 -115 b 211 -62 338 -81 299 -62 b 140 -65 190 -62 167 -62 l 108 -158 l 128 -158 b 222 -164 194 -158 214 -162 b 254 -200 239 -168 254 -176 b 229 -235 254 -211 250 -226 b 172 -242 214 -242 183 -242 b 85 -228 144 -242 114 -236 z "},"":{"ha":797,"x_min":0,"x_max":0,"o":"m 399 1179 l 506 1064 l 728 1064 l 554 1247 l 243 1247 l 69 1064 l 292 1064 z "}}}
